<svg width="79" height="79" viewBox="0 0 79 79" fill="none" xmlns="http://www.w3.org/2000/svg">
<path d="M79.0001 18.8119H75.2476V22.5644H79.0001V18.8119Z" fill="#FF6600"/>
<path d="M67.7178 37.6237V41.3762H60.2128V45.1534H67.7178V67.7178H52.6831V71.4703H67.7178V75.2475H79V37.6237H67.7178Z" fill="#FF6600"/>
<path d="M75.2476 22.5644H71.4951V26.3416H75.2476V22.5644Z" fill="#FF6600"/>
<path d="M71.495 18.8119H67.7178V22.5644H71.495V18.8119Z" fill="#FF6600"/>
<path d="M67.7178 22.5644H63.9653V26.3416H67.7178V22.5644Z" fill="#FF6600"/>
<path d="M67.7178 3.77716H63.9653V7.52966H67.7178V3.77716Z" fill="#FF6600"/>
<path d="M63.9649 18.8119H60.2124V22.5644H63.9649V18.8119Z" fill="#FF6600"/>
<path d="M60.2132 37.6237H56.436V41.3762H60.2132V37.6237Z" fill="#FF6600"/>
<path d="M56.4356 33.8713H52.6831V37.6238H56.4356V33.8713Z" fill="#FF6600"/>
<path d="M52.6831 56.4356H48.9059V63.9653H41.4009V71.4703H45.1534V67.7178H52.6831V56.4356Z" fill="#FF6600"/>
<path d="M48.9058 52.6831H45.1533V56.4356H48.9058V52.6831Z" fill="#FF6600"/>
<path d="M48.9058 7.52966H45.1533V11.2822H48.9058V7.52966Z" fill="#FF6600"/>
<path d="M45.1534 48.9059H41.4009V52.6831H45.1534V48.9059Z" fill="#FF6600"/>
<path d="M45.1534 41.3763H41.4009V45.1535H45.1534V41.3763Z" fill="#FF6600"/>
<path d="M52.6829 30.0941H37.6235V33.8712H52.6829V30.0941Z" fill="#FF6600"/>
<path d="M45.1534 11.2822H41.4009V15.0594H45.1534V11.2822Z" fill="#FF6600"/>
<path d="M45.1534 3.77716H41.4009V7.52966H45.1534V3.77716Z" fill="#FF6600"/>
<path d="M41.4007 60.1881H37.6235V63.9653H41.4007V60.1881Z" fill="#FF6600"/>
<path d="M41.4007 45.1534H37.6235V48.9059H41.4007V45.1534Z" fill="#FF6600"/>
<path d="M41.4007 7.52966H37.6235V11.2822H41.4007V7.52966Z" fill="#FF6600"/>
<path d="M33.8711 75.2475H22.5889V79H37.6236V75.2475H41.4007V71.4703H33.8711V75.2475Z" fill="#FF6600"/>
<path d="M37.6236 33.8713H33.8711V37.6238H37.6236V33.8713Z" fill="#FF6600"/>
<path d="M33.8709 67.7178H30.0938V71.4703H33.8709V67.7178Z" fill="#FF6600"/>
<path d="M37.6234 48.9059H30.0938V52.6831H37.6234V48.9059Z" fill="#FF6600"/>
<path d="M33.8709 37.6237H30.0938V41.3762H33.8709V37.6237Z" fill="#FF6600"/>
<path d="M33.871 30.0941H26.3413V33.8712H33.871V30.0941Z" fill="#FF6600"/>
<path d="M30.0938 63.9653H26.3413V67.7178H30.0938V63.9653Z" fill="#FF6600"/>
<path d="M30.0938 41.3763H26.3413V48.906H30.0938V41.3763Z" fill="#FF6600"/>
<path d="M30.0938 15.0594H26.3413V18.8119H30.0938V15.0594Z" fill="#FF6600"/>
<path d="M26.3414 33.8713H22.5889V37.6238H26.3414V33.8713Z" fill="#FF6600"/>
<path d="M22.5892 71.4703H18.812V75.2475H22.5892V71.4703Z" fill="#FF6600"/>
<path d="M22.5892 37.6237H18.812V41.3762H22.5892V37.6237Z" fill="#FF6600"/>
<path d="M11.3069 67.7178V45.1534H18.8119V41.3762H11.3069V37.6237H0V75.2475H11.3069V71.4703H18.8119V67.7178H11.3069Z" fill="#FF6600"/>
<path d="M18.8121 0H15.0596V3.77719H18.8121V0Z" fill="#FF6600"/>
<path d="M11.307 30.0941V26.3416H15.0595V22.5644H11.307V18.8119H7.52984V22.5644H3.77734V26.3416H7.52984V30.0941H11.307Z" fill="#FF6600"/>
</svg>
