<svg width="28" height="28" viewBox="0 0 28 28" fill="none" xmlns="http://www.w3.org/2000/svg">
<path d="M27.2674 7.43524H24.7944V19.8326H27.2674V7.43524Z" fill="black"/>
<path d="M24.7944 19.8325H22.3052V22.3218H24.7944V19.8325Z" fill="black"/>
<path d="M24.7944 4.96216H22.3052V7.43513H24.7944V4.96216Z" fill="black"/>
<path d="M22.306 22.3218H19.833V24.7948H22.306V22.3218Z" fill="black"/>
<path d="M22.306 2.48932H19.833V4.96229H22.306V2.48932Z" fill="black"/>
<path d="M19.8315 14.8704H17.3423V17.3596H19.8315V14.8704Z" fill="black"/>
<path d="M19.8315 24.7948H7.43408V27.2678H19.8315V24.7948Z" fill="black"/>
<path d="M17.3434 12.3974H9.9082V14.8704H17.3434V12.3974Z" fill="black"/>
<path d="M9.9082 17.3596V19.8325H12.3974V22.3218H14.8704V19.8325H17.3434V17.3596H9.9082Z" fill="black"/>
<path d="M17.3434 9.92437V7.43513H14.8704V4.96216H12.3974V7.43513H9.9082V9.92437H17.3434Z" fill="black"/>
<path d="M19.8315 0H7.43408V2.48924H19.8315V0Z" fill="black"/>
<path d="M9.90705 9.92444H7.43408V12.3974H9.90705V9.92444Z" fill="black"/>
<path d="M7.43553 22.3218H4.94629V24.7948H7.43553V22.3218Z" fill="black"/>
<path d="M7.43553 2.48932H4.94629V4.96229H7.43553V2.48932Z" fill="black"/>
<path d="M4.94562 19.8325H2.47266V22.3218H4.94562V19.8325Z" fill="black"/>
<path d="M4.94562 4.96216H2.47266V7.43513H4.94562V4.96216Z" fill="black"/>
<path d="M2.47297 7.43524H0V19.8326H2.47297V7.43524Z" fill="black"/>
</svg>
