<svg width="89" height="93" viewBox="0 0 89 93" fill="none" xmlns="http://www.w3.org/2000/svg">
<g filter="url(#filter0_d_322_3337)">
<path d="M89 21.1931H84.7725V25.4206H89V21.1931Z" fill="#FF6600"/>
<path d="M76.2899 42.3862V46.6137H67.8349V50.869H76.2899V76.2897H59.3521V80.5172H76.2899V84.7725H89.0002V42.3862H76.2899Z" fill="#FF6600"/>
<path d="M84.7724 25.4207H80.5449V29.676H84.7724V25.4207Z" fill="#FF6600"/>
<path d="M80.5449 21.1931H76.2896V25.4206H80.5449V21.1931Z" fill="#FF6600"/>
<path d="M76.2895 25.4207H72.062V29.676H76.2895V25.4207Z" fill="#FF6600"/>
<path d="M76.2895 4.25537H72.062V8.48287H76.2895V4.25537Z" fill="#FF6600"/>
<path d="M72.062 21.1931H67.8345V25.4206H72.062V21.1931Z" fill="#FF6600"/>
<path d="M67.8349 42.3862H63.5796V46.6137H67.8349V42.3862Z" fill="#FF6600"/>
<path d="M63.5796 38.1588H59.3521V42.3863H63.5796V38.1588Z" fill="#FF6600"/>
<path d="M59.3519 63.5793H55.0966V72.0622H46.6416V80.5172H50.8691V76.2897H59.3519V63.5793Z" fill="#FF6600"/>
<path d="M55.0966 59.3519H50.8691V63.5794H55.0966V59.3519Z" fill="#FF6600"/>
<path d="M55.0966 8.48279H50.8691V12.7103H55.0966V8.48279Z" fill="#FF6600"/>
<path d="M50.8691 55.0966H46.6416V59.3519H50.8691V55.0966Z" fill="#FF6600"/>
<path d="M50.8691 46.6138H46.6416V50.8691H50.8691V46.6138Z" fill="#FF6600"/>
<path d="M59.3519 33.9034H42.3862V38.1588H59.3519V33.9034Z" fill="#FF6600"/>
<path d="M50.8691 12.7103H46.6416V16.9656H50.8691V12.7103Z" fill="#FF6600"/>
<path d="M50.8691 4.25537H46.6416V8.48287H50.8691V4.25537Z" fill="#FF6600"/>
<path d="M46.6415 67.8069H42.3862V72.0622H46.6415V67.8069Z" fill="#FF6600"/>
<path d="M46.6415 50.8691H42.3862V55.0966H46.6415V50.8691Z" fill="#FF6600"/>
<path d="M46.6415 8.48279H42.3862V12.7103H46.6415V8.48279Z" fill="#FF6600"/>
<path d="M38.1586 84.7725H25.4482V89H42.3861V84.7725H46.6414V80.5172H38.1586V84.7725Z" fill="#FF6600"/>
<path d="M42.3862 38.1588H38.1587V42.3863H42.3862V38.1588Z" fill="#FF6600"/>
<path d="M38.1586 76.2897H33.9033V80.5172H38.1586V76.2897Z" fill="#FF6600"/>
<path d="M42.3861 55.0966H33.9033V59.3519H42.3861V55.0966Z" fill="#FF6600"/>
<path d="M38.1586 42.3862H33.9033V46.6137H38.1586V42.3862Z" fill="#FF6600"/>
<path d="M38.1586 33.9034H29.6758V38.1588H38.1586V33.9034Z" fill="#FF6600"/>
<path d="M33.9033 72.0622H29.6758V76.2897H33.9033V72.0622Z" fill="#FF6600"/>
<path d="M33.9033 46.6138H29.6758V55.0966H33.9033V46.6138Z" fill="#FF6600"/>
<path d="M33.9033 16.9656H29.6758V21.1931H33.9033V16.9656Z" fill="#FF6600"/>
<path d="M29.6757 38.1588H25.4482V42.3863H29.6757V38.1588Z" fill="#FF6600"/>
<path d="M25.4487 80.5172H21.1934V84.7725H25.4487V80.5172Z" fill="#FF6600"/>
<path d="M25.4487 42.3862H21.1934V46.6137H25.4487V42.3862Z" fill="#FF6600"/>
<path d="M12.7381 76.2897V50.869H21.1931V46.6137H12.7381V42.3862H0V84.7725H12.7381V80.5172H21.1931V76.2897H12.7381Z" fill="#FF6600"/>
<path d="M21.1933 0H16.9658V4.25531H21.1933V0Z" fill="#FF6600"/>
<path d="M12.7382 33.9034V29.6759H16.9657V25.4206H12.7382V21.1931H8.48287V25.4206H4.25537V29.6759H8.48287V33.9034H12.7382Z" fill="#FF6600"/>
</g>
<defs>
<filter id="filter0_d_322_3337" x="0" y="0" width="89" height="93" filterUnits="userSpaceOnUse" color-interpolation-filters="sRGB">
<feFlood flood-opacity="0" result="BackgroundImageFix"/>
<feColorMatrix in="SourceAlpha" type="matrix" values="0 0 0 0 0 0 0 0 0 0 0 0 0 0 0 0 0 0 127 0" result="hardAlpha"/>
<feOffset dy="4"/>
<feComposite in2="hardAlpha" operator="out"/>
<feColorMatrix type="matrix" values="0 0 0 0 0 0 0 0 0 0 0 0 0 0 0 0 0 0 1 0"/>
<feBlend mode="normal" in2="BackgroundImageFix" result="effect1_dropShadow_322_3337"/>
<feBlend mode="normal" in="SourceGraphic" in2="effect1_dropShadow_322_3337" result="shape"/>
</filter>
</defs>
</svg>
