<svg width="81" height="94" viewBox="0 0 81 94" fill="none" xmlns="http://www.w3.org/2000/svg">
<g filter="url(#filter0_d_770_3936)">
<path d="M80.9124 17.0488H76.6362V34.0698H80.9124V17.0488Z" fill="#FF6600"/>
<path d="M76.636 34.0699H72.3877V46.8426H76.636V34.0699Z" fill="#FF6600"/>
<path d="M72.3879 46.8427H68.1396V63.8916H72.3879V46.8427Z" fill="#FF6600"/>
<path d="M68.14 63.8915H63.8638V80.9124H68.14V63.8915Z" fill="#FF6600"/>
<path d="M59.6146 17.049H76.6355V12.7728H59.6146V4.24829H55.3384V85.1887H63.8628V80.9125H59.6146V17.049Z" fill="#FF6600"/>
<path d="M55.3389 85.1887H4.24805V89.4369H55.3389V85.1887Z" fill="#FF6600"/>
<path d="M51.0901 72.3881H46.8418V80.9125H51.0901V72.3881Z" fill="#FF6600"/>
<path d="M34.0694 25.5455H25.545V34.0699H17.0205V42.5944H25.545V46.8426H21.2688V51.1189H38.3177V46.8426H34.0694V42.5944H42.5659V34.0699H34.0694V25.5455Z" fill="#FF6600"/>
<path d="M12.7728 8.52441H8.49658V17.0489H12.7728V8.52441Z" fill="#FF6600"/>
<path d="M55.3389 0H4.24805V4.24826H55.3389V0Z" fill="#FF6600"/>
<path d="M4.24826 4.24829H0V85.1887H4.24826V4.24829Z" fill="#FF6600"/>
</g>
<defs>
<filter id="filter0_d_770_3936" x="0" y="0" width="80.9126" height="93.4369" filterUnits="userSpaceOnUse" color-interpolation-filters="sRGB">
<feFlood flood-opacity="0" result="BackgroundImageFix"/>
<feColorMatrix in="SourceAlpha" type="matrix" values="0 0 0 0 0 0 0 0 0 0 0 0 0 0 0 0 0 0 127 0" result="hardAlpha"/>
<feOffset dy="4"/>
<feComposite in2="hardAlpha" operator="out"/>
<feColorMatrix type="matrix" values="0 0 0 0 0.394231 0 0 0 0 0.158829 0 0 0 0 0.00189534 0 0 0 1 0"/>
<feBlend mode="normal" in2="BackgroundImageFix" result="effect1_dropShadow_770_3936"/>
<feBlend mode="normal" in="SourceGraphic" in2="effect1_dropShadow_770_3936" result="shape"/>
</filter>
</defs>
</svg>
