<svg width="84" height="84" viewBox="0 0 84 84" fill="none" xmlns="http://www.w3.org/2000/svg">
<g filter="url(#filter0_d_114_1418)">
<path d="M62 20H20V62H62V20Z" fill="#4A3F5D"/>
</g>
<g filter="url(#filter1_d_114_1418)">
<path d="M74.5455 14.9091V7.45455H67.0909V0H59.6364V7.45455H52.1818V0H44.7273V7.45455H37.2727V0H29.8182V7.45455H22.3636V0H14.9091V7.45455H7.45455V14.9091H0V22.3636H7.45455V29.8182H0V37.2727H7.45455V44.7273H0V52.1818H7.45455V59.6364H0V67.0909H7.45455V74.5455H14.9091V82H22.3636V74.5455H29.8182V82H37.2727V74.5455H44.7273V82H52.1818V74.5455H59.6364V82H67.0909V74.5455H74.5455V67.0909H82V59.6364H74.5455V52.1818H82V44.7273H74.5455V37.2727H82V29.8182H74.5455V22.3636H82V14.9091H74.5455ZM67.0909 67.0909H14.9091V14.9091H67.0909V67.0909Z" fill="#4A3F5D"/>
</g>
<defs>
<filter id="filter0_d_114_1418" x="20" y="20" width="44" height="44" filterUnits="userSpaceOnUse" color-interpolation-filters="sRGB">
<feFlood flood-opacity="0" result="BackgroundImageFix"/>
<feColorMatrix in="SourceAlpha" type="matrix" values="0 0 0 0 0 0 0 0 0 0 0 0 0 0 0 0 0 0 127 0" result="hardAlpha"/>
<feOffset dx="2" dy="2"/>
<feComposite in2="hardAlpha" operator="out"/>
<feColorMatrix type="matrix" values="0 0 0 0 0 0 0 0 0 0 0 0 0 0 0 0 0 0 0.25 0"/>
<feBlend mode="normal" in2="BackgroundImageFix" result="effect1_dropShadow_114_1418"/>
<feBlend mode="normal" in="SourceGraphic" in2="effect1_dropShadow_114_1418" result="shape"/>
</filter>
<filter id="filter1_d_114_1418" x="0" y="0" width="84" height="84" filterUnits="userSpaceOnUse" color-interpolation-filters="sRGB">
<feFlood flood-opacity="0" result="BackgroundImageFix"/>
<feColorMatrix in="SourceAlpha" type="matrix" values="0 0 0 0 0 0 0 0 0 0 0 0 0 0 0 0 0 0 127 0" result="hardAlpha"/>
<feOffset dx="2" dy="2"/>
<feComposite in2="hardAlpha" operator="out"/>
<feColorMatrix type="matrix" values="0 0 0 0 0 0 0 0 0 0 0 0 0 0 0 0 0 0 0.25 0"/>
<feBlend mode="normal" in2="BackgroundImageFix" result="effect1_dropShadow_114_1418"/>
<feBlend mode="normal" in="SourceGraphic" in2="effect1_dropShadow_114_1418" result="shape"/>
</filter>
</defs>
</svg>
