<svg width="17" height="15" viewBox="0 0 17 15" fill="none" xmlns="http://www.w3.org/2000/svg">
<path d="M9.8417 1.76573H11.6327V2.6457H12.5252V3.53146H13.4237V5.29718H14.3162V9.70282H13.4237V11.4685H12.5252V12.3543H11.6327V13.2343H9.8417V14.1142H5.36719V15H11.6327V14.1142H13.4237V13.2343H14.3162V12.3543H15.2146V11.4685H16.1072V9.70282H16.9998V5.29718H16.1072V3.53146H15.2146V2.6457H14.3162V1.76573H13.4237V0.885758H11.6327V0H5.36719V0.885758H9.8417V1.76573Z" fill="#FFCC00"/>
<path d="M13.4228 5.29663H12.5244V9.70227H13.4228V5.29663Z" fill="#FFCC00"/>
<path d="M12.5254 9.703H11.6328V10.5888H12.5254V9.703Z" fill="#FFCC00"/>
<path d="M12.5254 4.41235H11.6328V5.29811H12.5254V4.41235Z" fill="#FFCC00"/>
<path d="M11.6318 10.5895H10.7393V11.4694H11.6318V10.5895Z" fill="#FFCC00"/>
<path d="M11.6318 3.53198H10.7393V4.41195H11.6318V3.53198Z" fill="#FFCC00"/>
<path d="M10.7392 11.4681H9.84082V12.3539H10.7392V11.4681Z" fill="#FFCC00"/>
<path d="M10.7392 2.64563H9.84082V3.53139H10.7392V2.64563Z" fill="#FFCC00"/>
<path d="M9.8417 12.3545H5.36719V13.2345H9.8417V12.3545Z" fill="#FFCC00"/>
<path d="M9.84129 7.94214H8.94873V9.70208H9.84129V7.94214Z" fill="#FFCC00"/>
<path d="M9.84129 5.29675H8.94873V6.17672H9.84129V5.29675Z" fill="#FFCC00"/>
<path d="M9.8417 1.76514H5.36719V2.64511H9.8417V1.76514Z" fill="#FFCC00"/>
<path d="M7.15769 10.5891V11.4691H8.05025V10.5891H8.94867V9.70335H8.05025V7.94341H8.94867V7.05765H8.05025V5.29771H8.94867V4.41195H8.05025V3.53198H7.15769V4.41195H6.26514V5.29771H7.15769V7.05765H6.26514V7.94341H7.15769V9.70335H6.26514V10.5891H7.15769Z" fill="#FFCC00"/>
<path d="M6.26561 8.82263H5.36719V9.7026H6.26561V8.82263Z" fill="#FFCC00"/>
<path d="M6.26561 5.29724H5.36719V7.05718H6.26561V5.29724Z" fill="#FFCC00"/>
<path d="M5.36714 13.235H3.58203V14.115H5.36714V13.235Z" fill="#FFCC00"/>
<path d="M5.36716 11.4681H4.47461V12.3539H5.36716V11.4681Z" fill="#FFCC00"/>
<path d="M5.36716 2.64563H4.47461V3.53139H5.36716V2.64563Z" fill="#FFCC00"/>
<path d="M5.36714 0.886475H3.58203V1.76644H5.36714V0.886475Z" fill="#FFCC00"/>
<path d="M4.47459 10.5895H3.58203V11.4694H4.47459V10.5895Z" fill="#FFCC00"/>
<path d="M4.47459 3.53198H3.58203V4.41195H4.47459V3.53198Z" fill="#FFCC00"/>
<path d="M3.58251 12.3546H2.68408V13.2346H3.58251V12.3546Z" fill="#FFCC00"/>
<path d="M3.58251 9.703H2.68408V10.5888H3.58251V9.703Z" fill="#FFCC00"/>
<path d="M3.58251 4.41235H2.68408V5.29811H3.58251V4.41235Z" fill="#FFCC00"/>
<path d="M3.58251 1.76514H2.68408V2.64511H3.58251V1.76514Z" fill="#FFCC00"/>
<path d="M2.68357 11.4681H1.79102V12.3539H2.68357V11.4681Z" fill="#FFCC00"/>
<path d="M2.68406 5.29724H1.7915V9.70288H2.68406V5.29724Z" fill="#FFCC00"/>
<path d="M2.68406 2.64563H1.7915V3.53139H2.68406V2.64563Z" fill="#FFCC00"/>
<path d="M1.791 9.703H0.892578V11.4687H1.791V9.703Z" fill="#FFCC00"/>
<path d="M1.791 3.53198H0.892578V5.29771H1.791V3.53198Z" fill="#FFCC00"/>
<path d="M0.892555 5.29675H0V9.70239H0.892555V5.29675Z" fill="#FFCC00"/>
</svg>
