<svg width="86" height="86" viewBox="0 0 86 86" fill="none" xmlns="http://www.w3.org/2000/svg">
<g filter="url(#filter0_d_288_2103)">
<path d="M81.8881 24.5906H77.8031V20.4787H73.7181V16.3937H53.2394V20.4787H49.1275V24.5906H45.0425V40.9574H8.17V36.8724H4.085V40.9574H0V73.7181H4.085V53.2393H20.4788V77.8299H8.17V81.9149H77.8031V77.8299H65.5212V53.2393H81.8881V73.7181H86V40.9574H81.8881V24.5906ZM53.2394 28.6756H57.3244V24.5906H61.4094V20.4787H65.5212V24.5906H69.6062V28.6756H57.3244V32.7606H69.6062V36.8724H73.7181V40.9574H69.6062V36.8724H57.3244V32.7606H53.2394V28.6756ZM4.085 49.1543V45.0693H32.7606V49.1543H4.085ZM61.4094 77.8299H24.5638V53.2393H32.7606V57.3512H36.8456V45.0693H40.9575V53.2393H45.0425V45.0693H49.1275V57.3512H53.2394V53.2393H61.4094V77.8299ZM81.8881 49.1543H53.2394V45.0693H81.8881V49.1543Z" fill="#FF6600"/>
<path d="M81.8882 73.7181H77.8032V77.83H81.8882V73.7181Z" fill="#FF6600"/>
<path d="M81.8882 4.11194H77.8032V8.19694H81.8882V4.11194Z" fill="#FF6600"/>
<path d="M77.8033 8.19684H73.7183V12.3087H77.8033V8.19684Z" fill="#FF6600"/>
<path d="M65.5211 0H61.4092V12.3088H65.5211V0Z" fill="#FF6600"/>
<path d="M53.2388 8.19684H49.127V12.3087H53.2388V8.19684Z" fill="#FF6600"/>
<path d="M49.127 4.11194H45.042V8.19694H49.127V4.11194Z" fill="#FF6600"/>
<path d="M49.1271 57.3513H36.8452V61.4363H49.1271V57.3513Z" fill="#FF6600"/>
<path d="M40.9571 32.7607H36.8452V36.8726H40.9571V32.7607Z" fill="#FF6600"/>
<path d="M8.16996 32.7606H12.2818V36.8725H32.7606V32.7606H36.8456V28.6756H40.9575V20.4787H49.1275V16.3937H40.9575V8.19687H36.8456V4.11187H32.7606V0H12.2818V4.11187H8.16996V8.19687H4.08496V28.6756H8.16996V32.7606ZM12.2818 12.3087H16.3668V8.19687H20.4787V4.11187H24.5637V8.19687H28.6487V12.3087H16.3668V16.3937H28.6487V20.4787H32.7606V24.5906H28.6487V28.6756H24.5637V32.7606H20.4787V28.6756H16.3668V24.5906H28.6487V20.4787H16.3668V16.3937H12.2818V12.3087Z" fill="#FF6600"/>
<path d="M8.16996 73.7181H4.08496V77.83H8.16996V73.7181Z" fill="#FF6600"/>
<path d="M4.085 28.6756H0V36.8725H4.085V28.6756Z" fill="#FF6600"/>
</g>
<defs>
<filter id="filter0_d_288_2103" x="0" y="0" width="86" height="85.9149" filterUnits="userSpaceOnUse" color-interpolation-filters="sRGB">
<feFlood flood-opacity="0" result="BackgroundImageFix"/>
<feColorMatrix in="SourceAlpha" type="matrix" values="0 0 0 0 0 0 0 0 0 0 0 0 0 0 0 0 0 0 127 0" result="hardAlpha"/>
<feOffset dy="4"/>
<feComposite in2="hardAlpha" operator="out"/>
<feColorMatrix type="matrix" values="0 0 0 0 0 0 0 0 0 0 0 0 0 0 0 0 0 0 1 0"/>
<feBlend mode="normal" in2="BackgroundImageFix" result="effect1_dropShadow_288_2103"/>
<feBlend mode="normal" in="SourceGraphic" in2="effect1_dropShadow_288_2103" result="shape"/>
</filter>
</defs>
</svg>
