<svg width="72" height="68" viewBox="0 0 72 68" fill="none" xmlns="http://www.w3.org/2000/svg">
<path d="M67.9777 20.4134H64.5867V17H61.1956V13.6089H44.1956V17H40.7822V20.4134H37.3911V34H6.78216V30.6089H3.39108V34H0V61.1955H3.39108V44.1955H17V64.6089H6.78216V68H64.5867V64.6089H54.3911V44.1955H67.9777V61.1955H71.3911V34H67.9777V20.4134ZM44.1956 23.8044H47.5867V20.4134H50.9777V17H54.3911V20.4134H57.7822V23.8044H47.5867V27.1955H57.7822V30.6089H61.1956V34H57.7822V30.6089H47.5867V27.1955H44.1956V23.8044ZM3.39108 40.8044V37.4134H27.1956V40.8044H3.39108ZM50.9777 64.6089H20.3911V44.1955H27.1956V47.6089H30.5866V37.4134H34V44.1955H37.3911V37.4134H40.7822V47.6089H44.1956V44.1955H50.9777V64.6089ZM67.9777 40.8044H44.1956V37.4134H67.9777V40.8044Z" fill="#FF6600"/>
<path d="M67.978 61.1956H64.5869V64.6089H67.978V61.1956Z" fill="#FF6600"/>
<path d="M67.978 3.41345H64.5869V6.80453H67.978V3.41345Z" fill="#FF6600"/>
<path d="M64.5869 6.80444H61.1958V10.2178H64.5869V6.80444Z" fill="#FF6600"/>
<path d="M54.3909 0H50.9775V10.2179H54.3909V0Z" fill="#FF6600"/>
<path d="M44.1951 6.80444H40.7817V10.2178H44.1951V6.80444Z" fill="#FF6600"/>
<path d="M40.7817 3.41345H37.3906V6.80453H40.7817V3.41345Z" fill="#FF6600"/>
<path d="M40.782 47.609H30.5864V51.0001H40.782V47.609Z" fill="#FF6600"/>
<path d="M33.9998 27.1956H30.5864V30.609H33.9998V27.1956Z" fill="#FF6600"/>
<path d="M6.78219 27.1956H10.1956V30.6089H27.1956V27.1956H30.5867V23.8045H34.0001V17H40.7822V13.6089H34.0001V6.80447H30.5867V3.41339H27.1956V0H10.1956V3.41339H6.78219V6.80447H3.39111V23.8045H6.78219V27.1956ZM10.1956 10.2179H13.5867V6.80447H17V3.41339H20.3911V6.80447H23.7822V10.2179H13.5867V13.6089H23.7822V17H27.1956V20.4134H23.7822V23.8045H20.3911V27.1956H17V23.8045H13.5867V20.4134H23.7822V17H13.5867V13.6089H10.1956V10.2179Z" fill="#FF6600"/>
<path d="M6.78219 61.1956H3.39111V64.6089H6.78219V61.1956Z" fill="#FF6600"/>
<path d="M3.39108 23.8044H0V30.6089H3.39108V23.8044Z" fill="#FF6600"/>
</svg>
