<svg width="17" height="19" viewBox="0 0 17 19" fill="none" xmlns="http://www.w3.org/2000/svg">
<path d="M16.6203 3.50204H15.7419V6.99834H16.6203V3.50204Z" fill="#89909E"/>
<path d="M15.7418 6.99832H14.8691V9.62198H15.7418V6.99832Z" fill="#89909E"/>
<path d="M14.869 9.62198H13.9963V13.124H14.869V9.62198Z" fill="#89909E"/>
<path d="M13.9968 13.124H13.1184V16.6203H13.9968V13.124Z" fill="#89909E"/>
<path d="M12.2456 3.50201H15.7419V2.62364H12.2456V0.87262H11.3672V9.18564V17.4987H13.1182V16.6203H12.2456V3.50201Z" fill="#89909E"/>
<path d="M11.3672 17.4987H0.872559V18.3713H11.3672V17.4987Z" fill="#89909E"/>
<path d="M10.4945 14.8693H9.62183V16.6203H10.4945V14.8693Z" fill="#89909E"/>
<path d="M2.6235 1.75104H1.74512V3.50205H2.6235V1.75104Z" fill="#89909E"/>
<path d="M11.3672 0H0.872559V0.872638H11.3672V0Z" fill="#89909E"/>
<path d="M0.872638 0.87262H0V17.4987H0.872638V0.87262Z" fill="#89909E"/>
<path d="M6.64624 11.8491V4.34912H8.52124V11.8491H6.64624ZM2.89624 11.8491V9.97412H4.77124V11.8491H2.89624ZM4.77124 11.8491H6.64624V13.7241H4.77124V11.8491Z" fill="#89909E"/>
</svg>
