<svg width="64" height="64" viewBox="0 0 64 64" fill="none" xmlns="http://www.w3.org/2000/svg">
<path d="M63.4305 12.697H50.7569V3.18658H47.5729V12.697H34.8993V3.18658H31.7153V12.697H15.8576V3.18658H12.6944V12.697H0V63.4331H63.4305V12.697ZM41.2257 60.2699H3.18401V15.8602H41.2257V60.2699ZM60.2673 60.2699H57.0833V57.0859H53.9201V53.9227H50.7569V57.0859H47.5729V60.2699H44.4097V57.0859H47.5729V53.9227H50.7569V15.8602H53.9201V53.9227H57.0833V57.0859H60.2673V60.2699Z" fill="#FF6600"/>
<path d="M47.5716 0H34.8979V3.18401H47.5716V0Z" fill="#FF6600"/>
<path d="M31.716 0H15.8584V3.18401H31.716V0Z" fill="#FF6600"/>
</svg>
