<svg width="35" height="30" viewBox="0 0 35 30" fill="none" xmlns="http://www.w3.org/2000/svg">
<g filter="url(#filter0_d_1872_6993)">
<path d="M21 21H14V17.5H21V21Z" fill="#CB5404"/>
<path d="M21 10.5L14 10.5V7L21 7V10.5Z" fill="#CB5404"/>
<path d="M24.5 3.5L10.5 3.5V0L24.5 1.22392e-06V3.5Z" fill="#CB5404"/>
<path d="M35 17.5H31.5V10.5H35V17.5Z" fill="#CB5404"/>
<path d="M1.22392e-06 10.5L3.5 10.5L3.5 17.5H0L1.22392e-06 10.5Z" fill="#CB5404"/>
<path d="M31.5 21H28V17.5H31.5L31.5 21Z" fill="#CB5404"/>
<path d="M3.5 7L7.00001 7L7 10.5L3.5 10.5L3.5 7Z" fill="#CB5404"/>
<path d="M28 24.5H24.5V21H28V24.5Z" fill="#CB5404"/>
<path d="M7.00001 3.5L10.5 3.5L10.5 7L7.00001 7V3.5Z" fill="#CB5404"/>
<path d="M24.5 28L10.5 28V24.5H24.5V28Z" fill="#CB5404"/>
<path d="M31.5 10.5H28V7H31.5L31.5 10.5Z" fill="#CB5404"/>
<path d="M3.5 17.5H7.00001L7 21H3.5V17.5Z" fill="#CB5404"/>
<path d="M28 7L24.5 7L24.5 3.5H28V7Z" fill="#CB5404"/>
<path d="M7 21H10.5L10.5 24.5H7V21Z" fill="#CB5404"/>
<path d="M24.5 17.5H21V10.5H24.5V17.5Z" fill="#CB5404"/>
<path d="M14 17.5H10.5L10.5 10.5L14 10.5V17.5Z" fill="#CB5404"/>
</g>
<defs>
<filter id="filter0_d_1872_6993" x="0" y="0" width="35" height="30" filterUnits="userSpaceOnUse" color-interpolation-filters="sRGB">
<feFlood flood-opacity="0" result="BackgroundImageFix"/>
<feColorMatrix in="SourceAlpha" type="matrix" values="0 0 0 0 0 0 0 0 0 0 0 0 0 0 0 0 0 0 127 0" result="hardAlpha"/>
<feOffset dy="2"/>
<feComposite in2="hardAlpha" operator="out"/>
<feColorMatrix type="matrix" values="0 0 0 0 0 0 0 0 0 0 0 0 0 0 0 0 0 0 1 0"/>
<feBlend mode="normal" in2="BackgroundImageFix" result="effect1_dropShadow_1872_6993"/>
<feBlend mode="normal" in="SourceGraphic" in2="effect1_dropShadow_1872_6993" result="shape"/>
</filter>
</defs>
</svg>
