<svg width="32" height="28" viewBox="0 0 32 28" fill="none" xmlns="http://www.w3.org/2000/svg">
<path d="M14.5455 2.8L17.4545 2.8V7.34351e-07L14.5455 0L14.5455 2.8Z" fill="#FFCC00"/>
<path d="M17.4545 5.6L20.3636 5.6V2.8L17.4545 2.8V5.6Z" fill="#FFCC00"/>
<path d="M11.6364 5.6L14.5455 5.6L14.5455 2.8L11.6364 2.8L11.6364 5.6Z" fill="#FFCC00"/>
<path d="M8.72727 11.2H11.6364L11.6364 5.6L8.72727 5.6L8.72727 11.2Z" fill="#FFCC00"/>
<path d="M20.3636 11.2L23.2727 11.2L23.2727 5.6L20.3636 5.6V11.2Z" fill="#FFCC00"/>
<path d="M29.0909 14L32 14V11.2L29.0909 11.2V14Z" fill="#FFCC00"/>
<path d="M26.1818 16.8L29.0909 16.8V14H26.1818V16.8Z" fill="#FFCC00"/>
<path d="M20.3636 11.2H32V8.4L20.3636 8.4V11.2Z" fill="#FFCC00"/>
<path d="M23.2727 19.6H26.1818V16.8H23.2727V19.6Z" fill="#FFCC00"/>
<path d="M26.1818 28H29.0909L29.0909 19.6H26.1818V28Z" fill="#FFCC00"/>
<path d="M20.3636 28H23.2727V25.2H20.3636V28Z" fill="#FFCC00"/>
<path d="M17.4545 25.2H20.3636V22.4H17.4545L17.4545 25.2Z" fill="#FFCC00"/>
<path d="M14.5455 22.4H17.4545L17.4545 19.6H14.5455L14.5455 22.4Z" fill="#FFCC00"/>
<path d="M11.6364 25.2H14.5455V22.4H11.6364L11.6364 25.2Z" fill="#FFCC00"/>
<path d="M8.72727 28H11.6364L11.6364 25.2H8.72727L8.72727 28Z" fill="#FFCC00"/>
<path d="M2.90909 28H5.81818L5.81818 22.4H2.90909L2.90909 28Z" fill="#FFCC00"/>
<path d="M2.90909 22.4H5.81818V19.6H2.90909L2.90909 22.4Z" fill="#FFCC00"/>
<path d="M5.81818 19.6H8.72727L8.72727 16.8H5.81818L5.81818 19.6Z" fill="#FFCC00"/>
<path d="M2.90909 16.8H5.81818L5.81818 14H2.90909L2.90909 16.8Z" fill="#FFCC00"/>
<path d="M0 14H2.90909L2.90909 11.2L7.62963e-07 11.2L0 14Z" fill="#FFCC00"/>
<path d="M7.62963e-07 11.2L11.6364 11.2L11.6364 8.4L7.62963e-07 8.4L7.62963e-07 11.2Z" fill="#FFCC00"/>
<path d="M23.2727 28H26.1818V25.2H23.2727V28Z" fill="#FFCC00"/>
<path d="M5.81818 28H8.72727L8.72727 25.2H5.81818L5.81818 28Z" fill="#FFCC00"/>
</svg>
