<svg width="64" height="64" viewBox="0 0 64 64" fill="none" xmlns="http://www.w3.org/2000/svg">
<path d="M41.2047 54.3158H40.2925V55.234H41.2047V54.3158Z" fill="#DCE2F0"/>
<path d="M40.2925 55.2339H39.3743V56.1461H40.2925V55.2339Z" fill="#DCE2F0"/>
<path d="M39.3743 57.9767H38.4621V59.8071H39.3743V57.9767Z" fill="#DCE2F0"/>
<path d="M39.3744 56.1462H38.4622V57.0645H39.3744V56.1462Z" fill="#DCE2F0"/>
<path d="M38.4621 57.0645H37.5499V57.9767H38.4621V57.0645Z" fill="#DCE2F0"/>
<path d="M38.462 59.8071H35.7194V60.7194H38.462V59.8071Z" fill="#DCE2F0"/>
<path d="M36.6316 47.9182H35.7194V48.8304H36.6316V47.9182Z" fill="#DCE2F0"/>
<path d="M35.7194 58.8889H34.8072V59.8071H35.7194V58.8889Z" fill="#DCE2F0"/>
<path d="M34.8071 57.9767H33.8889V58.8889H34.8071V57.9767Z" fill="#DCE2F0"/>
<path d="M33.889 57.0645H32.9767V57.9767H33.889V57.0645Z" fill="#DCE2F0"/>
<path d="M35.7194 47H31.1463V47.9182H35.7194V47Z" fill="#DCE2F0"/>
<path d="M32.9767 57.9767H31.1462V58.8889H32.9767V57.9767Z" fill="#DCE2F0"/>
<path d="M31.1462 57.0645H30.234V57.9767H31.1462V57.0645Z" fill="#DCE2F0"/>
<path d="M30.234 57.9767H29.3158V58.8889H30.234V57.9767Z" fill="#DCE2F0"/>
<path d="M29.3159 58.8889H26.5732V59.8071H29.3159V58.8889Z" fill="#DCE2F0"/>
<path d="M28.4036 56.1461H27.4914V57.0643H28.4036V56.1461Z" fill="#DCE2F0"/>
<path d="M28.4036 53.4036H27.4914V54.3158H28.4036V53.4036Z" fill="#DCE2F0"/>
<path d="M28.4036 51.5731V50.6609H29.3158V51.5731H30.2341V53.4036H29.3158V54.3158H28.4036V55.234H29.3158V56.1462H37.5499V55.234H38.4621V54.3158H40.2925V53.4036H39.3743V51.5731H38.4621V53.4036H37.5499V54.3158H36.6316V53.4036H35.7194V51.5731H36.6316V50.6609H37.5499V51.5731H38.4621V49.7487H37.5499V48.8304H36.6316V49.7487H35.7194V50.6609H32.0585V48.8304H31.1463V47.9182H29.3158V48.8304H28.4036V49.7487H27.4914V51.5731H28.4036ZM31.1463 54.3158H32.0585V53.4036H34.8072V54.3158H35.7194V55.234H31.1463V54.3158Z" fill="#DCE2F0"/>
<path d="M27.4913 57.0645H26.5731V57.9767H27.4913V57.0645Z" fill="#DCE2F0"/>
<path d="M27.4913 55.234H26.5731V56.1462H27.4913V55.234Z" fill="#DCE2F0"/>
<path d="M27.4913 51.5731H26.5731V53.4036H27.4913V51.5731Z" fill="#DCE2F0"/>
<path d="M27.4914 48.8304H26.5732V49.7487H27.4914V48.8304Z" fill="#DCE2F0"/>
<path d="M26.5731 57.9767H25.6609V58.8889H26.5731V57.9767Z" fill="#DCE2F0"/>
<path d="M26.5732 54.3157H25.6609V55.2339H26.5732V54.3157Z" fill="#DCE2F0"/>
<path d="M25.661 53.4036H24.7427V54.3158H25.661V53.4036Z" fill="#DCE2F0"/>
<path d="M26.5731 47.9182H23.8304V48.8304H26.5731V47.9182Z" fill="#DCE2F0"/>
<path d="M24.7427 52.4913H22.9183V53.4036H24.7427V52.4913Z" fill="#DCE2F0"/>
<path d="M24.7427 50.6608H23.8305V51.573H24.7427V50.6608Z" fill="#DCE2F0"/>
<path d="M23.8305 48.8304H22.9183V49.7487H23.8305V48.8304Z" fill="#DCE2F0"/>
<path d="M22.9182 49.7487H22V52.4913H22.9182V49.7487Z" fill="#DCE2F0"/>
<path d="M28.3205 42.1399H27.6403V45.55H28.3205V42.1399Z" fill="#DCE2F0"/>
<path d="M27.6403 45.55H26.9556V46.9105H27.6403V45.55Z" fill="#DCE2F0"/>
<path d="M27.6403 41.4552H26.9556V42.1399H27.6403V41.4552Z" fill="#DCE2F0"/>
<path d="M27.6403 37.3649H26.9556V40.7749H27.6403V37.3649Z" fill="#DCE2F0"/>
<path d="M26.9556 46.9104H26.2753V47.5951H26.9556V46.9104Z" fill="#DCE2F0"/>
<path d="M26.9556 40.775H26.2753V41.4552H26.9556V40.775Z" fill="#DCE2F0"/>
<path d="M26.9556 36.6847H26.2753V37.3649H26.9556V36.6847Z" fill="#DCE2F0"/>
<path d="M26.2753 38.0451H25.5951V37.3649H23.5499V38.0451H22.8652V40.0947H23.5499V40.7749H25.5951V40.0947H26.2753V38.0451ZM24.9104 38.7298H24.2302V38.0451H24.9104V38.7298Z" fill="#DCE2F0"/>
<path d="M26.2753 47.5951H24.9104V48.2753H26.2753V47.5951Z" fill="#DCE2F0"/>
<path d="M24.9104 48.2754H17.41V48.9601H24.9104V48.2754Z" fill="#DCE2F0"/>
<path d="M26.2753 36H22.8652V36.6847H26.2753V36Z" fill="#DCE2F0"/>
<path d="M22.8653 42.1399H22.1851V42.8201H22.8653V42.1399Z" fill="#DCE2F0"/>
<path d="M22.8653 36.6847H22.1851V37.3649H22.8653V36.6847Z" fill="#DCE2F0"/>
<path d="M22.1851 40.775H21.5004V41.4552H22.1851V40.775Z" fill="#DCE2F0"/>
<path d="M22.1851 37.3649H21.5004V38.7298H22.1851V37.3649Z" fill="#DCE2F0"/>
<path d="M22.185 42.8201H20.8201V43.5003H22.185V42.8201Z" fill="#DCE2F0"/>
<path d="M21.5004 38.7299H20.8201V39.4101H21.5004V38.7299Z" fill="#DCE2F0"/>
<path d="M20.8201 40.775H20.1399V41.4552H20.8201V40.775Z" fill="#DCE2F0"/>
<path d="M20.8201 37.3649H20.1399V38.7298H20.8201V37.3649Z" fill="#DCE2F0"/>
<path d="M20.1399 36.6847H19.4552V37.3649H20.1399V36.6847Z" fill="#DCE2F0"/>
<path d="M18.775 37.3649H16.7299V38.0451H16.0452V40.0947H16.7299V40.7749H18.775V40.0947H19.4552V38.0451H18.775V37.3649ZM18.0948 38.7298H17.4101V38.0451H18.0948V38.7298Z" fill="#DCE2F0"/>
<path d="M17.4101 47.5951H16.0452V48.2753H17.4101V47.5951Z" fill="#DCE2F0"/>
<path d="M19.4552 36H16.0452V36.6847H19.4552V36Z" fill="#DCE2F0"/>
<path d="M16.0452 46.9104H15.3649V47.5951H16.0452V46.9104Z" fill="#DCE2F0"/>
<path d="M16.0452 40.775H15.3649V41.4552H16.0452V40.775Z" fill="#DCE2F0"/>
<path d="M16.0452 36.6847H15.3649V37.3649H16.0452V36.6847Z" fill="#DCE2F0"/>
<path d="M15.3649 45.55H14.6847V46.9105H15.3649V45.55Z" fill="#DCE2F0"/>
<path d="M15.3649 41.4552H14.6847V42.1399H15.3649V41.4552Z" fill="#DCE2F0"/>
<path d="M15.3649 37.3649H14.6847V40.7749H15.3649V37.3649Z" fill="#DCE2F0"/>
<path d="M14.6847 42.1399H14V45.55H14.6847V42.1399Z" fill="#DCE2F0"/>
<path d="M13.2546 43.9509L13.5554 44.5968L11.6135 45.5012L11.9143 46.1471L11.2642 46.4498L11.5669 47.1L10.921 47.4008L11.5246 48.6968L12.1705 48.396L13.0749 50.3379L13.725 50.0352L12.8207 48.0932L13.4665 47.7924L13.1638 47.1423L14.4598 46.5387L14.159 45.8928L14.8049 45.592L13.9005 43.6501L13.2546 43.9509Z" fill="#DCE2F0"/>
<path d="M16.8721 51.7187L16.222 52.0215L17.4291 54.6135L18.0793 54.3108L16.8721 51.7187Z" fill="#DCE2F0"/>
<path d="M17.4292 54.6134L16.7833 54.9142L17.0841 55.5601L17.73 55.2593L17.4292 54.6134Z" fill="#DCE2F0"/>
<path d="M15.6184 50.7253L14.9725 51.0261L15.5761 52.3222L16.222 52.0214L15.6184 50.7253Z" fill="#DCE2F0"/>
<path d="M17.0841 55.5602L16.4382 55.861L16.741 56.5111L17.3868 56.2103L17.0841 55.5602Z" fill="#DCE2F0"/>
<path d="M14.3709 49.7344L13.725 50.0352L14.3266 51.3269L14.9725 51.0261L14.3709 49.7344Z" fill="#DCE2F0"/>
<path d="M12.9518 43.3008L10.3597 44.5079L10.6625 45.1581L13.2546 43.9509L12.9518 43.3008Z" fill="#DCE2F0"/>
<path d="M16.7409 56.511L15.4449 57.1146L15.7457 57.7605L17.0417 57.1569L16.7409 56.511Z" fill="#DCE2F0"/>
<path d="M14.9302 52.6231L12.9883 53.5275L13.2911 54.1776L15.233 53.2732L14.9302 52.6231Z" fill="#DCE2F0"/>
<path d="M10.6626 45.1581L10.0167 45.4589L10.3175 46.1048L10.9634 45.804L10.6626 45.1581Z" fill="#DCE2F0"/>
<path d="M14.8836 54.2219L13.5919 54.8235L13.8927 55.4694L15.1844 54.8678L14.8836 54.2219Z" fill="#DCE2F0"/>
<path d="M12.7298 51.2846L12.0839 51.5854L12.3847 52.2313L13.0306 51.9305L12.7298 51.2846Z" fill="#DCE2F0"/>
<path d="M10.3175 46.1048L9.67157 46.4056L9.97237 47.0515L10.6183 46.7507L10.3175 46.1048Z" fill="#DCE2F0"/>
<path d="M15.7457 57.7605L9.91998 60.4736L10.2208 61.1195L16.0465 58.4064L15.7457 57.7605Z" fill="#DCE2F0"/>
<path d="M9.97234 47.0515L9.3222 47.3542L10.2286 49.3004L10.8787 48.9976L9.97234 47.0515Z" fill="#DCE2F0"/>
<path d="M9.44952 54.3895L9.75032 55.0354L10.3962 54.7346L10.699 55.3848L11.3449 55.084L11.0421 54.4338L11.6922 54.131L11.3914 53.4851L9.44952 54.3895Z" fill="#DCE2F0"/>
<path d="M10.2286 49.3004L6.9906 50.8083L7.2914 51.4542L10.5294 49.9463L10.2286 49.3004Z" fill="#DCE2F0"/>
<path d="M6.08424 48.8622L5.43835 49.163L6.34472 51.1091L6.99061 50.8083L6.08424 48.8622Z" fill="#DCE2F0"/>
<path d="M7.54994 53.697L6.90405 53.9978L7.20485 54.6437L7.85075 54.3429L7.54994 53.697Z" fill="#DCE2F0"/>
<path d="M5.13759 48.5172L4.4917 48.818L4.7925 49.4639L5.43839 49.1631L5.13759 48.5172Z" fill="#DCE2F0"/>
<path d="M9.61909 59.8278L8.32306 60.4314L8.62386 61.0773L9.91989 60.4737L9.61909 59.8278Z" fill="#DCE2F0"/>
<path d="M9.05787 56.935L7.76184 57.5386L8.06264 58.1845L9.35867 57.5809L9.05787 56.935Z" fill="#DCE2F0"/>
<path d="M8.45431 55.639L6.51239 56.5433L6.81517 57.1935L8.75709 56.2891L8.45431 55.639Z" fill="#DCE2F0"/>
<path d="M4.19085 48.1721L3.54071 48.4749L3.84151 49.1207L4.49165 48.818L4.19085 48.1721Z" fill="#DCE2F0"/>
<path d="M5.04871 51.7128L5.69885 51.41L5.09527 50.114L4.44513 50.4167L4.14235 49.7666L3.49646 50.0674L3.19566 49.4215L1.25374 50.3259L0.952935 49.68L0.302795 49.9828L1.20718 51.9247L1.85732 51.6219L2.15812 52.2678L3.4499 51.6662L3.75268 52.3164L4.40282 52.0136L5.3072 53.9555L5.95309 53.6547L5.04871 51.7128Z" fill="#DCE2F0"/>
<path d="M8.02032 59.7813L7.37018 60.0841L7.67296 60.7342L8.3231 60.4315L8.02032 59.7813Z" fill="#DCE2F0"/>
<path d="M5.30718 53.9555L4.65704 54.2583L5.25865 55.5501L5.90879 55.2473L5.30718 53.9555Z" fill="#DCE2F0"/>
<path d="M7.06941 59.4381L6.42352 59.7389L6.72432 60.3848L7.37022 60.084L7.06941 59.4381Z" fill="#DCE2F0"/>
<path d="M5.25868 55.55L4.61279 55.8508L5.21637 57.1469L5.86227 56.8461L5.25868 55.55Z" fill="#DCE2F0"/>
<path d="M3.23796 47.8247L0.650146 49.0299L0.952927 49.68L3.54074 48.4749L3.23796 47.8247Z" fill="#DCE2F0"/>
<path d="M5.21639 57.147L4.5705 57.4478L5.77766 60.0398L6.42355 59.739L5.21639 57.147Z" fill="#DCE2F0"/>
<path d="M25.1296 22.3405L24.0896 22.6191L25.2061 26.786L26.2461 26.5073L25.1296 22.3405Z" fill="#DCE2F0"/>
<path d="M23.1734 15.0401L22.1334 15.3187L23.2518 19.4924L24.2918 19.2138L23.1734 15.0401Z" fill="#DCE2F0"/>
<path d="M25.2061 26.7861L24.1593 27.0667L24.7185 29.1535L25.7653 28.873L25.2061 26.7861Z" fill="#DCE2F0"/>
<path d="M23.2518 19.4923L22.205 19.7728L23.0428 22.8997L24.0896 22.6192L23.2518 19.4923Z" fill="#DCE2F0"/>
<path d="M24.7185 29.1533L23.6785 29.432L23.9571 30.472L24.9971 30.1933L24.7185 29.1533Z" fill="#DCE2F0"/>
<path d="M21.9245 18.726L20.8845 19.0046L21.165 20.0515L22.205 19.7728L21.9245 18.726Z" fill="#DCE2F0"/>
<path d="M23.9571 30.4721L22.9171 30.7507L23.1976 31.7976L24.2376 31.5189L23.9571 30.4721Z" fill="#DCE2F0"/>
<path d="M20.6057 17.9646L19.5657 18.2433L19.8444 19.2833L20.8844 19.0046L20.6057 17.9646Z" fill="#DCE2F0"/>
<path d="M21.8547 14.2787L16.6411 15.6757L16.9197 16.7157L22.1334 15.3187L21.8547 14.2787Z" fill="#DCE2F0"/>
<path d="M23.1977 31.7977L20.0708 32.6355L20.3495 33.6755L23.4763 32.8377L23.1977 31.7977Z" fill="#DCE2F0"/>
<path d="M16.9198 16.7157L15.8798 16.9944L16.1584 18.0344L17.1984 17.7557L16.9198 16.7157Z" fill="#DCE2F0"/>
<path d="M18.1155 25.3383L10.815 27.2945L11.0936 28.3345L10.0536 28.6131L10.8933 31.7468L11.9333 31.4681L12.212 32.5081L19.5125 30.552L19.2338 29.512L20.2739 29.2333L19.4342 26.0996L18.3942 26.3783L18.1155 25.3383ZM15.0602 30.6303L12.9733 31.1895L12.4141 29.1026L14.501 28.5435L15.0602 30.6303ZM18.187 29.7925L16.1002 30.3516L15.541 28.2648L17.6278 27.7056L18.187 29.7925Z" fill="#DCE2F0"/>
<path d="M20.3494 33.6754L13.0489 35.6316L13.3294 36.6784L20.6299 34.7223L20.3494 33.6754Z" fill="#DCE2F0"/>
<path d="M16.5086 23.5286L15.4686 23.8073L15.7491 24.8541L16.7891 24.5754L16.5086 23.5286Z" fill="#DCE2F0"/>
<path d="M12.3418 24.645L11.2949 24.9255L11.5754 25.9724L12.6223 25.6919L12.3418 24.645Z" fill="#DCE2F0"/>
<path d="M15.6011 15.9543L8.30054 17.9105L8.5792 18.9505L15.8797 16.9944L15.6011 15.9543Z" fill="#DCE2F0"/>
<path d="M12.7702 34.5916L9.64337 35.4294L9.92204 36.4694L13.0489 35.6316L12.7702 34.5916Z" fill="#DCE2F0"/>
<path d="M8.57925 18.9506L7.53925 19.2292L7.81791 20.2693L8.85792 19.9906L8.57925 18.9506Z" fill="#DCE2F0"/>
<path d="M9.36288 34.3826L8.31604 34.6631L8.59654 35.7099L9.64339 35.4294L9.36288 34.3826Z" fill="#DCE2F0"/>
<path d="M6.0115 21.8751L4.96466 22.1556L5.24333 23.1956L6.29017 22.9151L6.0115 21.8751Z" fill="#DCE2F0"/>
<path d="M8.03738 33.6231L6.99738 33.9017L7.27604 34.9417L8.31605 34.6631L8.03738 33.6231Z" fill="#DCE2F0"/>
<path d="M5.24331 23.1957L4.20331 23.4744L4.48381 24.5212L5.52381 24.2425L5.24331 23.1957Z" fill="#DCE2F0"/>
<path d="M7.26057 18.1892L2.04688 19.5862L2.32554 20.6262L7.53924 19.2292L7.26057 18.1892Z" fill="#DCE2F0"/>
<path d="M6.4382 31.815L5.39819 32.0936L5.95736 34.1805L6.99736 33.9018L6.4382 31.815Z" fill="#DCE2F0"/>
<path d="M4.48385 24.5213L3.44385 24.7999L4.28168 27.9268L5.32169 27.6481L4.48385 24.5213Z" fill="#DCE2F0"/>
<path d="M4.28165 27.9267L3.2348 28.2072L4.35131 32.374L5.39815 32.0935L4.28165 27.9267Z" fill="#DCE2F0"/>
<path d="M2.32553 20.6262L1.27869 20.9067L2.39702 25.0804L3.44387 24.7999L2.32553 20.6262Z" fill="#DCE2F0"/>
<path d="M12.5772 40.5765L12.1338 40.4173L11.6581 41.7416L10.7772 41.4251L10.6179 41.8685L11.4988 42.1849L11.3406 42.6254L10.4597 42.309L10.3014 42.7494L11.1824 43.0659L11.0231 43.5093L11.4665 43.6685L11.6257 43.2252L12.0662 43.3834L12.2244 42.9429L11.784 42.7847L11.9422 42.3442L12.3827 42.5024L12.5419 42.0591L12.1015 41.9008L12.5772 40.5765Z" fill="#DCE2F0"/>
<path d="M11.0231 43.5093L10.5826 43.3511L10.4244 43.7915L10.8649 43.9498L11.0231 43.5093Z" fill="#DCE2F0"/>
<path d="M12.4513 39.5333L12.0109 39.3751L11.6934 40.259L12.1338 40.4172L12.4513 39.5333Z" fill="#DCE2F0"/>
<path d="M10.4244 43.7915L9.98395 43.6333L9.82468 44.0767L10.2652 44.2349L10.4244 43.7915Z" fill="#DCE2F0"/>
<path d="M12.3273 38.4943L11.8868 38.3361L11.5704 39.217L12.0109 39.3752L12.3273 38.4943Z" fill="#DCE2F0"/>
<path d="M12.2043 37.4524L11.7609 37.2931L11.4434 38.1769L11.8868 38.3362L12.2043 37.4524Z" fill="#DCE2F0"/>
<path d="M9.82475 44.0765L8.94092 43.759L8.78269 44.1995L9.66653 44.517L9.82475 44.0765Z" fill="#DCE2F0"/>
<path d="M9.85807 42.5902L9.4176 42.432L9.25834 42.8754L9.69881 43.0336L9.85807 42.5902Z" fill="#DCE2F0"/>
<path d="M10.1745 41.7092L9.73407 41.551L9.57585 41.9915L10.0163 42.1497L10.1745 41.7092Z" fill="#DCE2F0"/>
<path d="M11.9202 36.8496L11.4797 36.6914L11.3205 37.1348L11.7609 37.293L11.9202 36.8496Z" fill="#DCE2F0"/>
<path d="M11.3205 37.1348L10.88 36.9766L10.7218 37.417L11.1622 37.5753L11.3205 37.1348Z" fill="#DCE2F0"/>
<path d="M8.78266 44.1995L4.80975 42.7723L4.65153 43.2128L8.62444 44.6399L8.78266 44.1995Z" fill="#DCE2F0"/>
<path d="M10.4043 38.3007L9.96094 38.1415L9.64345 39.0253L10.0868 39.1846L10.4043 38.3007Z" fill="#DCE2F0"/>
<path d="M10.7217 37.4171L10.2784 37.2578L10.1191 37.7012L10.5625 37.8604L10.7217 37.4171Z" fill="#DCE2F0"/>
<path d="M9.32694 39.9063L8.88647 39.748L8.72721 40.1914L9.16768 40.3496L9.32694 39.9063Z" fill="#DCE2F0"/>
<path d="M8.09327 41.9563L7.6499 41.797L7.49064 42.2404L7.934 42.3996L8.09327 41.9563Z" fill="#DCE2F0"/>
<path d="M6.80139 39.9968L6.64213 40.4402L7.08549 40.5995L6.92727 41.0399L7.80821 41.3564L7.96643 40.9159L8.4098 41.0752L8.56906 40.6318L6.80139 39.9968Z" fill="#DCE2F0"/>
<path d="M7.49062 42.2403L6.60968 41.9238L6.45146 42.3643L7.33239 42.6807L7.49062 42.2403Z" fill="#DCE2F0"/>
<path d="M8.63668 37.6658L8.31919 38.5496L8.75966 38.7079L9.07715 37.824L9.96099 38.1415L10.1192 37.701L7.91107 36.9078L7.75285 37.3483L8.63668 37.6658Z" fill="#DCE2F0"/>
<path d="M7.11887 39.1131L6.67841 38.9548L6.51914 39.3982L6.95961 39.5564L7.11887 39.1131Z" fill="#DCE2F0"/>
<path d="M7.75279 37.3484L7.31232 37.1902L6.99483 38.074L7.4353 38.2322L7.75279 37.3484Z" fill="#DCE2F0"/>
<path d="M8.07029 36.4645L7.62982 36.3063L7.47056 36.7496L7.91102 36.9079L8.07029 36.4645Z" fill="#DCE2F0"/>
<path d="M7.788 35.8659L7.34753 35.7076L7.18931 36.1481L7.62978 36.3063L7.788 35.8659Z" fill="#DCE2F0"/>
<path d="M4.968 42.332L4.08417 42.0145L3.92594 42.455L4.80978 42.7725L4.968 42.332Z" fill="#DCE2F0"/>
<path d="M5.44471 41.0047L5.00134 40.8455L4.84208 41.2888L5.28544 41.4481L5.44471 41.0047Z" fill="#DCE2F0"/>
<path d="M5.76118 40.1239L5.31781 39.9646L5.15959 40.4051L5.60295 40.5643L5.76118 40.1239Z" fill="#DCE2F0"/>
<path d="M7.50678 35.2642L7.06342 35.105L6.90415 35.5483L7.34752 35.7076L7.50678 35.2642Z" fill="#DCE2F0"/>
<path d="M6.90415 35.5484L6.46368 35.3901L6.14619 36.274L6.58666 36.4322L6.90415 35.5484Z" fill="#DCE2F0"/>
<path d="M4.24341 41.5711L3.80005 41.4119L3.64078 41.8552L4.08415 42.0145L4.24341 41.5711Z" fill="#DCE2F0"/>
<path d="M6.14625 36.274L5.70288 36.1147L5.38643 36.9957L5.8298 37.1549L6.14625 36.274Z" fill="#DCE2F0"/>
<path d="M3.95823 40.9713L3.51776 40.8131L3.35954 41.2536L3.80001 41.4118L3.95823 40.9713Z" fill="#DCE2F0"/>
<path d="M4.56087 40.6873L4.71909 40.2468L3.83526 39.9293L3.99348 39.4888L4.87732 39.8063L5.03658 39.363L4.15275 39.0455L4.62846 37.7212L4.188 37.563L3.71228 38.8873L3.26891 38.728L3.10965 39.1714L3.55302 39.3306L3.39479 39.7711L2.95143 39.6118L2.7932 40.0523L3.23657 40.2116L3.0773 40.6549L3.51777 40.8131L3.67704 40.3698L4.56087 40.6873Z" fill="#DCE2F0"/>
<path d="M5.38639 36.9955L4.94592 36.8373L4.62843 37.7211L5.0689 37.8793L5.38639 36.9955Z" fill="#DCE2F0"/>
<path d="M42.6752 22.4687L42.1831 22.1373L40.8532 24.1122L41.3453 24.4436L42.6752 22.4687Z" fill="#DCE2F0"/>
<path d="M39.3615 25.2582L38.8694 24.9268L37.5416 26.8984L38.0337 27.2298L39.3615 25.2582Z" fill="#DCE2F0"/>
<path d="M40.8531 24.1122L39.8657 23.4473L39.5343 23.9394L40.5217 24.6043L40.8531 24.1122Z" fill="#DCE2F0"/>
<path d="M37.5417 26.8984L37.0496 26.567L36.3846 27.5544L36.8767 27.8858L37.5417 26.8984Z" fill="#DCE2F0"/>
<path d="M39.5343 23.9393L39.0422 23.6079L38.3773 24.5953L38.8694 24.9267L39.5343 23.9393Z" fill="#DCE2F0"/>
<path d="M41.3564 22.296L40.3722 21.6332L39.7072 22.6206L40.6914 23.2834L41.3564 22.296Z" fill="#DCE2F0"/>
<path d="M42.5145 21.6454L40.5397 20.3154L40.2083 20.8075L42.1831 22.1375L42.5145 21.6454Z" fill="#DCE2F0"/>
<path d="M36.3845 27.5544L35.8892 27.2208L35.5578 27.7129L36.0532 28.0465L36.3845 27.5544Z" fill="#DCE2F0"/>
<path d="M35.5578 27.713L34.5737 27.0502L34.2401 27.5455L35.2243 28.2083L35.5578 27.713Z" fill="#DCE2F0"/>
<path d="M40.2082 20.8076L39.2241 20.1448L38.8927 20.6369L39.8768 21.2997L40.2082 20.8076Z" fill="#DCE2F0"/>
<path d="M37.8942 22.1196L37.3989 21.786L37.0675 22.2781L37.5628 22.6117L37.8942 22.1196Z" fill="#DCE2F0"/>
<path d="M34.2401 27.5454L30.7858 25.2191L30.4544 25.7112L33.9087 28.0375L34.2401 27.5454Z" fill="#DCE2F0"/>
<path d="M35.7397 24.2497L35.2476 23.9183L34.914 24.4137L35.4061 24.7451L35.7397 24.2497Z" fill="#DCE2F0"/>
<path d="M34.2691 21.1089L33.9355 21.6042L34.4309 21.9378L34.0995 22.4299L34.5916 22.7613L34.2602 23.2534L34.7523 23.5848L35.0836 23.0927L35.579 23.4262L35.9104 22.9341L36.4025 23.2655L36.736 22.7702L34.2691 21.1089Z" fill="#DCE2F0"/>
<path d="M34.9141 24.4135L33.9266 23.7485L33.5952 24.2406L34.5827 24.9056L34.9141 24.4135Z" fill="#DCE2F0"/>
<path d="M39.5555 19.6526L36.1011 17.3263L35.7697 17.8184L39.2241 20.1447L39.5555 19.6526Z" fill="#DCE2F0"/>
<path d="M34.9319 20.1247L34.4398 19.7933L34.1084 20.2854L34.6005 20.6168L34.9319 20.1247Z" fill="#DCE2F0"/>
<path d="M31.1193 24.7239L30.1319 24.059L29.7983 24.5543L30.7857 25.2193L31.1193 24.7239Z" fill="#DCE2F0"/>
<path d="M35.7697 17.8184L34.7823 17.1534L34.4509 17.6455L35.4383 18.3105L35.7697 17.8184Z" fill="#DCE2F0"/>
<path d="M30.4633 23.5667L29.9712 23.2354L29.6398 23.7274L30.1319 24.0588L30.4633 23.5667Z" fill="#DCE2F0"/>
<path d="M30.6362 22.248L30.1409 21.9144L29.4759 22.9018L29.9712 23.2354L30.6362 22.248Z" fill="#DCE2F0"/>
<path d="M32.6289 19.289L32.1335 18.9554L31.4686 19.9429L31.9639 20.2764L32.6289 19.289Z" fill="#DCE2F0"/>
<path d="M31.4687 19.9428L30.9766 19.6115L29.6488 21.583L30.1409 21.9144L31.4687 19.9428Z" fill="#DCE2F0"/>
<path d="M32.465 18.4633L31.4808 17.8005L31.1494 18.2926L32.1336 18.9554L32.465 18.4633Z" fill="#DCE2F0"/>
<path d="M33.9589 17.3141L32.9714 16.6492L32.3065 17.6366L33.2939 18.3016L33.9589 17.3141Z" fill="#DCE2F0"/>
<path d="M35.1137 16.6614L33.1422 15.3336L32.8108 15.8257L34.7824 17.1535L35.1137 16.6614Z" fill="#DCE2F0"/>
<path d="M32.8108 15.8258L32.3154 15.4922L30.9855 17.467L31.4808 17.8006L32.8108 15.8258Z" fill="#DCE2F0"/>
<path d="M44.231 39.4559L44.0545 40.3793L45.8953 40.7312L46.4226 37.973L45.5052 37.7976L45.1544 39.6324L44.231 39.4559Z" fill="#DCE2F0"/>
<path d="M47.8291 30.6158L46.9117 30.4404L46.0325 35.0394L46.9499 35.2148L47.8291 30.6158Z" fill="#DCE2F0"/>
<path d="M45.6817 36.8743L44.7583 36.6978L44.5818 37.6212L45.5052 37.7977L45.6817 36.8743Z" fill="#DCE2F0"/>
<path d="M43.7025 42.2201L42.7852 42.0447L42.0824 45.7202L42.9998 45.8956L43.7025 42.2201Z" fill="#DCE2F0"/>
<path d="M44.0164 35.605L40.3408 34.9022L40.1654 35.8196L42.0002 36.1704L41.1209 40.7694L42.0443 40.9459L42.3963 39.1051L44.231 39.4559L44.4064 38.5385L42.5716 38.1878L42.9236 36.347L44.7583 36.6977L44.9337 35.7803L45.8572 35.9569L46.0325 35.0395L44.1917 34.6876L44.0164 35.605Z" fill="#DCE2F0"/>
<path d="M45.9883 30.2639L46.9117 30.4405L47.0883 29.5171L44.3301 28.9897L44.1535 29.9132L45.0709 30.0886L44.7201 31.9233L45.6375 32.0987L45.9883 30.2639Z" fill="#DCE2F0"/>
<path d="M42.9616 41.1213L42.0443 40.9459L41.8677 41.8693L42.7851 42.0447L42.9616 41.1213Z" fill="#DCE2F0"/>
<path d="M42.0824 45.7203L40.2416 45.3684L40.0651 46.2918L41.9059 46.6438L42.0824 45.7203Z" fill="#DCE2F0"/>
<path d="M44.7202 31.9232L42.8794 31.5713L42.7029 32.4947L44.5437 32.8466L44.7202 31.9232Z" fill="#DCE2F0"/>
<path d="M40.0651 46.2918L38.2303 45.941L38.055 46.8584L39.8897 47.2092L40.0651 46.2918Z" fill="#DCE2F0"/>
<path d="M43.0548 30.654L41.22 30.3032L41.0446 31.2206L42.8794 31.5714L43.0548 30.654Z" fill="#DCE2F0"/>
<path d="M37.9727 37.3085L37.7973 38.2259L38.7146 38.4012L38.5381 39.3247L39.4615 39.5012L39.6381 38.5778L40.5555 38.7532L40.7308 37.8358L37.9727 37.3085Z" fill="#DCE2F0"/>
<path d="M41.3954 29.3859L39.5546 29.0339L39.3792 29.9513L41.22 30.3033L41.3954 29.3859Z" fill="#DCE2F0"/>
<path d="M38.0549 46.8584L31.6151 45.6272L31.4397 46.5446L37.8795 47.7758L38.0549 46.8584Z" fill="#DCE2F0"/>
<path d="M32.6698 40.1108L32.1425 42.869L33.0599 43.0444L33.4118 41.2036L34.3352 41.3802L33.9833 43.221L33.0599 43.0444L32.8845 43.9618L37.4835 44.841L37.6588 43.9237L36.7415 43.7483L37.0934 41.9075L38.0108 42.0829L37.6588 43.9237L38.5823 44.1002L39.1096 41.342L32.6698 40.1108Z" fill="#DCE2F0"/>
<path d="M40.5162 33.9849L38.6754 33.6329L38.5 34.5503L40.3408 34.9022L40.5162 33.9849Z" fill="#DCE2F0"/>
<path d="M38.8519 32.7094L37.9285 32.5328L37.752 33.4563L38.6754 33.6328L38.8519 32.7094Z" fill="#DCE2F0"/>
<path d="M39.3792 29.9513L38.4557 29.7748L38.2804 30.6922L39.2038 30.8687L39.3792 29.9513Z" fill="#DCE2F0"/>
<path d="M38.2804 30.6921L37.363 30.5167L37.0111 32.3575L37.9285 32.5329L38.2804 30.6921Z" fill="#DCE2F0"/>
<path d="M37.0111 32.3575L36.0937 32.1821L35.9171 33.1055L36.8345 33.2809L37.0111 32.3575Z" fill="#DCE2F0"/>
<path d="M37.5384 29.5993L36.621 29.424L36.4456 30.3413L37.363 30.5167L37.5384 29.5993Z" fill="#DCE2F0"/>
<path d="M36.7964 28.5066L34.9556 28.1547L34.7802 29.072L36.621 29.424L36.7964 28.5066Z" fill="#DCE2F0"/>
<path d="M33.0217 38.2701L33.9391 38.4455L34.1156 37.5221L35.039 37.6986L35.2144 36.7812L32.4562 36.2539L32.2808 37.1713L33.1982 37.3467L33.0217 38.2701Z" fill="#DCE2F0"/>
<path d="M35.9172 33.1056L34.0764 32.7537L33.901 33.671L35.7418 34.023L35.9172 33.1056Z" fill="#DCE2F0"/>
<path d="M31.7906 44.7097L29.9498 44.3578L29.7744 45.2752L31.6152 45.6271L31.7906 44.7097Z" fill="#DCE2F0"/>
<path d="M34.7802 29.072L32.9394 28.7201L32.764 29.6375L34.6048 29.9894L34.7802 29.072Z" fill="#DCE2F0"/>
<path d="M30.1263 43.4345L28.2855 43.0825L28.1089 44.0059L29.9497 44.3579L30.1263 43.4345Z" fill="#DCE2F0"/>
<path d="M31.8848 34.2366L33.7256 34.5885L33.901 33.6711L30.2194 32.9673L30.3948 32.0499L28.56 31.6991L28.3846 32.6165L29.302 32.7919L29.1266 33.7093L30.9674 34.0612L30.6155 35.902L28.7747 35.5501L28.5993 36.4674L30.4401 36.8194L30.0882 38.6602L31.0055 38.8356L31.8848 34.2366Z" fill="#DCE2F0"/>
<path d="M30.0881 38.6602L29.1647 38.4836L28.9881 39.4071L29.9115 39.5836L30.0881 38.6602Z" fill="#DCE2F0"/>
<path d="M32.764 29.6375L30.9232 29.2855L30.7467 30.2089L32.5875 30.5609L32.764 29.6375Z" fill="#DCE2F0"/>
<path d="M28.9882 39.407L28.0708 39.2316L27.3681 42.9071L28.2855 43.0825L28.9882 39.407Z" fill="#DCE2F0"/>
<path d="M30.0058 29.1102L30.9232 29.2856L31.274 27.4508L32.1974 27.6274L32.374 26.704L29.6158 26.1766L29.4392 27.1001L30.3566 27.2754L30.0058 29.1102Z" fill="#DCE2F0"/>
<path d="M29.1266 33.7091L28.2092 33.5337L28.0327 34.4571L28.9501 34.6325L29.1266 33.7091Z" fill="#DCE2F0"/>
<path d="M28.0327 34.4572L27.1093 34.2806L26.5819 37.0388L28.4227 37.3908L28.5993 36.4673L27.6819 36.2919L28.0327 34.4572Z" fill="#DCE2F0"/>
<path d="M29.4392 27.1001L28.5158 26.9236L27.6366 31.5226L28.56 31.6991L29.4392 27.1001Z" fill="#DCE2F0"/>
<path d="M63.4305 12.6969H50.7569V3.18652H47.5729V12.6969H34.8993V3.18652H31.7153V12.6969H15.8576V3.18652H12.6944V12.6969H0V63.433H63.4305V12.6969ZM41.2257 60.2698H3.18401V15.8601H41.2257V60.2698ZM60.2673 60.2698H57.0833V57.0858H53.9201V53.9226H50.7569V57.0858H47.5729V60.2698H44.4097V57.0858H47.5729V53.9226H50.7569V15.8601H53.9201V53.9226H57.0833V57.0858H60.2673V60.2698Z" fill="#F34100"/>
<path d="M47.5717 0H34.8981V3.18401H47.5717V0Z" fill="#F34100"/>
<path d="M31.716 0H15.8583V3.18401H31.716V0Z" fill="#F34100"/>
</svg>
