<svg width="22" height="19" viewBox="0 0 22 19" fill="none" xmlns="http://www.w3.org/2000/svg">
<path d="M10 1.9L12 1.9V4.9831e-07L10 0L10 1.9Z" fill="#961A1A"/>
<path d="M12 3.8L14 3.8V1.9L12 1.9V3.8Z" fill="#961A1A"/>
<path d="M8 3.8L10 3.8L10 1.9L8 1.9L8 3.8Z" fill="#961A1A"/>
<path d="M6 7.6H8L8 3.8L6 3.8L6 7.6Z" fill="#961A1A"/>
<path d="M14 7.6L16 7.6L16 3.8L14 3.8V7.6Z" fill="#961A1A"/>
<path d="M20 9.5L22 9.5V7.6L20 7.6V9.5Z" fill="#961A1A"/>
<path d="M18 11.4L20 11.4V9.5H18V11.4Z" fill="#961A1A"/>
<path d="M14 7.6H22V5.7L14 5.7V7.6Z" fill="#961A1A"/>
<path d="M16 13.3H18V11.4H16V13.3Z" fill="#961A1A"/>
<path d="M18 19H20L20 13.3H18V19Z" fill="#961A1A"/>
<path d="M14 19H16V17.1H14V19Z" fill="#961A1A"/>
<path d="M12 17.1H14V15.2H12L12 17.1Z" fill="#961A1A"/>
<path d="M10 15.2H12L12 13.3H10L10 15.2Z" fill="#961A1A"/>
<path d="M8 17.1H10V15.2H8L8 17.1Z" fill="#961A1A"/>
<path d="M6 19H8L8 17.1H6L6 19Z" fill="#961A1A"/>
<path d="M2 19H4L4 15.2H2L2 19Z" fill="#961A1A"/>
<path d="M2 15.2H4V13.3H2L2 15.2Z" fill="#961A1A"/>
<path d="M4 13.3H6L6 11.4H4L4 13.3Z" fill="#961A1A"/>
<path d="M2 11.4H4L4 9.5H2L2 11.4Z" fill="#961A1A"/>
<path d="M0 9.5H2L2 7.6L5.24537e-07 7.6L0 9.5Z" fill="#961A1A"/>
<path d="M5.24537e-07 7.6L8 7.6L8 5.7L5.24537e-07 5.7L5.24537e-07 7.6Z" fill="#961A1A"/>
<path d="M16 19H18V17.1H16V19Z" fill="#961A1A"/>
<path d="M4 19H6L6 17.1H4L4 19Z" fill="#961A1A"/>
</svg>
