<svg width="64" height="65" viewBox="0 0 64 65" fill="none" xmlns="http://www.w3.org/2000/svg">
<path d="M63.4305 12.6969H50.7569V3.18652H47.5729V12.6969H34.8993V3.18652H31.7153V12.6969H15.8576V3.18652H12.6944V12.6969H0V63.433H63.4305V12.6969ZM41.2257 60.2698H3.18401V15.8601H41.2257V60.2698ZM60.2673 60.2698H57.0833V57.0858H53.9201V53.9226H50.7569V57.0858H47.5729V60.2698H44.4097V57.0858H47.5729V53.9226H50.7569V15.8601H53.9201V53.9226H57.0833V57.0858H60.2673V60.2698Z" fill="black"/>
<path d="M47.5717 0H34.8981V3.18401H47.5717V0Z" fill="black"/>
<path d="M31.7159 0H15.8583V3.18401H31.7159V0Z" fill="black"/>
<path d="M14 29V23H26V29H14ZM32 35H26V29H32V35ZM26 35V41H20V35H26ZM20 53V47H26V53H20Z" fill="black"/>
</svg>
