<svg width="91" height="91" viewBox="0 0 91 91" fill="none" xmlns="http://www.w3.org/2000/svg">
<path d="M41.3636 9.1L49.6364 9.1V2.38664e-06L41.3636 0L41.3636 9.1Z" fill="#FFCC00"/>
<path d="M49.6364 18.2L57.9091 18.2V9.1L49.6364 9.1V18.2Z" fill="#FFCC00"/>
<path d="M33.0909 18.2L41.3636 18.2L41.3636 9.1L33.0909 9.1L33.0909 18.2Z" fill="#FFCC00"/>
<path d="M24.8182 36.4H33.0909L33.0909 18.2L24.8182 18.2L24.8182 36.4Z" fill="#FFCC00"/>
<path d="M57.9091 36.4L66.1818 36.4L66.1818 18.2L57.9091 18.2V36.4Z" fill="#FFCC00"/>
<path d="M82.7273 45.5L91 45.5V36.4L82.7273 36.4V45.5Z" fill="#FFCC00"/>
<path d="M74.4545 54.6L82.7273 54.6V45.5H74.4545V54.6Z" fill="#FFCC00"/>
<path d="M57.9091 36.4H91V27.3L57.9091 27.3V36.4Z" fill="#FFCC00"/>
<path d="M66.1818 63.7H74.4545V54.6H66.1818V63.7Z" fill="#FFCC00"/>
<path d="M74.4545 91H82.7273L82.7273 63.7H74.4545V91Z" fill="#FFCC00"/>
<path d="M57.9091 91H66.1818V81.9H57.9091V91Z" fill="#FFCC00"/>
<path d="M49.6364 81.9H57.9091V72.8H49.6364L49.6364 81.9Z" fill="#FFCC00"/>
<path d="M41.3636 72.8H49.6364L49.6364 63.7H41.3636L41.3636 72.8Z" fill="#FFCC00"/>
<path d="M33.0909 81.9H41.3636V72.8H33.0909L33.0909 81.9Z" fill="#FFCC00"/>
<path d="M24.8182 91H33.0909L33.0909 81.9H24.8182L24.8182 91Z" fill="#FFCC00"/>
<path d="M8.27273 91H16.5455L16.5455 72.8H8.27273L8.27273 91Z" fill="#FFCC00"/>
<path d="M8.27273 72.8H16.5455V63.7H8.27273L8.27273 72.8Z" fill="#FFCC00"/>
<path d="M16.5455 63.7H24.8182L24.8182 54.6H16.5455L16.5455 63.7Z" fill="#FFCC00"/>
<path d="M8.27273 54.6H16.5455L16.5455 45.5H8.27273L8.27273 54.6Z" fill="#FFCC00"/>
<path d="M0 45.5H8.27273L8.27273 36.4L2.16967e-06 36.4L0 45.5Z" fill="#FFCC00"/>
<path d="M2.16967e-06 36.4L33.0909 36.4L33.0909 27.3L2.16968e-06 27.3L2.16967e-06 36.4Z" fill="#FFCC00"/>
<path d="M66.1818 91H74.4545V81.9H66.1818V91Z" fill="#FFCC00"/>
<path d="M16.5455 91H24.8182L24.8182 81.9H16.5455L16.5455 91Z" fill="#FFCC00"/>
</svg>
