<svg width="91" height="104" viewBox="0 0 91 104" fill="none" xmlns="http://www.w3.org/2000/svg">
<g filter="url(#filter0_d_1832_6813)">
<path d="M47.9047 71.8256V67.0477H81.4442V62.2698H9.58722V67.0477H43.1268V71.8256H0V100.587H91V71.8256H47.9047ZM86.2221 95.7779H4.80933V76.6349H86.2221V95.7779Z" fill="#5BCD6D"/>
<path d="M86.2222 4.77795H81.4443V62.2698H86.2222V4.77795Z" fill="#5BCD6D"/>
<path d="M76.6348 33.5081H71.8569V43.0953H76.6348V33.5081Z" fill="#5BCD6D"/>
<path d="M76.6348 19.1431H71.8569V23.9524H76.6348V19.1431Z" fill="#5BCD6D"/>
<path d="M76.6348 86.1906H14.365V90.9999H76.6348V86.1906Z" fill="#5BCD6D"/>
<path d="M67.0792 14.3651V9.55573H62.2698V14.3651H57.4919V19.1429H62.2698V28.7302H57.4919V33.5081H62.2698V43.0953H57.4919V47.8732H62.2698V52.6825H67.0792V47.8732H71.8571V43.0953H67.0792V33.5081H71.8571V28.7302H67.0792V19.1429H71.8571V14.3651H67.0792Z" fill="#5BCD6D"/>
<path d="M57.4919 38.3174H52.6826V43.0953H57.4919V38.3174Z" fill="#5BCD6D"/>
<path d="M57.4919 19.1431H52.6826V28.7303H57.4919V19.1431Z" fill="#5BCD6D"/>
<path d="M47.9046 47.8732H43.1267V52.6825H47.9046V47.8732Z" fill="#5BCD6D"/>
<path d="M47.9046 38.3174H43.1267V43.0953H47.9046V38.3174Z" fill="#5BCD6D"/>
<path d="M38.3174 47.8732H28.7302V52.6825H38.3174V47.8732Z" fill="#5BCD6D"/>
<path d="M38.3174 38.3174H28.7302V43.0953H38.3174V38.3174Z" fill="#5BCD6D"/>
<path d="M23.9522 47.8732H14.365V52.6825H23.9522V47.8732Z" fill="#5BCD6D"/>
<path d="M23.9522 38.3174H14.365V43.0953H23.9522V38.3174Z" fill="#5BCD6D"/>
<path d="M14.3806 33.5081H47.9202V9.55573H14.3806V33.5081ZM33.5551 14.3651H38.3329V19.1429H33.5551V14.3651ZM23.9678 14.3651H28.7457V19.1429H23.9521L23.9678 14.3651ZM23.9678 23.9523H38.3329V28.7302H23.9521L23.9678 23.9523Z" fill="#5BCD6D"/>
<path d="M81.4444 0H9.5874V4.77789H81.4444V0Z" fill="#5BCD6D"/>
<path d="M9.58734 4.77795H4.80945V62.2698H9.58734V4.77795Z" fill="#5BCD6D"/>
</g>
<defs>
<filter id="filter0_d_1832_6813" x="0" y="0" width="91" height="103.587" filterUnits="userSpaceOnUse" color-interpolation-filters="sRGB">
<feFlood flood-opacity="0" result="BackgroundImageFix"/>
<feColorMatrix in="SourceAlpha" type="matrix" values="0 0 0 0 0 0 0 0 0 0 0 0 0 0 0 0 0 0 127 0" result="hardAlpha"/>
<feOffset dy="3"/>
<feComposite in2="hardAlpha" operator="out"/>
<feColorMatrix type="matrix" values="0 0 0 0 0.128631 0 0 0 0 0.253205 0 0 0 0 0.149213 0 0 0 1 0"/>
<feBlend mode="normal" in2="BackgroundImageFix" result="effect1_dropShadow_1832_6813"/>
<feBlend mode="normal" in="SourceGraphic" in2="effect1_dropShadow_1832_6813" result="shape"/>
</filter>
</defs>
</svg>
