<svg width="91" height="91" viewBox="0 0 91 91" fill="none" xmlns="http://www.w3.org/2000/svg">
<path d="M91.0006 43.1267H86.2227V47.9046H91.0006V43.1267Z" fill="#28F75C"/>
<path d="M86.2219 47.9048H81.4126V52.6827H86.2219V47.9048Z" fill="#28F75C"/>
<path d="M86.2219 38.3174H81.4126V43.1267H86.2219V38.3174Z" fill="#28F75C"/>
<path d="M81.4122 52.6826H76.6343V57.4919H81.4122V52.6826Z" fill="#28F75C"/>
<path d="M81.4122 33.5398H76.6343V38.3177H81.4122V33.5398Z" fill="#28F75C"/>
<path d="M71.8565 71.8571H57.46V76.6349H76.6344V57.4919H71.8565V71.8571Z" fill="#28F75C"/>
<path d="M43.0956 47.9047H38.3177V43.1268H33.5084V38.3174H28.7305V43.1268H23.9526V47.9047H28.7305V52.6826H33.5084V57.4919H38.3177V62.2698H43.0956V57.4919H47.905V52.6826H52.6829V47.9047H57.4608V43.1268H62.2701V38.3174H67.048V33.5396H62.2701V28.7302H57.4608V33.5396H52.6829V38.3174H47.905V43.1268H43.0956V47.9047Z" fill="#28F75C"/>
<path d="M71.8565 19.1743V33.5394H76.6344V14.365H57.46V19.1743H71.8565Z" fill="#28F75C"/>
<path d="M57.4595 76.635H52.6816V81.4443H57.4595V76.635Z" fill="#28F75C"/>
<path d="M57.4595 9.5874H52.6816V14.3653H57.4595V9.5874Z" fill="#28F75C"/>
<path d="M52.6832 81.4443H47.9053V86.2222H52.6832V81.4443Z" fill="#28F75C"/>
<path d="M52.6832 4.80957H47.9053V9.58746H52.6832V4.80957Z" fill="#28F75C"/>
<path d="M47.9045 86.2224H43.0952V91.0003H47.9045V86.2224Z" fill="#28F75C"/>
<path d="M47.9045 0H43.0952V4.80933H47.9045V0Z" fill="#28F75C"/>
<path d="M43.0953 81.4443H38.3174V86.2222H43.0953V81.4443Z" fill="#28F75C"/>
<path d="M43.0953 4.80957H38.3174V9.58746H43.0953V4.80957Z" fill="#28F75C"/>
<path d="M38.3181 76.635H33.5088V81.4443H38.3181V76.635Z" fill="#28F75C"/>
<path d="M38.3181 9.5874H33.5088V14.3653H38.3181V9.5874Z" fill="#28F75C"/>
<path d="M19.1426 71.8571V57.4919H14.3647V76.6349H33.5078V71.8571H19.1426Z" fill="#28F75C"/>
<path d="M19.1426 19.1743H33.5078V14.365H14.3647V33.5394H19.1426V19.1743Z" fill="#28F75C"/>
<path d="M14.3643 52.6826H9.58643V57.4919H14.3643V52.6826Z" fill="#28F75C"/>
<path d="M14.3643 33.5398H9.58643V38.3177H14.3643V33.5398Z" fill="#28F75C"/>
<path d="M9.58716 47.9048H4.77783V52.6827H9.58716V47.9048Z" fill="#28F75C"/>
<path d="M9.58716 38.3174H4.77783V43.1267H9.58716V38.3174Z" fill="#28F75C"/>
<path d="M4.77789 43.1267H0V47.9046H4.77789V43.1267Z" fill="#28F75C"/>
</svg>
