<svg width="29" height="29" viewBox="0 0 29 29" fill="none" xmlns="http://www.w3.org/2000/svg">
<path d="M28.9998 16.5753H27.6133V17.9528H28.9998V16.5753Z" fill="#5BCD6D"/>
<path d="M27.6138 17.9528H26.2363V19.3303H27.6138V17.9528Z" fill="#5BCD6D"/>
<path d="M27.6138 15.1887H26.2363V16.5753H27.6138V15.1887Z" fill="#5BCD6D"/>
<path d="M26.2359 19.3303H24.8584V20.7169H26.2359V19.3303Z" fill="#5BCD6D"/>
<path d="M26.2359 13.8113H24.8584V15.1888H26.2359V13.8113Z" fill="#5BCD6D"/>
<path d="M24.8592 20.7169H23.4727V22.0944H24.8592V20.7169Z" fill="#5BCD6D"/>
<path d="M24.8592 12.4337H23.4727V13.8112H24.8592V12.4337Z" fill="#5BCD6D"/>
<path d="M23.4722 22.0944H22.0947V23.4809H23.4722V22.0944Z" fill="#5BCD6D"/>
<path d="M23.4722 11.0472H22.0947V12.4338H23.4722V11.0472Z" fill="#5BCD6D"/>
<path d="M22.0943 23.481H20.7168V24.8585H22.0943V23.481Z" fill="#5BCD6D"/>
<path d="M22.0943 9.66968H20.7168V11.0472H22.0943V9.66968Z" fill="#5BCD6D"/>
<path d="M20.7166 24.8585H19.3301V26.236H20.7166V24.8585Z" fill="#5BCD6D"/>
<path d="M20.7166 19.3303H19.3301V20.7169H20.7166V19.3303Z" fill="#5BCD6D"/>
<path d="M20.7166 15.1887H19.3301V17.9528H20.7166V15.1887Z" fill="#5BCD6D"/>
<path d="M20.7166 8.28314H19.3301V9.66971H20.7166V8.28314Z" fill="#5BCD6D"/>
<path d="M19.3296 26.236H17.9521V27.6225H19.3296V26.236Z" fill="#5BCD6D"/>
<path d="M19.3296 17.9528H17.9521V19.3303H19.3296V17.9528Z" fill="#5BCD6D"/>
<path d="M19.3305 13.8113H16.5664V15.1888H19.3305V13.8113Z" fill="#5BCD6D"/>
<path d="M19.3296 6.90564H17.9521V8.28314H19.3296V6.90564Z" fill="#5BCD6D"/>
<path d="M17.953 27.6225H16.5664V29H17.953V27.6225Z" fill="#5BCD6D"/>
<path d="M17.953 16.5753H16.5664V17.9528H17.953V16.5753Z" fill="#5BCD6D"/>
<path d="M17.953 5.52814H16.5664V6.90564H17.953V5.52814Z" fill="#5BCD6D"/>
<path d="M16.566 26.236H15.1885V27.6225H16.566V26.236Z" fill="#5BCD6D"/>
<path d="M17.9525 19.3303H15.1885V20.7169H17.9525V19.3303Z" fill="#5BCD6D"/>
<path d="M16.566 15.1887H15.1885V16.5753H16.566V15.1887Z" fill="#5BCD6D"/>
<path d="M16.5665 11.0472H13.8115V12.4338H16.5665V11.0472Z" fill="#5BCD6D"/>
<path d="M16.566 4.1416H15.1885V5.52816H16.566V4.1416Z" fill="#5BCD6D"/>
<path d="M15.189 24.8585H13.8115V26.236H15.189V24.8585Z" fill="#5BCD6D"/>
<path d="M15.189 13.8113H13.8115V15.1888H15.189V13.8113Z" fill="#5BCD6D"/>
<path d="M15.189 2.76404H13.8115V4.14154H15.189V2.76404Z" fill="#5BCD6D"/>
<path d="M13.8114 23.481H12.4248V24.8585H13.8114V23.481Z" fill="#5BCD6D"/>
<path d="M15.1889 16.5753H12.4248V17.9528H15.1889V16.5753Z" fill="#5BCD6D"/>
<path d="M13.8114 12.4337H12.4248V13.8112H13.8114V12.4337Z" fill="#5BCD6D"/>
<path d="M12.4254 22.0944H11.0479V23.4809H12.4254V22.0944Z" fill="#5BCD6D"/>
<path d="M12.4254 13.8113H11.0479V16.5753H12.4254V13.8113Z" fill="#5BCD6D"/>
<path d="M12.4254 11.0472H11.0479V12.4338H12.4254V11.0472Z" fill="#5BCD6D"/>
<path d="M11.0477 20.7169H9.66113V22.0944H11.0477V20.7169Z" fill="#5BCD6D"/>
<path d="M9.6607 19.3303H8.2832V20.7169H9.6607V19.3303Z" fill="#5BCD6D"/>
<path d="M8.28317 6.90567H6.90567V8.28317H5.5191V6.90567H4.1416V9.66973H9.66067V4.1416H6.90567V5.52816H8.28317V6.90567Z" fill="#5BCD6D"/>
<path d="M8.28277 17.9528H6.90527V19.3303H8.28277V17.9528Z" fill="#5BCD6D"/>
<path d="M6.90512 16.5753H5.51855V17.9528H6.90512V16.5753Z" fill="#5BCD6D"/>
<path d="M6.90512 5.52814H5.51855V6.90564H6.90512V5.52814Z" fill="#5BCD6D"/>
<path d="M13.8113 1.3775H4.1416V2.76407H13.8113V1.3775Z" fill="#5BCD6D"/>
<path d="M5.5191 15.1887H4.1416V16.5753H5.5191V15.1887Z" fill="#5BCD6D"/>
<path d="M5.5191 4.1416H4.1416V5.52816H5.5191V4.1416Z" fill="#5BCD6D"/>
<path d="M4.14117 13.8113H2.76367V15.1888H4.14117V13.8113Z" fill="#5BCD6D"/>
<path d="M4.14117 2.76404H2.76367V4.14154H4.14117V2.76404Z" fill="#5BCD6D"/>
<path d="M2.76352 4.1416H1.37695V13.8113H2.76352V4.1416Z" fill="#5BCD6D"/>
<path d="M2.76352 1.3775H1.37695V2.76407H2.76352V1.3775Z" fill="#5BCD6D"/>
<path d="M1.3775 0H0V1.3775H1.3775V0Z" fill="#5BCD6D"/>
</svg>
