<svg width="25" height="25" viewBox="0 0 25 25" fill="none" xmlns="http://www.w3.org/2000/svg">
<path d="M16.6667 13.8889V11.1111H13.8889V5.55556L11.1111 5.55555V13.8889H16.6667Z" fill="#5BCD6D"/>
<path d="M1.09278e-06 8.33333L0 16.6667H2.77778L2.77778 8.33333L5.55555 8.33334V5.55556L8.33333 5.55556V2.77778L2.77778 2.77778V8.33333L1.09278e-06 8.33333Z" fill="#5BCD6D"/>
<path d="M2.77778 22.2222L2.77778 16.6667H5.55555L5.55556 19.4444H8.33333V22.2222H2.77778Z" fill="#5BCD6D"/>
<path d="M8.33333 22.2222H16.6667V25H8.33333V22.2222Z" fill="#5BCD6D"/>
<path d="M22.2222 8.33333L19.4444 8.33333L19.4444 5.55556L16.6667 5.55556V2.77778L22.2222 2.77778V8.33333Z" fill="#5BCD6D"/>
<path d="M22.2222 8.33333H25V16.6667H22.2222V8.33333Z" fill="#5BCD6D"/>
<path d="M16.6667 2.77778L8.33333 2.77778V0L16.6667 3.74188e-06L16.6667 2.77778Z" fill="#5BCD6D"/>
<path d="M16.6667 22.2222H22.2222L22.2222 16.6667H19.4444L19.4444 19.4444H16.6667L16.6667 22.2222Z" fill="#5BCD6D"/>
</svg>
