<svg width="16" height="16" viewBox="0 0 16 16" fill="none" xmlns="http://www.w3.org/2000/svg">
<path d="M8.72727 4.36364H10.1818V5.81818H8.72727V7.27273H10.1818V8.72727H8.72727V10.1818H10.1818V11.6364H8.72727V13.0909H7.27273V11.6364H5.81818V10.1818H7.27273V8.72727H5.81818V7.27273H7.27273V5.81818H5.81818V4.36364H7.27273V2.90909H8.72727V4.36364Z" fill="#F52828" fill-opacity="0.6"/>
<path d="M5.81818 5.81818V7.27273H4.36364V5.81818H5.81818Z" fill="#F52828" fill-opacity="0.6"/>
<path d="M10.1818 10.1818V8.72727H11.6364V10.1818H10.1818Z" fill="#F52828" fill-opacity="0.6"/>
<path fill-rule="evenodd" clip-rule="evenodd" d="M4.36364 0V1.45455H2.90909V2.90909H1.45455V4.36364H0V11.6364H1.45455V13.0909H2.90909V14.5455H4.36364V16H11.6364V14.5455H13.0909V13.0909H14.5455V11.6364H16V4.36364H14.5455V2.90909H13.0909V1.45455H11.6364V0H4.36364ZM11.6364 1.45455V2.90909H13.0909V4.36364H14.5455V11.6364H13.0909V13.0909H11.6364V14.5455H4.36364V13.0909H2.90909V11.6364H1.45455V4.36364H2.90909V2.90909H4.36364V1.45455H11.6364Z" fill="#F52828" fill-opacity="0.6"/>
</svg>
