<svg width="27" height="27" viewBox="0 0 27 27" fill="none" xmlns="http://www.w3.org/2000/svg">
<path d="M14.7273 7.36364H17.1818V9.81818H14.7273V12.2727H17.1818V14.7273H14.7273V17.1818H17.1818V19.6364H14.7273V22.0909H12.2727V19.6364H9.81818V17.1818H12.2727V14.7273H9.81818V12.2727H12.2727V9.81818H9.81818V7.36364H12.2727V4.90909H14.7273V7.36364Z" fill="#5BCD6D"/>
<path d="M9.81818 9.81818V12.2727H7.36364V9.81818H9.81818Z" fill="#5BCD6D"/>
<path d="M17.1818 17.1818V14.7273H19.6364V17.1818H17.1818Z" fill="#5BCD6D"/>
<path fill-rule="evenodd" clip-rule="evenodd" d="M7.36364 0V2.45455H4.90909V4.90909H2.45455V7.36364H0V19.6364H2.45455V22.0909H4.90909V24.5455H7.36364V27H19.6364V24.5455H22.0909V22.0909H24.5455V19.6364H27V7.36364H24.5455V4.90909H22.0909V2.45455H19.6364V0H7.36364ZM19.6364 2.45455V4.90909H22.0909V7.36364H24.5455V19.6364H22.0909V22.0909H19.6364V24.5455H7.36364V22.0909H4.90909V19.6364H2.45455V7.36364H4.90909V4.90909H7.36364V2.45455H19.6364Z" fill="#5BCD6D"/>
</svg>
