<svg width="79" height="70" viewBox="0 0 79 70" fill="none" xmlns="http://www.w3.org/2000/svg">
<path d="M0 28.8379V65.8919H4.14784V32.946H58.2062V65.8919H4.14784V70H74.8522V65.8919H62.3813V32.946H74.8522V65.8919H79V12.3514H74.8522V24.7027H70.677V28.8379H16.6187V24.7027H12.4708V28.8379H0Z" fill="#FF6600"/>
<path d="M74.8521 8.24323H70.677V12.3513H74.8521V8.24323Z" fill="#FF6600"/>
<path d="M70.6771 37.0541H66.5293V61.7838H70.6771V37.0541Z" fill="#FF6600"/>
<path d="M70.6771 20.5946H66.5293V24.7027H70.6771V20.5946Z" fill="#FF6600"/>
<path d="M70.6771 4.10809H66.5293V8.24323H70.6771V4.10809Z" fill="#FF6600"/>
<path d="M66.5292 16.4595H62.3813V20.5946H66.5292V16.4595Z" fill="#FF6600"/>
<path d="M66.5292 8.24323H62.3813V12.3513H66.5292V8.24323Z" fill="#FF6600"/>
<path d="M33.2645 45.2973H29.0894V61.7838H49.8831V37.0541H33.2645V45.2973ZM45.7353 49.4054V57.6487H33.2645V49.4054H45.7353Z" fill="#FF6600"/>
<path d="M29.0895 37.0541H24.9417V41.1892H29.0895V37.0541Z" fill="#FF6600"/>
<path d="M20.7938 37.0541H8.323V61.7838H24.9417V45.2973H20.7938V37.0541ZM20.7938 57.6487H12.4845V49.4054H20.8075L20.7938 57.6487Z" fill="#FF6600"/>
<path d="M66.5292 0H8.323V4.10811H66.5292V0Z" fill="#FF6600"/>
<path d="M12.4708 20.5946H8.323V24.7027H12.4708V20.5946Z" fill="#FF6600"/>
<path d="M62.3813 16.4594V12.3513H4.14784V8.24323H0V16.4594H4.14784V20.5946H8.32297V16.4594H62.3813Z" fill="#FF6600"/>
<path d="M8.32308 4.10809H4.14795V8.24323H8.32308V4.10809Z" fill="#FF6600"/>
</svg>
