<svg width="89" height="84" viewBox="0 0 89 84" fill="none" xmlns="http://www.w3.org/2000/svg">
<g filter="url(#filter0_d_296_1987)">
<path d="M0 32.6769V74.6637H4.655V37.3319H65.3231V74.6637H4.655V79.3187H84.0044V74.6637H70.0088V37.3319H84.0044V74.6637H88.6594V13.9956H84.0044V27.9912H79.3187V32.6769H18.6506V27.9912H13.9956V32.6769H0Z" fill="#FF6600"/>
<path d="M84.0045 9.34064H79.3188V13.9956H84.0045V9.34064Z" fill="#FF6600"/>
<path d="M79.3186 41.9869H74.6636V70.0088H79.3186V41.9869Z" fill="#FF6600"/>
<path d="M79.3186 23.3362H74.6636V27.9912H79.3186V23.3362Z" fill="#FF6600"/>
<path d="M79.3186 4.65503H74.6636V9.34065H79.3186V4.65503Z" fill="#FF6600"/>
<path d="M74.6638 18.6506H70.0088V23.3363H74.6638V18.6506Z" fill="#FF6600"/>
<path d="M74.6638 9.34064H70.0088V13.9956H74.6638V9.34064Z" fill="#FF6600"/>
<path d="M37.3321 51.3275H32.6465V70.0088H55.9827V41.9869H37.3321V51.3275ZM51.3277 55.9825V65.3231H37.3321V55.9825H51.3277Z" fill="#FF6600"/>
<path d="M32.6462 41.9869H27.9912V46.6725H32.6462V41.9869Z" fill="#FF6600"/>
<path d="M23.3364 41.9869H9.34082V70.0088H27.9914V51.3275H23.3364V41.9869ZM23.3364 65.3231H14.0111V55.9825H23.3518L23.3364 65.3231Z" fill="#FF6600"/>
<path d="M74.664 0H9.34082V4.655H74.664V0Z" fill="#FF6600"/>
<path d="M13.9958 23.3362H9.34082V27.9912H13.9958V23.3362Z" fill="#FF6600"/>
<path d="M70.0088 18.6506V13.9956H4.655V9.34064H0V18.6506H4.655V23.3363H9.34062V18.6506H70.0088Z" fill="#FF6600"/>
<path d="M9.34041 4.65503H4.65479V9.34065H9.34041V4.65503Z" fill="#FF6600"/>
</g>
<defs>
<filter id="filter0_d_296_1987" x="0" y="0" width="88.6592" height="83.3187" filterUnits="userSpaceOnUse" color-interpolation-filters="sRGB">
<feFlood flood-opacity="0" result="BackgroundImageFix"/>
<feColorMatrix in="SourceAlpha" type="matrix" values="0 0 0 0 0 0 0 0 0 0 0 0 0 0 0 0 0 0 127 0" result="hardAlpha"/>
<feOffset dy="4"/>
<feComposite in2="hardAlpha" operator="out"/>
<feColorMatrix type="matrix" values="0 0 0 0 0 0 0 0 0 0 0 0 0 0 0 0 0 0 1 0"/>
<feBlend mode="normal" in2="BackgroundImageFix" result="effect1_dropShadow_296_1987"/>
<feBlend mode="normal" in="SourceGraphic" in2="effect1_dropShadow_296_1987" result="shape"/>
</filter>
</defs>
</svg>
