<svg width="37" height="33" viewBox="0 0 37 33" fill="none" xmlns="http://www.w3.org/2000/svg">
<path d="M0 13.3375V30.475H1.9V15.2375H26.6625V30.475H1.9V32.375H34.2875V30.475H28.575V15.2375H34.2875V30.475H36.1875V5.71249H34.2875V11.425H32.375V13.3375H7.6125V11.425H5.7125V13.3375H0Z" fill="#090909"/>
<path d="M34.2875 3.8125H32.375V5.7125H34.2875V3.8125Z" fill="#090909"/>
<path d="M32.3751 17.1375H30.4751V28.575H32.3751V17.1375Z" fill="#090909"/>
<path d="M32.3751 9.52499H30.4751V11.425H32.3751V9.52499Z" fill="#090909"/>
<path d="M32.3751 1.89999H30.4751V3.81249H32.3751V1.89999Z" fill="#090909"/>
<path d="M30.4752 7.6125H28.5752V9.525H30.4752V7.6125Z" fill="#090909"/>
<path d="M30.4752 3.8125H28.5752V5.7125H30.4752V3.8125Z" fill="#090909"/>
<path d="M15.2377 20.95H13.3252V28.575H22.8502V17.1375H15.2377V20.95ZM20.9502 22.85V26.6625H15.2377V22.85H20.9502Z" fill="#090909"/>
<path d="M13.3248 17.1375H11.4248V19.05H13.3248V17.1375Z" fill="#090909"/>
<path d="M9.525 17.1375H3.8125V28.575H11.425V20.95H9.525V17.1375ZM9.525 26.6625H5.71875V22.85H9.53125L9.525 26.6625Z" fill="#090909"/>
<path d="M30.475 0H3.8125V1.9H30.475V0Z" fill="#090909"/>
<path d="M5.7125 9.52499H3.8125V11.425H5.7125V9.52499Z" fill="#090909"/>
<path d="M28.575 7.6125V5.7125H1.9V3.8125H0V7.6125H1.9V9.525H3.8125V7.6125H28.575Z" fill="#090909"/>
<path d="M3.8124 1.89999H1.8999V3.81249H3.8124V1.89999Z" fill="#090909"/>
</svg>
