<svg width="28" height="27" viewBox="0 0 28 27" fill="none" xmlns="http://www.w3.org/2000/svg">
<path d="M18.6667 1.57361e-06L9.33333 0V3L18.6667 3L18.6667 6L21.7778 6L21.7778 9L24.8889 9L24.8889 3L18.6667 3V1.57361e-06Z" fill="#0097EA"/>
<path d="M3.11111 3L9.33333 3V6H6.22222V9H3.11111L3.11111 3Z" fill="#0097EA"/>
<path d="M3.11111 9L3.11111 18H0L1.63189e-06 9L3.11111 9Z" fill="#0097EA"/>
<path fill-rule="evenodd" clip-rule="evenodd" d="M18.6667 24V27L9.33333 27L9.33333 24H18.6667ZM18.6667 24V21H21.7778V18L24.8889 18V24H18.6667Z" fill="#0097EA"/>
<path d="M24.8889 18V9L28 9L28 18H24.8889Z" fill="#0097EA"/>
<path d="M3.11111 18L3.11111 24L9.33333 24L9.33333 21L6.22222 21V18L3.11111 18Z" fill="#0097EA"/>
<path d="M18.6667 3L9.33333 3V6H6.22222V9H3.11111L3.11111 18L6.22222 18V21L9.33333 21L9.33333 24H18.6667V21H21.7778V18L24.8889 18V9L21.7778 9L21.7778 6L18.6667 6L18.6667 3Z" fill="#0097EA"/>
<path fill-rule="evenodd" clip-rule="evenodd" d="M15.6799 21.6L15.6799 19.95L17.3599 19.95L17.3599 18.3L19.0399 18.3L19.0399 15L20.7199 15L20.7199 11.7L22.3999 11.7L22.3999 8.39998L20.7199 8.39998L20.7199 6.74998L7.2799 6.74998L7.2799 8.39998L5.5999 8.39998L5.5999 11.7L7.2799 11.7L7.2799 15L8.9599 15L8.9599 18.3L10.6399 18.3L10.6399 19.95L12.3199 19.95L12.3199 21.6L15.6799 21.6ZM12.3199 19.95L12.3199 18.3L10.6399 18.3L10.6399 15L8.9599 15L8.9599 11.7L7.2799 11.7L7.2799 8.39998L20.7199 8.39998L20.7199 11.7L19.0399 11.7L19.0399 15L17.3599 15L17.3599 18.3L15.6799 18.3L15.6799 19.95L12.3199 19.95Z" fill="black"/>
<path d="M14.6996 21.6L13.2996 21.6L13.2996 8.09998L14.6996 8.09998L14.6996 21.6Z" fill="black"/>
</svg>
