<svg width="57" height="57" viewBox="0 0 57 57" fill="none" xmlns="http://www.w3.org/2000/svg">
<path d="M54.2747 21.7134V16.2806H51.5672V10.8656H48.8597V8.14031H46.1344V5.43281H40.7194V2.72531H35.2866V0H21.7134V2.72531H16.2806V5.43281H10.8478V8.14031H8.14031V10.8656H5.43281V16.2806H2.7075V21.7134H0V35.2866H2.7075V40.7194H5.43281V46.1522H8.14031V48.8597H10.8478V51.5672H16.2806V54.2925H21.7134V57H35.2866V54.2925H40.7194V51.5672H46.1344V48.8597H48.8597V46.1522H51.5672V40.7194H54.2747V35.2866H57V21.7134H54.2747ZM32.5613 10.8656H37.9941V13.5731H40.7194V16.2806H43.4269V19.0059H46.1344V24.4388H43.4269V19.0059H40.7194V16.2806H37.9941V13.5731H32.5613V10.8656ZM46.1344 29.8538V35.2866H43.4269V37.9941H40.7194V40.7194H37.9941V43.4269H35.2866V46.1522H29.8538V43.4269H35.2866V40.7194H37.9941V37.9941H40.7194V35.2866H43.4269V29.8538H46.1344ZM8.14031 19.0059V27.1462H5.43281V19.0059H8.14031V16.2806H10.8478V13.5731H13.5731V10.8656H16.2806V8.14031H19.0059V5.43281H27.1462V8.14031H19.0059V10.8656H16.2806V13.5731H13.5731V16.2806H10.8478V19.0059H8.14031ZM27.1462 10.8656V13.5731H21.7134V16.2806H19.0059V19.0059H16.2806V21.7134H13.5731V27.1462H10.8478V21.7134H13.5731V19.0059H16.2806V16.2806H19.0059V13.5731H21.7134V10.8656H27.1462ZM24.4209 46.1522H19.0059V43.4269H16.2806V40.7194H13.5731V37.9941H10.8478V32.5791H13.5731V37.9941H16.2806V40.7194H19.0059V43.4269H24.4209V46.1522ZM21.7134 32.5791V24.4388H24.4209V21.7134H32.5613V24.4388H35.2866V32.5791H32.5613V35.2866H24.4209V32.5791H21.7134ZM51.5672 37.9941H48.8597V40.7194H46.1344V43.4269H43.4269V46.1522H40.7194V48.8597H37.9941V51.5672H29.8538V48.8597H37.9941V46.1522H40.7194V43.4269H43.4269V40.7194H46.1344V37.9941H48.8597V29.8538H51.5672V37.9941Z" fill="#8816A4"/>
<path d="M29.8537 27.1462H27.1462V29.8537H29.8537V27.1462Z" fill="#8816A4"/>
</svg>
