<svg width="25" height="32" viewBox="0 0 25 32" fill="none" xmlns="http://www.w3.org/2000/svg">
<path d="M19.8096 18.29V19.81H22.8596V24.38H24.3796V13.71H22.8596V18.29H19.8096Z" fill="white"/>
<path d="M21.3298 27.4299H6.0998V25.9099H4.5698V27.4299H3.0498V31.9999H24.3798V27.4299H22.8598V24.3799H21.3298V27.4299ZM21.3298 30.4799H18.2898V28.9499H21.3298V30.4799Z" fill="white"/>
<path d="M22.8601 12.1899H21.3301V13.7099H22.8601V12.1899Z" fill="white"/>
<path d="M18.29 18.2899H19.81V12.1899H21.33V10.6699H18.29V18.2899Z" fill="white"/>
<path d="M18.2902 18.29H15.2402V19.81H18.2902V18.29Z" fill="white"/>
<path d="M12.1901 19.8101H7.62012V21.3301H12.1901V19.8101Z" fill="white"/>
<path d="M9.14012 13.71H7.62012V15.24H10.6701V10.67H13.7201V15.24H10.6701V16.76H12.1901V19.81H13.7201V18.29H15.2401V10.67H18.2901V9.14002H10.6701V1.52002H9.14012V13.71Z" fill="white"/>
<path d="M9.13961 0H6.09961V1.52H9.13961V0Z" fill="white"/>
<path d="M7.61961 18.29H6.09961V19.81H7.61961V18.29Z" fill="white"/>
<path d="M7.6198 13.71V12.19H6.0998V1.52002H4.5698V12.19H3.0498V13.71H7.6198Z" fill="white"/>
<path d="M4.5698 24.3799H3.0498V25.9099H4.5698V24.3799Z" fill="white"/>
<path d="M3.05027 21.3301H1.53027V24.3801H3.05027V21.3301Z" fill="white"/>
<path d="M3.05027 13.71H1.53027V15.24H3.05027V13.71Z" fill="white"/>
<path d="M1.53 15.24H0V21.33H1.53V15.24Z" fill="white"/>
</svg>
