<svg width="25" height="32" viewBox="0 0 25 32" fill="none" xmlns="http://www.w3.org/2000/svg">
<path d="M22.8496 18.29H19.8096V19.81H22.8496V24.39H24.3796V13.72H22.8496V18.29Z" fill="white"/>
<path d="M21.33 27.4299H6.09004V25.9099H4.57004V27.4299H3.04004V31.9999H24.38V27.4299H22.85V24.3899H21.33V27.4299ZM21.33 30.4799H18.28V28.9599H21.33V30.4799Z" fill="white"/>
<path d="M22.8501 12.1899H21.3301V13.7199H22.8501V12.1899Z" fill="white"/>
<path d="M18.2803 18.2901H19.8103V12.1901H21.3303V10.6701H19.8103V4.58008H18.2803V18.2901Z" fill="white"/>
<path d="M13.71 15.24H15.24V4.58003H18.28V3.05003H15.24V1.53003H13.71V15.24Z" fill="white"/>
<path d="M13.7104 16.77H12.1904V19.81H13.7104V16.77Z" fill="white"/>
<path d="M13.7102 0H10.6602V1.53H13.7102V0Z" fill="white"/>
<path d="M12.1902 15.24H10.6602V16.77H12.1902V15.24Z" fill="white"/>
<path d="M12.1901 19.8101H7.62012V21.3401H12.1901V19.8101Z" fill="white"/>
<path d="M9.13984 13.72H7.61984V15.24H10.6598V1.53003H6.08984V3.05003H9.13984V13.72Z" fill="white"/>
<path d="M7.61984 18.29H6.08984V19.81H7.61984V18.29Z" fill="white"/>
<path d="M7.62004 13.72V12.19H6.09004V3.05005H4.57004V12.19H3.04004V13.72H7.62004Z" fill="white"/>
<path d="M4.57004 24.3899H3.04004V25.9099H4.57004V24.3899Z" fill="white"/>
<path d="M3.03953 21.3401H1.51953V24.3901H3.03953V21.3401Z" fill="white"/>
<path d="M3.03953 13.72H1.51953V15.24H3.03953V13.72Z" fill="white"/>
<path d="M1.52 15.24H0V21.34H1.52V15.24Z" fill="white"/>
</svg>
