<svg width="22" height="32" viewBox="0 0 22 32" fill="none" xmlns="http://www.w3.org/2000/svg">
<path d="M21.3298 21.3301H19.7998V28.9501H21.3298V21.3301Z" fill="white"/>
<path d="M19.8003 28.95H18.2803V30.4799H19.8003V28.95Z" fill="white"/>
<path d="M19.8003 19.8101H18.2803V21.3301H19.8003V19.8101Z" fill="white"/>
<path d="M18.2798 30.48H16.7598V32H18.2798V30.48Z" fill="white"/>
<path d="M18.2798 18.29H16.7598V19.81H18.2798V18.29Z" fill="white"/>
<path d="M16.7596 18.2899V16.7599H10.6596V10.6699H9.13965V18.2899H16.7596Z" fill="white"/>
<path d="M16.7605 3.05005H15.2305V4.57005H16.7605V3.05005Z" fill="white"/>
<path d="M15.23 19.8101H13.71V24.3801H15.23V19.8101Z" fill="white"/>
<path d="M15.23 4.57007H13.71V6.10007H15.23V4.57007Z" fill="white"/>
<path d="M13.7104 6.1001H12.1904V7.6201H13.7104V6.1001Z" fill="white"/>
<path d="M10.6596 19.8101H9.13965V24.3801H10.6596V19.8101Z" fill="white"/>
<path d="M9.13984 9.13989H6.08984V10.6699H9.13984V9.13989Z" fill="white"/>
<path d="M9.14035 0H7.61035V4.57H9.14035V0Z" fill="white"/>
<path d="M6.09031 28.95H4.57031V32H6.09031V28.95Z" fill="white"/>
<path d="M4.56953 22.8599H6.08953V10.6699H4.56953V18.2899H1.51953V19.8099H4.56953V22.8599Z" fill="white"/>
<path d="M4.57004 27.4299H3.04004V28.9499H4.57004V27.4299Z" fill="white"/>
<path d="M4.57004 6.1001H3.04004V7.6201H4.57004V6.1001Z" fill="white"/>
<path d="M3.03953 25.9099H1.51953V27.4299H3.03953V25.9099Z" fill="white"/>
<path d="M3.03953 4.57007H1.51953V6.10007H3.03953V4.57007Z" fill="white"/>
<path d="M1.52 19.8101H0V25.9101H1.52V19.8101Z" fill="white"/>
<path d="M1.52 3.05005H0V4.57005H1.52V3.05005Z" fill="white"/>
</svg>
