<svg width="28" height="32" viewBox="0 0 28 32" fill="none" xmlns="http://www.w3.org/2000/svg">
<path d="M27.4304 6.1001H25.9004V19.8101H27.4304V6.1001Z" fill="white"/>
<path d="M25.8999 19.8101H24.3799V24.3901H25.8999V19.8101Z" fill="white"/>
<path d="M25.9004 4.58008H22.8604V6.10008H25.9004V4.58008Z" fill="white"/>
<path d="M22.8598 27.4299H9.13984V24.3899H7.61484V27.4299H6.08984V31.9999H25.8998V27.4299H24.3798V24.3899H22.8598V27.4299ZM22.8598 30.4799H19.8148V28.9599H22.8648L22.8598 30.4799Z" fill="white"/>
<path d="M22.8601 15.24H21.3301V16.77H22.8601V15.24Z" fill="white"/>
<path d="M18.2898 15.24H16.7598V16.77H18.2898V15.24Z" fill="white"/>
<path d="M13.7104 15.24H12.1904V16.77H13.7104V15.24Z" fill="white"/>
<path d="M12.1904 13.72H13.7104V10.67H16.7604V13.72H18.2904V10.67H21.3304V13.72H22.8604V6.10003H21.3304V9.15003H13.7104V1.53003H12.1904V13.72Z" fill="white"/>
<path d="M12.1896 0H9.13965V1.53H12.1896V0Z" fill="white"/>
<path d="M7.61984 21.3401H6.08984V24.3901H7.61984V21.3401Z" fill="white"/>
<path d="M7.61984 15.24V16.77H9.13984V1.53003H7.61984V13.72H6.08984V15.24H7.61984Z" fill="white"/>
<path d="M6.09031 19.8101H4.57031V21.3401H6.09031V19.8101Z" fill="white"/>
<path d="M6.09031 12.1899H4.57031V13.7199H6.09031V12.1899Z" fill="white"/>
<path d="M4.5698 18.29H3.0498V19.81H4.5698V18.29Z" fill="white"/>
<path d="M4.56953 10.6699H1.51953V12.1899H4.56953V10.6699Z" fill="white"/>
<path d="M3.04953 16.77H1.51953V18.29H3.04953V16.77Z" fill="white"/>
<path d="M1.52 12.1899H0V16.7699H1.52V12.1899Z" fill="white"/>
</svg>
