<svg width="31" height="32" viewBox="0 0 31 32" fill="none" xmlns="http://www.w3.org/2000/svg">
<path d="M30.4802 13.72H28.9502V19.81H30.4802V13.72Z" fill="white"/>
<path d="M28.9497 19.8101H27.4297V24.3901H28.9497V19.8101Z" fill="white"/>
<path d="M28.9497 12.1899H27.4297V13.7199H28.9497V12.1899Z" fill="white"/>
<path d="M25.9096 27.4299H12.1896V24.3899H10.6696V27.4299H9.13965V31.9999H28.9496V27.4299H27.4296V24.3899H25.9096V27.4299ZM25.9096 30.4799H22.8596V28.9599H25.9096V30.4799Z" fill="white"/>
<path d="M27.4302 10.6699H25.9102V12.1899H27.4302V10.6699Z" fill="white"/>
<path d="M25.9099 13.72H24.3799V16.77H25.9099V13.72Z" fill="white"/>
<path d="M21.3396 13.72H19.8096V16.77H21.3396V13.72Z" fill="white"/>
<path d="M16.7602 13.72H15.2402V16.77H16.7602V13.72Z" fill="white"/>
<path d="M15.2402 10.67H25.9102V9.15003H16.7602V1.53003H15.2402V10.67Z" fill="white"/>
<path d="M15.2404 0H12.1904V1.53H15.2404V0Z" fill="white"/>
<path d="M10.6696 21.3401H9.13965V24.3901H10.6696V21.3401Z" fill="white"/>
<path d="M10.6696 15.24V18.29H12.1896V1.53003H10.6696V13.72H9.13965V15.24H10.6696Z" fill="white"/>
<path d="M9.14012 19.8101H7.62012V21.3401H9.14012V19.8101Z" fill="white"/>
<path d="M9.14012 12.1899H7.62012V13.7199H9.14012V12.1899Z" fill="white"/>
<path d="M7.62031 4.58H9.14031V0H4.57031V1.53H6.10031V3.05H7.62031V4.58Z" fill="white"/>
<path d="M7.61961 18.29H6.09961V19.81H7.61961V18.29Z" fill="white"/>
<path d="M7.62031 10.6699H4.57031V12.1899H7.62031V10.6699Z" fill="white"/>
<path d="M6.10031 16.77H4.57031V18.29H6.10031V16.77Z" fill="white"/>
<path d="M6.10031 3.05005H4.57031V4.58005H6.10031V3.05005Z" fill="white"/>
<path d="M4.5698 12.1899H3.0498V16.7699H4.5698V12.1899Z" fill="white"/>
<path d="M4.57 7.62008H3.05V6.10008H1.53V4.58008H0V9.15008H4.57V7.62008Z" fill="white"/>
<path d="M4.5698 4.58008H3.0498V6.10008H4.5698V4.58008Z" fill="white"/>
</svg>
