<svg width="25" height="23" viewBox="0 0 25 23" fill="none" xmlns="http://www.w3.org/2000/svg">
<path d="M19.8096 9.15007V10.6701H22.8596V15.2401H24.3796V4.57007H22.8596V9.15007H19.8096Z" fill="white"/>
<path d="M21.3298 18.29H6.0998V16.77H4.5698V18.29H3.0498V22.86H24.3798V18.29H22.8598V15.24H21.3298V18.29ZM21.3298 21.34H18.2898V19.81H21.3298V21.34Z" fill="white"/>
<path d="M22.8601 3.05005H21.3301V4.57005H22.8601V3.05005Z" fill="white"/>
<path d="M18.29 9.15003H19.81V3.05003H21.33V1.53003H18.29V9.15003Z" fill="white"/>
<path d="M18.2902 9.1499H15.2402V10.6699H18.2902V9.1499Z" fill="white"/>
<path d="M12.1901 10.6699H7.62012V12.1899H12.1901V10.6699Z" fill="white"/>
<path d="M9.13961 4.57H7.61961V6.1H10.6696V1.53H13.7196V6.1H10.6696V7.62H12.1896V10.67H13.7196V9.15H15.2396V1.53H18.2896V0H6.09961V1.53H9.13961V4.57Z" fill="white"/>
<path d="M7.61961 9.1499H6.09961V10.6699H7.61961V9.1499Z" fill="white"/>
<path d="M7.6198 4.57003V3.05003H6.0998V1.53003H4.5698V3.05003H3.0498V4.57003H7.6198Z" fill="white"/>
<path d="M4.5698 15.24H3.0498V16.77H4.5698V15.24Z" fill="white"/>
<path d="M3.05027 12.1899H1.53027V15.2399H3.05027V12.1899Z" fill="white"/>
<path d="M3.05027 4.57007H1.53027V6.10007H3.05027V4.57007Z" fill="white"/>
<path d="M1.53 6.1001H0V12.1901H1.53V6.1001Z" fill="white"/>
</svg>
