<svg width="28" height="32" viewBox="0 0 28 32" fill="none" xmlns="http://www.w3.org/2000/svg">
<path d="M27.4304 7.62012H25.9004V19.8101H27.4304V7.62012Z" fill="white"/>
<path d="M25.8999 19.8101H24.3799V24.3801H25.8999V19.8101Z" fill="white"/>
<path d="M22.8598 27.4299H9.13984V24.3799H7.61484V27.4299H6.08984V31.9999H25.8998V27.4299H24.3798V24.3799H22.8598V27.4299ZM22.8598 30.4799H19.8148V28.9499H22.8648L22.8598 30.4799Z" fill="white"/>
<path d="M21.3301 13.7101H22.8601V7.62007H25.9001V6.10007H22.8601V4.57007H21.3301V13.7101Z" fill="white"/>
<path d="M16.7598 13.71H18.2798V4.57002H21.3298V3.05002H18.2798V1.52002H16.7598V13.71Z" fill="white"/>
<path d="M16.7602 18.29H15.2402V21.33H16.7602V18.29Z" fill="white"/>
<path d="M16.76 0H13.71V1.52H16.76V0Z" fill="white"/>
<path d="M15.24 16.76H13.71V18.29H15.24V16.76Z" fill="white"/>
<path d="M12.1896 13.71H13.7096V1.52002H9.13965V3.05002H12.1896V13.71Z" fill="white"/>
<path d="M13.7096 15.24H9.13965V16.76H13.7096V15.24Z" fill="white"/>
<path d="M7.61984 21.3301H6.08984V24.3801H7.61984V21.3301Z" fill="white"/>
<path d="M9.13984 15.24V3.05005H7.61984V13.71H6.08984V15.24H9.13984Z" fill="white"/>
<path d="M6.09031 19.8101H4.57031V21.3301H6.09031V19.8101Z" fill="white"/>
<path d="M6.09031 12.1899H4.57031V13.7099H6.09031V12.1899Z" fill="white"/>
<path d="M4.5698 18.29H3.0498V19.81H4.5698V18.29Z" fill="white"/>
<path d="M4.56953 10.6699H1.51953V12.1899H4.56953V10.6699Z" fill="white"/>
<path d="M3.04953 16.76H1.51953V18.29H3.04953V16.76Z" fill="white"/>
<path d="M1.52 12.1899H0V16.7599H1.52V12.1899Z" fill="white"/>
</svg>
