<svg width="29" height="32" viewBox="0 0 29 32" fill="none" xmlns="http://www.w3.org/2000/svg">
<path d="M22.8498 9.1499V10.6699H21.3298V12.1899H22.8498V27.4299H19.7998V28.9499H22.8498V30.4799H28.9498V9.1499H22.8498ZM25.8998 15.2399H24.3798V12.1899H25.8998V15.2399Z" fill="white"/>
<path d="M21.3298 9.1499H19.7998V10.6699H21.3298V9.1499Z" fill="white"/>
<path d="M19.8003 7.62012H18.2803V9.15012H19.8003V7.62012Z" fill="white"/>
<path d="M19.8003 28.95H18.2803V30.4799H19.8003V28.95Z" fill="white"/>
<path d="M18.2798 1.53003H16.7598V7.62003H18.2798V1.53003Z" fill="white"/>
<path d="M16.76 0H13.71V1.53H16.76V0Z" fill="white"/>
<path d="M18.2803 30.48H4.57031V32H18.2803V30.48Z" fill="white"/>
<path d="M15.23 10.6699H13.71V12.1899H15.23V10.6699Z" fill="white"/>
<path d="M13.7104 1.53003H12.1904V3.05003H13.7104V1.53003Z" fill="white"/>
<path d="M13.7104 9.1499H12.1904V10.6699H13.7104V9.1499Z" fill="white"/>
<path d="M12.1902 3.05005H10.6602V9.15005H12.1902V3.05005Z" fill="white"/>
<path d="M13.71 12.1899H3.04004V13.7199H13.71V12.1899Z" fill="white"/>
<path d="M9.13953 27.4299V25.9099H1.51953V28.9499H3.03953V27.4299H9.13953Z" fill="white"/>
<path d="M4.57004 28.95H3.04004V30.4799H4.57004V28.95Z" fill="white"/>
<path d="M3.03953 13.72H1.51953V15.24H3.03953V13.72Z" fill="white"/>
<path d="M7.61 22.86V21.34H1.52V18.29H7.61V16.76H1.52V15.24H0V25.91H1.52V22.86H7.61Z" fill="white"/>
</svg>
