<svg width="25" height="29" viewBox="0 0 25 29" fill="none" xmlns="http://www.w3.org/2000/svg">
<path d="M24.3804 1.53003H22.8604V21.34H24.3804V1.53003Z" fill="white"/>
<path d="M21.3398 24.3801H6.0998V22.8601H4.5698V24.3801H3.0498V28.9501H24.3798V24.3801H22.8598V21.3401H21.3398V24.3801ZM21.3398 27.4301H18.2898V25.9101H21.3398V27.4301Z" fill="white"/>
<path d="M22.8596 0H19.8096V1.53H22.8596V0Z" fill="white"/>
<path d="M18.2902 15.24H15.2402V16.76H18.2902V15.24Z" fill="white"/>
<path d="M12.1901 16.76H7.62012V18.29H12.1901V16.76Z" fill="white"/>
<path d="M9.13961 10.67H7.61961V12.19H10.6696V7.62003H13.7196V12.19H10.6696V13.72H12.1896V16.76H13.7196V15.24H15.2396V7.62003H18.2896V15.24H19.8096V1.53003H18.2896V6.10003H6.09961V7.62003H9.13961V10.67Z" fill="white"/>
<path d="M7.61961 15.24H6.09961V16.76H7.61961V15.24Z" fill="white"/>
<path d="M7.6198 10.6701V9.14012H6.0998V7.62012H4.5698V9.14012H3.0498V10.6701H7.6198Z" fill="white"/>
<path d="M4.5698 21.3401H3.0498V22.8601H4.5698V21.3401Z" fill="white"/>
<path d="M3.05027 18.29H1.53027V21.34H3.05027V18.29Z" fill="white"/>
<path d="M3.05027 10.6699H1.53027V12.1899H3.05027V10.6699Z" fill="white"/>
<path d="M1.53 12.1899H0V18.2899H1.53V12.1899Z" fill="white"/>
</svg>
