<svg width="26" height="32" viewBox="0 0 26 32" fill="none" xmlns="http://www.w3.org/2000/svg">
<path d="M25.8999 16.76H24.3799V21.33H25.8999V16.76Z" fill="white"/>
<path d="M25.8999 12.1899H24.3799V15.2399H25.8999V12.1899Z" fill="white"/>
<path d="M24.3796 21.3301H22.8496V24.3801H24.3796V21.3301Z" fill="white"/>
<path d="M24.3796 10.6699H22.8496V12.1899H24.3796V10.6699Z" fill="white"/>
<path d="M22.8501 24.3799H21.3301V25.9099H22.8501V24.3799Z" fill="white"/>
<path d="M24.3801 15.24H21.3301V16.76H24.3801V15.24Z" fill="white"/>
<path d="M22.8501 9.13989H21.3301V10.6699H22.8501V9.13989Z" fill="white"/>
<path d="M19.7995 27.4299H4.56953V25.9099H3.03953V27.4299H1.51953V31.9999H22.8495V27.4299H21.3295V25.9099H19.7995V27.4299ZM19.7995 30.4799H16.7595V28.9499H19.7995V30.4799Z" fill="white"/>
<path d="M21.3298 16.76H19.7998V19.81H21.3298V16.76Z" fill="white"/>
<path d="M21.3298 13.71H19.7998V15.24H21.3298V13.71Z" fill="white"/>
<path d="M19.7998 12.1899H16.7598V13.7099H19.7998V12.1899Z" fill="white"/>
<path d="M19.8005 19.8101H15.2305V21.3301H19.8005V19.8101Z" fill="white"/>
<path d="M21.3305 7.62012H15.2305V9.14012H21.3305V7.62012Z" fill="white"/>
<path d="M16.7605 13.71H15.2305V15.24H16.7605V13.71Z" fill="white"/>
<path d="M15.23 15.24H13.71V19.81H15.23V15.24Z" fill="white"/>
<path d="M15.23 9.13989H13.71V10.6699H15.23V9.13989Z" fill="white"/>
<path d="M10.6602 13.71H12.1902V12.19H13.7102V10.67H12.1902V1.52002H10.6602V13.71Z" fill="white"/>
<path d="M10.6596 13.71H9.13965V16.76H10.6596V13.71Z" fill="white"/>
<path d="M10.6604 0H7.61035V1.52H10.6604V0Z" fill="white"/>
<path d="M7.60984 13.71H6.08984V16.76H7.60984V13.71Z" fill="white"/>
<path d="M7.60984 1.52002H6.08984V12.19H7.60984V1.52002Z" fill="white"/>
<path d="M6.09031 0H4.57031V1.52H6.09031V0Z" fill="white"/>
<path d="M4.57004 15.24H3.04004V18.29H4.57004V15.24Z" fill="white"/>
<path d="M3.03953 13.71H4.56953V1.52002H3.03953V4.57002H1.51953V6.10002H3.03953V13.71Z" fill="white"/>
<path d="M3.03953 22.8601H1.51953V25.9101H3.03953V22.8601Z" fill="white"/>
<path d="M1.52 6.1001H0V22.8601H1.52V6.1001Z" fill="white"/>
</svg>
