<svg width="28" height="32" viewBox="0 0 28 32" fill="none" xmlns="http://www.w3.org/2000/svg">
<path d="M27.4204 13.71H25.9004V24.38H27.4204V13.71Z" fill="white"/>
<path d="M24.3798 27.4299H9.13984V25.9099H7.60984V27.4299H6.08984V31.9999H27.4198V27.4299H25.8998V24.3799H24.3798V27.4299ZM24.3798 30.4799H21.3298V28.9499H24.3798V30.4799Z" fill="white"/>
<path d="M25.8999 12.1899H24.3799V13.7099H25.8999V12.1899Z" fill="white"/>
<path d="M22.8501 13.71H21.3301V18.29H22.8501V13.71Z" fill="white"/>
<path d="M24.3801 10.6699H21.3301V12.1899H24.3801V10.6699Z" fill="white"/>
<path d="M19.8003 4.57007H18.2803V6.10007H19.8003V4.57007Z" fill="white"/>
<path d="M19.7998 4.57H21.3298V0H16.7598V1.52H19.7998V4.57Z" fill="white"/>
<path d="M18.2798 13.71H16.7598V18.29H18.2798V13.71Z" fill="white"/>
<path d="M18.2798 6.1001H16.7598V7.6201H18.2798V6.1001Z" fill="white"/>
<path d="M18.2798 3.05005H16.7598V4.57005H18.2798V3.05005Z" fill="white"/>
<path d="M16.7605 1.52002H15.2305V3.05002H16.7605V1.52002Z" fill="white"/>
<path d="M15.23 3.05005H13.71V4.57005H15.23V3.05005Z" fill="white"/>
<path d="M13.7104 13.71H12.1904V18.29H13.7104V13.71Z" fill="white"/>
<path d="M12.1896 10.6701H21.3296V9.14007H16.7596V7.62007H15.2296V9.14007H13.7096V4.57007H9.13965V6.10007H12.1896V10.6701Z" fill="white"/>
<path d="M7.60984 15.2401H6.08984V16.7601H7.60984V19.8101H9.13984V6.1001H7.60984V9.1401H6.08984V10.6701H7.60984V15.2401Z" fill="white"/>
<path d="M7.60984 24.3799H6.08984V25.9099H7.60984V24.3799Z" fill="white"/>
<path d="M6.09031 21.3301H4.57031V24.3801H6.09031V21.3301Z" fill="white"/>
<path d="M6.09031 16.76H4.57031V18.29H6.09031V16.76Z" fill="white"/>
<path d="M6.09031 10.6699H4.57031V12.1899H6.09031V10.6699Z" fill="white"/>
<path d="M4.57004 18.29H3.04004V21.33H4.57004V18.29Z" fill="white"/>
<path d="M4.57004 12.1899H3.04004V13.7099H4.57004V12.1899Z" fill="white"/>
<path d="M3.03953 16.76H1.51953V18.29H3.03953V16.76Z" fill="white"/>
<path d="M3.03953 13.71H1.51953V15.24H3.03953V13.71Z" fill="white"/>
<path d="M1.52 15.24H0V16.76H1.52V15.24Z" fill="white"/>
</svg>
