<svg width="25" height="32" viewBox="0 0 25 32" fill="none" xmlns="http://www.w3.org/2000/svg">
<path d="M24.3804 13.71H22.8604V24.38H24.3804V13.71Z" fill="white"/>
<path d="M21.3298 27.4299H6.0998V25.9099H4.5698V27.4299H3.0498V31.9999H24.3798V27.4299H22.8598V24.3799H21.3298V27.4299ZM21.3298 30.4799H18.2898V28.9499H21.3298V30.4799Z" fill="white"/>
<path d="M22.8601 12.1899H21.3301V13.7099H22.8601V12.1899Z" fill="white"/>
<path d="M19.81 13.71H18.29V18.29H19.81V13.71Z" fill="white"/>
<path d="M21.33 10.6699H18.29V12.1899H21.33V10.6699Z" fill="white"/>
<path d="M15.2397 13.71H13.7197V18.29H15.2397V13.71Z" fill="white"/>
<path d="M10.6696 13.71H9.13965V18.29H10.6696V13.71Z" fill="white"/>
<path d="M9.13965 10.67H18.2896V9.14002H10.6696V1.52002H9.13965V10.67Z" fill="white"/>
<path d="M9.13961 0H6.09961V1.52H9.13961V0Z" fill="white"/>
<path d="M4.5698 19.81H6.0998V1.52002H4.5698V12.19H3.0498V13.71H4.5698V19.81Z" fill="white"/>
<path d="M4.5698 24.3799H3.0498V25.9099H4.5698V24.3799Z" fill="white"/>
<path d="M3.05027 21.3301H1.53027V24.3801H3.05027V21.3301Z" fill="white"/>
<path d="M3.05027 13.71H1.53027V15.24H3.05027V13.71Z" fill="white"/>
<path d="M1.53 15.24H0V21.33H1.53V15.24Z" fill="white"/>
</svg>
