<svg width="31" height="33" viewBox="0 0 31 33" fill="none" xmlns="http://www.w3.org/2000/svg">
<g filter="url(#filter0_d_1677_6589)">
<path d="M3.44444 0H27.5556V3.44444H3.44444V0Z" fill="#F52828"/>
<path d="M3.44444 27.5555L0 27.5556V3.44444H3.44444L3.44444 27.5555Z" fill="#F52828"/>
<path fill-rule="evenodd" clip-rule="evenodd" d="M27.5556 27.5556L3.44444 27.5555L3.44444 31L27.5556 31V27.5556ZM27.5556 27.5556H31L31 3.44444L27.5556 3.44444V27.5556Z" fill="#F52828"/>
<path d="M27.5556 3.44444H3.44444L3.44444 27.5555L27.5556 27.5556V3.44444Z" fill="#4B0808"/>
</g>
<g filter="url(#filter1_d_1677_6589)">
<path d="M7 24H10.6L10.6 20.4L14.2 20.4V16.8L17.8 16.8V20.4H21.4V24H25V20.4H21.4V16.8H17.8L17.8 13.2L14.2 13.2V9.60001L10.6 9.60001L10.6 6.00001L7 6.00001L7 9.60001L10.6 9.60001L10.6 13.2L14.2 13.2L14.2 16.8H10.6L10.6 20.4H7L7 24Z" fill="#F52828"/>
<path d="M25 9.6L21.4 9.6V6L25 6V9.6Z" fill="#F52828"/>
<path d="M21.4 9.6L17.8 9.6V13.2L21.4 13.2V9.6Z" fill="#F52828"/>
</g>
<defs>
<filter id="filter0_d_1677_6589" x="0" y="0" width="31" height="33" filterUnits="userSpaceOnUse" color-interpolation-filters="sRGB">
<feFlood flood-opacity="0" result="BackgroundImageFix"/>
<feColorMatrix in="SourceAlpha" type="matrix" values="0 0 0 0 0 0 0 0 0 0 0 0 0 0 0 0 0 0 127 0" result="hardAlpha"/>
<feOffset dy="2"/>
<feComposite in2="hardAlpha" operator="out"/>
<feColorMatrix type="matrix" values="0 0 0 0 0.627451 0 0 0 0 0.0588235 0 0 0 0 0.0588235 0 0 0 1 0"/>
<feBlend mode="normal" in2="BackgroundImageFix" result="effect1_dropShadow_1677_6589"/>
<feBlend mode="normal" in="SourceGraphic" in2="effect1_dropShadow_1677_6589" result="shape"/>
</filter>
<filter id="filter1_d_1677_6589" x="7" y="6" width="18" height="20" filterUnits="userSpaceOnUse" color-interpolation-filters="sRGB">
<feFlood flood-opacity="0" result="BackgroundImageFix"/>
<feColorMatrix in="SourceAlpha" type="matrix" values="0 0 0 0 0 0 0 0 0 0 0 0 0 0 0 0 0 0 127 0" result="hardAlpha"/>
<feOffset dy="2"/>
<feComposite in2="hardAlpha" operator="out"/>
<feColorMatrix type="matrix" values="0 0 0 0 0.628205 0 0 0 0 0.0604043 0 0 0 0 0.0604043 0 0 0 1 0"/>
<feBlend mode="normal" in2="BackgroundImageFix" result="effect1_dropShadow_1677_6589"/>
<feBlend mode="normal" in="SourceGraphic" in2="effect1_dropShadow_1677_6589" result="shape"/>
</filter>
</defs>
</svg>
