<svg width="241" height="49" viewBox="0 0 241 49" fill="none" xmlns="http://www.w3.org/2000/svg">
<path d="M240.281 47.8126V43.0626H235.531V28.7813H230.75V43.0626H226V47.8126H240.281Z" fill="#414141"/>
<path d="M230.75 24H226V28.7812H230.75V24Z" fill="#414141"/>
<path d="M226 24V19L119.807 19.0625V4.78125H124.579V0H110.233V4.78125H115.004V19.0625L14 19.5V24L115.004 23.8125H119.807L226 24Z" fill="#414141"/>
<path d="M14.2815 24H9.53149V28.7812H14.2815V24Z" fill="#414141"/>
<path d="M4.75 43.0626H0V47.8126H14.2813V43.0626H9.53125V28.7813H4.75V43.0626Z" fill="#414141"/>
<path d="M114.75 43.2813H110V48.0313H124.281V43.2813H119.531V23.5H114.75V43.2813Z" fill="#414141"/>
</svg>
