<svg width="35" height="37" viewBox="0 0 35 37" fill="none" xmlns="http://www.w3.org/2000/svg">
<g filter="url(#filter0_d_1677_6590)">
<path d="M3.88889 0H31.1111V3.88889H3.88889V0Z" fill="#5BCD6D"/>
<path d="M3.88889 31.1111L0 31.1111V3.88889H3.88889L3.88889 31.1111Z" fill="#5BCD6D"/>
<path fill-rule="evenodd" clip-rule="evenodd" d="M31.1111 31.1111L3.88889 31.1111L3.88889 35L31.1111 35V31.1111ZM31.1111 31.1111H35L35 3.88889L31.1111 3.88889V31.1111Z" fill="#5BCD6D"/>
<path d="M31.1111 3.88889H3.88889L3.88889 31.1111L31.1111 31.1111V3.88889Z" fill="#101F13"/>
</g>
<path d="M15.9167 27H19.0833L19.0833 19.0833H27V15.9167L19.0833 15.9167L19.0833 8L15.9167 8L15.9167 15.9167L8 15.9167L8 19.0833L15.9167 19.0833L15.9167 27Z" fill="#5BCD6D"/>
<defs>
<filter id="filter0_d_1677_6590" x="0" y="0" width="35" height="37" filterUnits="userSpaceOnUse" color-interpolation-filters="sRGB">
<feFlood flood-opacity="0" result="BackgroundImageFix"/>
<feColorMatrix in="SourceAlpha" type="matrix" values="0 0 0 0 0 0 0 0 0 0 0 0 0 0 0 0 0 0 127 0" result="hardAlpha"/>
<feOffset dy="2"/>
<feComposite in2="hardAlpha" operator="out"/>
<feColorMatrix type="matrix" values="0 0 0 0 0.174515 0 0 0 0 0.397436 0 0 0 0 0.209713 0 0 0 1 0"/>
<feBlend mode="normal" in2="BackgroundImageFix" result="effect1_dropShadow_1677_6590"/>
<feBlend mode="normal" in="SourceGraphic" in2="effect1_dropShadow_1677_6590" result="shape"/>
</filter>
</defs>
</svg>
