<svg width="156" height="97" viewBox="0 0 156 97" fill="none" xmlns="http://www.w3.org/2000/svg">
<path d="M148.588 44.8031V29.8688H155.998V22.3771H141.129V29.8688H133.719V37.3115H126.309V44.8031H118.851V22.3771H111.441V7.49167H103.982V22.3771H96.5723V37.3115H89.1624V29.8688H81.7038V14.9344H89.1624V0H74.2939V7.49167H66.884V14.9344H59.4253V29.8688H52.0155V37.3115H44.5568V22.3771H37.1469V14.9344H29.737V7.49167H14.8685V14.9344H22.2784V37.3115H14.8685V52.2458H22.2784V59.6885H7.40989V52.2458H0V74.6229H7.40989V89.5573H14.8685V82.1146H22.2784V67.1802H29.737V37.3115H37.1469V44.8031H44.5568V52.2458H59.4253V44.8031H66.884V29.8688H74.2939V44.8031H103.982V37.3115H111.441V59.6885H126.309V82.1146H133.719V97H141.129V82.1146H148.588V59.6885H141.129V44.8031H148.588Z" fill="#F52828"/>
<path d="M156 52.2461H148.59V59.6888H156V52.2461Z" fill="#F34100"/>
<path d="M141.129 7.49182H133.719V14.9345H141.129V7.49182Z" fill="#F34100"/>
<path d="M133.719 14.9347H126.31V22.3774H133.719V14.9347Z" fill="#F34100"/>
<path d="M126.309 0H118.851V7.49167H126.309V0Z" fill="#F34100"/>
<path d="M52.0133 7.49182H44.5547V14.9345H52.0133V7.49182Z" fill="#F34100"/>
<path d="M44.5574 0H37.1475V7.49167H44.5574V0Z" fill="#F34100"/>
<path d="M14.8659 22.3768H7.40723V29.8685H14.8659V22.3768Z" fill="#F34100"/>
<path d="M7.40989 14.9347H0V22.3774H7.40989V14.9347Z" fill="#F34100"/>
</svg>
