<svg width="52" height="46" viewBox="0 0 52 46" fill="none" xmlns="http://www.w3.org/2000/svg">
<path d="M30.1041 5.4149H35.5826V8.11347H38.3128V10.8298H41.061V16.2447H43.7913V29.7553H41.061V35.1702H38.3128V37.8865H35.5826V40.5851H30.1041V43.2837H16.417V46H35.5826V43.2837H41.061V40.5851H43.7913V37.8865H46.5395V35.1702H49.2697V29.7553H52V16.2447H49.2697V10.8298H46.5395V8.11347H43.7913V5.4149H41.061V2.71633H35.5826V0H16.417V2.71633H30.1041V5.4149Z" fill="#FF6600"/>
<path d="M41.0588 16.243H38.3105V29.7537H41.0588V16.243Z" fill="#FF6600"/>
<path d="M38.3142 29.7559H35.584V32.4722H38.3142V29.7559Z" fill="#FF6600"/>
<path d="M38.3142 13.5315H35.584V16.2478H38.3142V13.5315Z" fill="#FF6600"/>
<path d="M35.5808 32.4745H32.8506V35.1731H35.5808V32.4745Z" fill="#FF6600"/>
<path d="M35.5808 10.8315H32.8506V13.5301H35.5808V10.8315Z" fill="#FF6600"/>
<path d="M32.8498 35.1692H30.1016V37.8855H32.8498V35.1692Z" fill="#FF6600"/>
<path d="M32.8498 8.11304H30.1016V10.8294H32.8498V8.11304Z" fill="#FF6600"/>
<path d="M30.1041 37.8872H16.417V40.5858H30.1041V37.8872Z" fill="#FF6600"/>
<path d="M30.1043 24.3558H27.374V29.753H30.1043V24.3558Z" fill="#FF6600"/>
<path d="M30.1043 16.2433H27.374V18.9419H30.1043V16.2433Z" fill="#FF6600"/>
<path d="M30.1041 5.41333H16.417V8.1119H30.1041V5.41333Z" fill="#FF6600"/>
<path d="M21.8953 32.4734V35.172H24.6255V32.4734H27.3737V29.7571H24.6255V24.3599H27.3737V21.6436H24.6255V16.2464H27.3737V13.5301H24.6255V10.8315H21.8953V13.5301H19.165V16.2464H21.8953V21.6436H19.165V24.3599H21.8953V29.7571H19.165V32.4734H21.8953Z" fill="#FF6600"/>
<path d="M19.1652 27.056H16.417V29.7546H19.1652V27.056Z" fill="#FF6600"/>
<path d="M19.1652 16.2446H16.417V21.6418H19.1652V16.2446Z" fill="#FF6600"/>
<path d="M16.4175 40.5874H10.957V43.286H16.4175V40.5874Z" fill="#FF6600"/>
<path d="M16.4168 35.1692H13.6865V37.8855H16.4168V35.1692Z" fill="#FF6600"/>
<path d="M16.4168 8.11304H13.6865V10.8294H16.4168V8.11304Z" fill="#FF6600"/>
<path d="M16.4175 2.71826H10.957V5.41683H16.4175V2.71826Z" fill="#FF6600"/>
<path d="M13.6873 32.4745H10.957V35.1731H13.6873V32.4745Z" fill="#FF6600"/>
<path d="M13.6873 10.8315H10.957V13.5301H13.6873V10.8315Z" fill="#FF6600"/>
<path d="M10.9591 37.8876H8.21094V40.5861H10.9591V37.8876Z" fill="#FF6600"/>
<path d="M10.9591 29.7559H8.21094V32.4722H10.9591V29.7559Z" fill="#FF6600"/>
<path d="M10.9591 13.5315H8.21094V16.2478H10.9591V13.5315Z" fill="#FF6600"/>
<path d="M10.9591 5.41333H8.21094V8.1119H10.9591V5.41333Z" fill="#FF6600"/>
<path d="M8.20876 35.1692H5.47852V37.8855H8.20876V35.1692Z" fill="#FF6600"/>
<path d="M8.21071 16.2446H5.48047V29.7552H8.21071V16.2446Z" fill="#FF6600"/>
<path d="M8.21071 8.11304H5.48047V10.8294H8.21071V8.11304Z" fill="#FF6600"/>
<path d="M5.47867 29.7559H2.73047V35.1708H5.47867V29.7559Z" fill="#FF6600"/>
<path d="M5.47867 10.8315H2.73047V16.2464H5.47867V10.8315Z" fill="#FF6600"/>
<path d="M2.73024 16.2433H0V29.7539H2.73024V16.2433Z" fill="#FF6600"/>
</svg>
