<svg width="49" height="36" viewBox="0 0 49 36" fill="none" xmlns="http://www.w3.org/2000/svg">
<path d="M40.2564 26.714L40.2228 24.0597L42.8946 24.0259L45.5494 24.0211L45.5152 21.3206L48.1696 21.2871L48.1024 15.9696L45.4479 15.9944L45.4817 18.6663L42.8273 18.6998L42.8609 21.3541L37.5347 21.4214L37.5685 24.0932L32.2423 24.1605L32.2759 26.8149L26.9497 26.8822L26.9833 29.5365L21.6746 29.6036L21.7083 32.2754L19.0365 32.3092L19.0028 29.6374L16.3484 29.6709L16.3149 27.0165L10.9887 27.0838L10.9552 24.4295L5.62905 24.4968L5.59529 21.825L2.94094 21.8585L2.90741 19.2042L0.235172 19.2042L0.302895 24.5641L2.9747 24.5303L3.00824 27.1847L5.66258 27.1511L8.33439 27.1174L8.36793 29.7717L13.6766 29.7046L13.7104 32.3765L16.3822 32.3427L16.4157 34.997L24.3962 34.8962L24.3627 32.2419L29.6888 32.1746L29.6551 29.5028L34.9638 29.4357L34.9302 26.7813L40.2564 26.714Z" fill="#634235"/>
<path d="M45.4479 15.9944L48.1024 15.9696L48.0352 10.6522L45.3809 10.6858L45.4144 13.3401L42.7601 13.3736L42.7936 16.028L45.4479 15.9944Z" fill="#CE8265"/>
<path d="M0.235172 19.2042L2.90741 19.2042L5.56175 19.1706L5.59529 21.825L10.9214 21.7577L10.9552 24.4295L16.2813 24.3622L16.3149 27.0165L26.9497 26.8822L26.9162 24.2278L32.2423 24.1605L32.2086 21.4887L37.5347 21.4214L37.5012 18.7671L42.8273 18.6998L42.7936 16.028L34.7956 16.129L34.8294 18.8008L29.5207 18.8679L29.5542 21.5223L24.2281 21.5896L24.2618 24.2614L18.9357 24.3287L18.9019 21.6569L13.5758 21.7242L13.5422 19.0698L8.23356 19.1369L8.1998 16.4651L2.87365 16.5324L2.84011 13.878L0.168303 13.9118L0.235172 19.2042Z" fill="#CE8265"/>
<path d="M42.7936 16.028L42.8273 18.6998L45.4817 18.6663L45.4479 15.9944L42.7936 16.028Z" fill="#8F5E4B"/>
<path d="M37.5012 18.7671L37.5347 21.4214L42.8609 21.3541L42.8273 18.6998L37.5012 18.7671Z" fill="#8F5E4B"/>
<path d="M32.2423 24.1605L37.5685 24.0932L37.5347 21.4214L32.2086 21.4887L32.2423 24.1605Z" fill="#8F5E4B"/>
<path d="M26.9497 26.8822L32.2759 26.8149L32.2423 24.1605L26.9162 24.2278L26.9497 26.8822Z" fill="#8F5E4B"/>
<path d="M21.6746 29.6036L26.9833 29.5365L26.9497 26.8822L16.3149 27.0165L16.3484 29.6709L19.0028 29.6374L19.0365 32.3092L21.7083 32.2754L21.6746 29.6036Z" fill="#8F5E4B"/>
<path d="M10.9552 24.4295L10.9887 27.0838L16.3149 27.0165L16.2813 24.3622L10.9552 24.4295Z" fill="#8F5E4B"/>
<path d="M5.59529 21.825L5.62905 24.4968L10.9552 24.4295L10.9214 21.7577L5.59529 21.825Z" fill="#8F5E4B"/>
<path d="M5.56175 19.1706L2.90741 19.2042L2.94094 21.8585L5.59529 21.825L5.56175 19.1706Z" fill="#8F5E4B"/>
<path d="M45.3467 8.014L40.0205 8.08129L40.0543 10.7531L45.3804 10.6858L45.3467 8.014Z" fill="#CE8265"/>
<path d="M39.9873 5.42696L34.6611 5.49426L34.6947 8.1486L40.0208 8.08131L39.9873 5.42696Z" fill="#CE8265"/>
<path d="M34.627 2.82245L29.3184 2.88952L29.3521 5.56133L34.6608 5.49425L34.627 2.82245Z" fill="#CE8265"/>
<path d="M29.2851 0.23519L23.959 0.302486L23.9925 2.95683L29.3187 2.88953L29.2851 0.23519Z" fill="#CE8265"/>
<path d="M23.9922 2.95687L18.666 3.02417L18.6998 5.69597L24.0259 5.62868L23.9922 2.95687Z" fill="#CE8265"/>
<path d="M18.6992 5.69588L13.373 5.76318L13.4066 8.41752L18.7327 8.35023L18.6992 5.69588Z" fill="#CE8265"/>
<path d="M16.2137 19.0361L26.8485 18.9017L26.8148 16.2299L32.1409 16.1626L32.1074 13.5082L37.4335 13.4409L37.4 10.7866L29.4195 10.8874L29.3857 8.21562L21.4052 8.31645L21.439 10.9883L16.1128 11.0556L16.1464 13.7099L10.8202 13.7772L10.8538 16.4315L16.1799 16.3642L16.2137 19.0361Z" fill="#CE8265"/>
<path d="M13.4073 8.41754L8.09863 8.48461L8.13239 11.1564L13.4411 11.0893L13.4073 8.41754Z" fill="#CE8265"/>
<path d="M8.13279 11.1565L2.80664 11.2238L2.84018 13.8781L8.16633 13.8108L8.13279 11.1565Z" fill="#CE8265"/>
</svg>
