<svg width="415" height="182" viewBox="0 0 415 182" fill="none" xmlns="http://www.w3.org/2000/svg">
<g filter="url(#filter0_n_2072_10852)">
<path d="M1 152.787V179.291H55.0656C175.211 182.689 285.846 179.971 410.998 179.971V125.605L413 29.1045C277.168 -7.77394 136.832 -8.65732 1 28.2211V101.819V152.787Z" fill="url(#paint0_linear_2072_10852)"/>
<path d="M1 152.787V179.291H55.0656C175.211 182.689 285.846 179.971 410.998 179.971V125.605L413 29.1045C277.168 -7.77394 136.832 -8.65732 1 28.2211V101.819V152.787Z" stroke="#2A140D" stroke-width="2"/>
</g>
<path d="M18 152.654V43.4402C142.333 4.18659 266.667 4.18659 391 43.4402V167" stroke="#A06A45" stroke-width="2" stroke-dasharray="4 6"/>
<defs>
<filter id="filter0_n_2072_10852" x="0" y="0" width="414.016" height="182" filterUnits="userSpaceOnUse" color-interpolation-filters="sRGB">
<feFlood flood-opacity="0" result="BackgroundImageFix"/>
<feBlend mode="normal" in="SourceGraphic" in2="BackgroundImageFix" result="shape"/>
<feTurbulence type="fractalNoise" baseFrequency="1.25 1.25" stitchTiles="stitch" numOctaves="3" result="noise" seed="4799" />
<feColorMatrix in="noise" type="luminanceToAlpha" result="alphaNoise" />
<feComponentTransfer in="alphaNoise" result="coloredNoise1">
<feFuncA type="discrete" tableValues="1 1 1 1 1 1 1 1 1 1 1 1 1 1 1 1 1 1 1 1 1 1 1 1 1 1 1 1 1 1 1 1 1 1 1 1 1 1 1 1 1 1 1 1 1 1 1 1 1 1 1 0 0 0 0 0 0 0 0 0 0 0 0 0 0 0 0 0 0 0 0 0 0 0 0 0 0 0 0 0 0 0 0 0 0 0 0 0 0 0 0 0 0 0 0 0 0 0 0 0 "/>
</feComponentTransfer>
<feComposite operator="in" in2="shape" in="coloredNoise1" result="noise1Clipped" />
<feFlood flood-color="rgba(0, 0, 0, 0.19)" result="color1Flood" />
<feComposite operator="in" in2="noise1Clipped" in="color1Flood" result="color1" />
<feMerge result="effect1_noise_2072_10852">
<feMergeNode in="shape" />
<feMergeNode in="color1" />
</feMerge>
</filter>
<linearGradient id="paint0_linear_2072_10852" x1="1" y1="0.562157" x2="1" y2="225.784" gradientUnits="userSpaceOnUse">
<stop stop-color="#6C3A27"/>
<stop offset="1" stop-color="#4A2518"/>
</linearGradient>
</defs>
</svg>
