<svg width="270" height="85" viewBox="0 0 270 85" fill="none" xmlns="http://www.w3.org/2000/svg">
<path d="M269.412 24.2089H263.38V54.4503H269.412V24.2089Z" fill="#5BCD6D"/>
<path d="M263.379 54.4503H257.307V66.5151H263.379V54.4503Z" fill="#5BCD6D"/>
<path d="M263.379 12.1041H257.307V24.2086H263.379V12.1041Z" fill="#5BCD6D"/>
<path d="M257.305 66.5153H251.272V78.6198H257.305V66.5153Z" fill="#5BCD6D"/>
<path d="M257.305 6.03247H251.272V12.1046H257.305V6.03247Z" fill="#5BCD6D"/>
<path d="M251.275 78.6195H245.203V84.6519H251.275V78.6195Z" fill="#5BCD6D"/>
<path d="M251.275 42.3461H245.203V54.4506H251.275V42.3461Z" fill="#5BCD6D"/>
<path d="M251.275 24.2089H245.203V36.2737H251.275V24.2089Z" fill="#5BCD6D"/>
<path d="M251.275 0H245.203V6.03241H251.275V0Z" fill="#5BCD6D"/>
<path d="M245.2 54.4503H239.168V60.4827H245.2V54.4503Z" fill="#5BCD6D"/>
<path d="M245.2 6.03247H239.168V24.2091H245.2V6.03247Z" fill="#5BCD6D"/>
<path d="M239.17 60.4828H233.138V66.5152H239.17V60.4828Z" fill="#5BCD6D"/>
<path d="M245.203 36.2738H233.138V42.3459H245.203V36.2738Z" fill="#5BCD6D"/>
<path d="M233.137 42.3461H227.064V48.3785H233.137V42.3461Z" fill="#5BCD6D"/>
<path d="M227.063 78.6195H221.03V84.6519H227.063V78.6195Z" fill="#5BCD6D"/>
<path d="M227.063 48.3781H221.03V54.4502H227.063V48.3781Z" fill="#5BCD6D"/>
<path d="M221.032 54.4503H215V78.6197H221.032V54.4503Z" fill="#5BCD6D"/>
<path d="M54.4123 54.4503H48.3799V78.6197H54.4123V54.4503Z" fill="#5BCD6D"/>
<path d="M48.3781 78.6195H42.3457V84.6519H48.3781V78.6195Z" fill="#5BCD6D"/>
<path d="M48.3781 48.3781H42.3457V54.4502H48.3781V48.3781Z" fill="#5BCD6D"/>
<path d="M42.3446 42.3461H36.2725V48.3785H42.3446V42.3461Z" fill="#5BCD6D"/>
<path d="M36.2746 60.4828H30.2422V66.5152H36.2746V60.4828Z" fill="#5BCD6D"/>
<path d="M36.2719 36.2738H24.207V42.3459H36.2719V36.2738Z" fill="#5BCD6D"/>
<path d="M30.2394 54.4503H24.207V60.4827H30.2394V54.4503Z" fill="#5BCD6D"/>
<path d="M30.2394 6.03247H24.207V24.2091H30.2394V6.03247Z" fill="#5BCD6D"/>
<path d="M24.2098 78.6195H18.1377V84.6519H24.2098V78.6195Z" fill="#5BCD6D"/>
<path d="M24.2098 42.3461H18.1377V54.4506H24.2098V42.3461Z" fill="#5BCD6D"/>
<path d="M24.2098 24.2089H18.1377V36.2737H24.2098V24.2089Z" fill="#5BCD6D"/>
<path d="M24.2098 0H18.1377V6.03241H24.2098V0Z" fill="#5BCD6D"/>
<path d="M18.1359 66.5153H12.1035V78.6198H18.1359V66.5153Z" fill="#5BCD6D"/>
<path d="M18.1359 6.03247H12.1035V12.1046H18.1359V6.03247Z" fill="#5BCD6D"/>
<path d="M12.1024 54.4503H6.03027V66.5151H12.1024V54.4503Z" fill="#5BCD6D"/>
<path d="M12.1024 12.1041H6.03027V24.2086H12.1024V12.1041Z" fill="#5BCD6D"/>
<path d="M6.03241 24.2089H0V54.4503H6.03241V24.2089Z" fill="#5BCD6D"/>
</svg>
