<svg width="42" height="41" viewBox="0 0 42 41" fill="none" xmlns="http://www.w3.org/2000/svg">
<path d="M39.9919 15.6184V11.7106H37.9969V7.81562H36.0019V5.85531H33.9937V3.90781H30.0037V1.96031H26.0006V0H15.9994V1.96031H11.9963V3.90781H7.99312V5.85531H5.99813V7.81562H4.00312V11.7106H1.995V15.6184H0V25.3816H1.995V29.2894H4.00312V33.1972H5.99813V35.1447H7.99312V37.0922H11.9963V39.0525H15.9994V41H26.0006V39.0525H30.0037V37.0922H33.9937V35.1447H36.0019V33.1972H37.9969V29.2894H39.9919V25.3816H42V15.6184H39.9919ZM23.9925 7.81562H27.9956V9.76312H30.0037V11.7106H31.9987V13.6709H33.9937V17.5788H31.9987V13.6709H30.0037V11.7106H27.9956V9.76312H23.9925V7.81562ZM33.9937 21.4738V25.3816H31.9987V27.3291H30.0037V29.2894H27.9956V31.2369H26.0006V33.1972H21.9975V31.2369H26.0006V29.2894H27.9956V27.3291H30.0037V25.3816H31.9987V21.4738H33.9937ZM5.99813 13.6709V19.5262H4.00312V13.6709H5.99813V11.7106H7.99312V9.76312H10.0013V7.81562H11.9963V5.85531H14.0044V3.90781H20.0025V5.85531H14.0044V7.81562H11.9963V9.76312H10.0013V11.7106H7.99312V13.6709H5.99813ZM20.0025 7.81562V9.76312H15.9994V11.7106H14.0044V13.6709H11.9963V15.6184H10.0013V19.5262H7.99312V15.6184H10.0013V13.6709H11.9963V11.7106H14.0044V9.76312H15.9994V7.81562H20.0025ZM17.9944 33.1972H14.0044V31.2369H11.9963V29.2894H10.0013V27.3291H7.99312V23.4341H10.0013V27.3291H11.9963V29.2894H14.0044V31.2369H17.9944V33.1972ZM15.9994 23.4341V17.5788H17.9944V15.6184H23.9925V17.5788H26.0006V23.4341H23.9925V25.3816H17.9944V23.4341H15.9994ZM37.9969 27.3291H36.0019V29.2894H33.9937V31.2369H31.9987V33.1972H30.0037V35.1447H27.9956V37.0922H21.9975V35.1447H27.9956V33.1972H30.0037V31.2369H31.9987V29.2894H33.9937V27.3291H36.0019V21.4738H37.9969V27.3291Z" fill="#B97359"/>
</svg>
