<svg width="61" height="66" viewBox="0 0 61 66" fill="none" xmlns="http://www.w3.org/2000/svg">
<g filter="url(#filter0_d_1447_6214)">
<path fill-rule="evenodd" clip-rule="evenodd" d="M6.77778 0H54.2222V6.88889H61V55.1111H54.2222V62H6.77778V55.1111H0V6.88889H6.77778V0Z" fill="#033551"/>
</g>
<path d="M54 7V12L7 12L7 7L54 7Z" fill="#045C8D"/>
<path fill-rule="evenodd" clip-rule="evenodd" d="M54.2222 0H6.77778V6.88889H0V55.1111H6.77778V62L54.2222 62V55.1111H61L61 6.88889L54.2222 6.88889V0ZM54.2222 6.88889V55.1111H6.77778V6.88889H54.2222Z" fill="#0097EA"/>
<g filter="url(#filter1_d_1447_6214)">
<path d="M48 22.7188H45.1406V24.1437H48V22.7188Z" fill="#0097EA"/>
<path d="M46.5656 27.0032H45.1406V28.4282H46.5656V27.0032Z" fill="#0097EA"/>
<path d="M46.5656 18.425H45.1406V19.8594H46.5656V18.425Z" fill="#0097EA"/>
<path d="M45.1404 25.5687H43.7061V27.0031H45.1404V25.5687Z" fill="#0097EA"/>
<path d="M45.1404 19.8595H43.7061V21.2845H45.1404V19.8595Z" fill="#0097EA"/>
<path d="M42.2809 22.7188H40.856V25.5687H42.2809V22.7188Z" fill="#0097EA"/>
<path d="M42.2809 17H40.856V19.8593H42.2809V17Z" fill="#0097EA"/>
<path d="M40.8557 25.5687H36.562V27.0031H40.8557V25.5687Z" fill="#0097EA"/>
<path d="M39.4216 19.8595H37.9966V21.2845H39.4216V19.8595Z" fill="#0097EA"/>
<path d="M37.9964 18.425H36.562V19.8594H37.9964V18.425Z" fill="#0097EA"/>
<path d="M36.5622 24.1437H35.1372V25.5687H36.5622V24.1437Z" fill="#0097EA"/>
<path d="M35.1369 22.7188H33.7119V24.1437H35.1369V22.7188Z" fill="#0097EA"/>
<path d="M33.7121 21.2843H29.4277V22.7187H33.7121V21.2843Z" fill="#0097EA"/>
<path d="M27.9936 25.5687H25.1343V28.4281H22.2843V29.8531H20.85V31.2874H19.425V34.1468H18V39.8561H19.425V42.7154H20.85V44.1404H22.2843V45.5748H25.1343V46.9998H32.278V45.5748H35.1373V44.1404H36.5623V42.7154H37.9967V39.8561H39.4217V34.1468H37.9967V31.2874H36.5623V29.8531H35.1373V28.4281H32.278V25.5687H29.428V22.7188H27.9936V25.5687ZM32.278 31.2874H33.7123V32.7124H35.1373V34.1468H36.5623V39.8561H35.1373V34.1468H33.7123V32.7124H32.278V31.2874ZM32.278 41.2811H33.7123V42.7154H32.278V41.2811Z" fill="#0097EA"/>
</g>
<defs>
<filter id="filter0_d_1447_6214" x="0" y="0" width="61" height="66" filterUnits="userSpaceOnUse" color-interpolation-filters="sRGB">
<feFlood flood-opacity="0" result="BackgroundImageFix"/>
<feColorMatrix in="SourceAlpha" type="matrix" values="0 0 0 0 0 0 0 0 0 0 0 0 0 0 0 0 0 0 127 0" result="hardAlpha"/>
<feOffset dy="4"/>
<feComposite in2="hardAlpha" operator="out"/>
<feColorMatrix type="matrix" values="0 0 0 0 0.0117647 0 0 0 0 0.247059 0 0 0 0 0.380392 0 0 0 1 0"/>
<feBlend mode="normal" in2="BackgroundImageFix" result="effect1_dropShadow_1447_6214"/>
<feBlend mode="normal" in="SourceGraphic" in2="effect1_dropShadow_1447_6214" result="shape"/>
</filter>
<filter id="filter1_d_1447_6214" x="18" y="17" width="30" height="30.9998" filterUnits="userSpaceOnUse" color-interpolation-filters="sRGB">
<feFlood flood-opacity="0" result="BackgroundImageFix"/>
<feColorMatrix in="SourceAlpha" type="matrix" values="0 0 0 0 0 0 0 0 0 0 0 0 0 0 0 0 0 0 127 0" result="hardAlpha"/>
<feOffset dy="1"/>
<feComposite in2="hardAlpha" operator="out"/>
<feColorMatrix type="matrix" values="0 0 0 0 0 0 0 0 0 0 0 0 0 0 0 0 0 0 1 0"/>
<feBlend mode="normal" in2="BackgroundImageFix" result="effect1_dropShadow_1447_6214"/>
<feBlend mode="normal" in="SourceGraphic" in2="effect1_dropShadow_1447_6214" result="shape"/>
</filter>
</defs>
</svg>
