<svg width="67" height="70" viewBox="0 0 67 70" fill="none" xmlns="http://www.w3.org/2000/svg">
<g filter="url(#filter0_d_701_4263)">
<path d="M67 67H59.5555V59.5556H67V67Z" fill="#FF0000"/>
<path d="M52.1111 52.1111H59.5555V59.5556H52.1111V52.1111Z" fill="#FF0000"/>
<path d="M44.6667 44.6667H52.1111L52.1111 52.1111H44.6667V44.6667Z" fill="#FF0000"/>
<path d="M37.2222 37.2222H44.6667V44.6667H37.2222V37.2222Z" fill="#FF0000"/>
<path fill-rule="evenodd" clip-rule="evenodd" d="M22.3333 44.6667V37.2222H29.7778V44.6667H22.3333ZM29.7778 37.2222H37.2222V29.7778H29.7778V22.3333H22.3333L22.3333 14.8889H14.8889V7.44446L7.44445 7.44446L7.44445 2.38426e-05L5.85732e-06 2.31918e-05L5.20651e-06 7.44446L7.44445 7.44446L7.44445 14.8889L14.8889 14.8889L14.8889 22.3333L22.3333 22.3333V29.7778L29.7778 29.7778V37.2222Z" fill="#FF0000"/>
<path fill-rule="evenodd" clip-rule="evenodd" d="M14.8889 52.1111L14.8889 59.5556H7.44444V52.1111L14.8889 52.1111ZM14.8889 52.1111V44.6667L22.3333 44.6667V52.1111H14.8889Z" fill="#FF0000"/>
<path fill-rule="evenodd" clip-rule="evenodd" d="M59.5556 14.8889L52.1111 14.8889V7.44444L59.5556 7.44444V14.8889ZM59.5556 7.44444V0L67 6.50814e-07V7.44444L59.5556 7.44444Z" fill="#FF0000"/>
<path d="M44.6667 22.3333V14.8889L52.1111 14.8889V22.3333L44.6667 22.3333Z" fill="#FF0000"/>
<path d="M44.6667 22.3333L37.2222 22.3333V29.7778L44.6667 29.7778V22.3333Z" fill="#FF0000"/>
<path d="M0 67H7.44444L7.44444 59.5556H6.50814e-07L0 67Z" fill="#FF0000"/>
</g>
<defs>
<filter id="filter0_d_701_4263" x="0" y="0" width="67" height="70" filterUnits="userSpaceOnUse" color-interpolation-filters="sRGB">
<feFlood flood-opacity="0" result="BackgroundImageFix"/>
<feColorMatrix in="SourceAlpha" type="matrix" values="0 0 0 0 0 0 0 0 0 0 0 0 0 0 0 0 0 0 127 0" result="hardAlpha"/>
<feOffset dy="3"/>
<feComposite in2="hardAlpha" operator="out"/>
<feColorMatrix type="matrix" values="0 0 0 0 0.298077 0 0 0 0 0 0 0 0 0 0 0 0 0 1 0"/>
<feBlend mode="normal" in2="BackgroundImageFix" result="effect1_dropShadow_701_4263"/>
<feBlend mode="normal" in="SourceGraphic" in2="effect1_dropShadow_701_4263" result="shape"/>
</filter>
</defs>
</svg>
