<svg width="45" height="45" viewBox="0 0 45 45" fill="none" xmlns="http://www.w3.org/2000/svg">
<path d="M8 26.125H9.875V28H21.125V26.125H23V24.25H24.875V13H23V11.125H21.125V9.25H9.875V11.125H8V13H6.125V24.25H8V26.125ZM9.875 16.75H11.75V14.875H13.625V13H17.375V14.875H19.25V16.75H21.125V20.5H19.25V22.375H17.375V24.25H13.625V22.375H11.75V20.5H9.875V16.75Z" fill="#5ACD6D"/>
<path d="M26.75 31.75H24.875V29.875H4.25V31.75H2.375V33.625H0.5V43H4.25V37.375H6.125V35.5H8V33.625H21.125V35.5H23V37.375H24.875V43H28.625V33.625H26.75V31.75Z" fill="#5ACD6D"/>
<path d="M30.5 26.125H32.375V24.25H34.25V13H32.375V11.125H30.5V9.25H28.625H26.75V14.875H28.625V16.75H30.5V18.625V20.5H28.625V22.375H26.75V28H30.5V26.125Z" fill="#5ACD6D"/>
<path d="M36.125 33.625V31.75H34.25V29.875H30.5V35.5H32.375V37.375H34.25V43H38V33.625H36.125Z" fill="#5ACD6D"/>
</svg>
