<svg width="41" height="41" viewBox="0 0 41 41" fill="none" xmlns="http://www.w3.org/2000/svg">
<path d="M24.1104 16.125H24.1123V13.4375H24.1104V16.125ZM26.792 37.624H24.1123V34.9365H26.792V37.624ZM18.752 34.9365H21.4326V32.249H18.752V34.9365ZM24.1104 32.249H24.1123V29.5615H24.1104V32.249ZM40.1875 29.5615H37.5078V21.499H40.1875V29.5615ZM13.3955 13.4375H10.7158V5.375H13.3955V13.4375ZM26.792 16.125H34.8301V18.8115H37.5078V21.499H37.5068V29.5615H37.5078V32.249H34.8301V34.9365H26.792V32.249H24.1123V34.9365H24.1104V37.623H16.0762V37.624H24.1104V40.3115H16.0723V37.624H13.3965V34.9365H16.0723V32.249H13.3965V29.5615H13.3945V34.9365H5.35645V32.249H2.67676V29.5615H0V21.499H2.67676V18.8115H5.35645V16.125H13.3945V18.8115H13.3965V2.6875H16.0723V0H24.1104V5.375H24.1123V2.6875H26.792V5.375H29.4717V13.4375H26.792V16.125Z" fill="#010004"/>
</svg>
