<svg width="40" height="40" viewBox="0 0 40 40" fill="none" xmlns="http://www.w3.org/2000/svg">
<path d="M4 8.4209H4.00098V6.31641H35.999V8.4209H36.001V6.31641H38.001V8.4209H40V16.8428H38.001V21.0527H36V23.1582H34V27.3682H32V23.1582H31.999V29.4736H30.001V31.5791H28V33.6846H26V31.5791H25.998V33.6846H26V35.7891H24V33.6846H23.999V37.8945H22V40H18V35.7891H17.999V37.8945H15.999V33.6846H15.998V35.7891H13.998V33.6846H12.001V29.4736H12V31.5791H10V27.3682H9.99902V29.4736H7.99902V27.3682H6.00195V21.0527H6.00098V23.1582H4.00098V16.8418H4V21.0527H2V16.8428H0V8.4209H2V6.31641H4V8.4209ZM6.00098 6.31543H4.00098V4.21094H6.00098V6.31543ZM11.999 4.21094H12.001V2.10547H16.001V4.21094H17.999V6.31543H6.00195V2.10547H7.99902V0H11.999V4.21094ZM23.999 6.31543H21.999V4.21094H23.999V6.31543ZM32.001 2.10547H34V4.21094H36V6.31543H24V2.10547H28V4.21094H28.001V0H32.001V2.10547Z" fill="#F52828"/>
</svg>
