<svg width="40" height="40" viewBox="0 0 40 40" fill="none" xmlns="http://www.w3.org/2000/svg">
<path d="M28 40H12.001V37.7783H28V40ZM12 37.7773H10V35.5557H12V37.7773ZM12 11.1113H12.001V8.88965H28V11.1113H28.001V8.88965H30.001V11.1113H31.999V13.333H34V15.5557H35.998V20H35.999V17.7783H37.999V20H40V28.8887H37.999V31.1113H35.998V33.334H34V35.5557H32V31.1113H31.999V33.334H29.999V31.1113H26V28.8887H25.999V31.1113H25.998V33.333H25.999V35.5557H26V33.333H28V37.7773H12.001V33.333H13.999V31.1113H10.002V33.334H8.00195V31.1113H8V35.5557H6V31.1113H5.99902V33.334H3.99902V31.1113H2.00098V17.7783H3.99902V15.5557H5.99902V17.7783H6V13.333H8V15.5557H8.00195V11.1113H10V8.88965H12V11.1113ZM30.001 37.7773H28.001V35.5557H30.001V37.7773ZM15.999 33.333H16V31.1113H15.999V33.333ZM9.99902 31.1113H10V28.8887H9.99902V31.1113ZM2 28.8887H0V20H2V28.8887ZM22.001 2.22266H24V4.44434H25.998V6.66699H25.999V8.88867H12.001V6.66699H13.999V4.44434H15.999V6.66699H16V2.22266H18V4.44434H18.001V0H22.001V2.22266ZM28 8.88867H26V6.66699H28V8.88867Z" fill="#010004"/>
</svg>
