<svg width="37" height="34" viewBox="0 0 37 34" fill="none" xmlns="http://www.w3.org/2000/svg">
<path d="M28.5909 3.4V0H8.40909V3.4H0V11.9H1.68182V15.3H3.36364V17H5.04545V18.7H6.72727V20.4H8.40909V22.1H13.4545V23.8H16.8182V28.9H10.0909V34H26.9091V28.9H20.1818V23.8H23.5455V22.1H28.5909V20.4H30.2727V18.7H31.9545V17H33.6364V15.3H35.3182V11.9H37V3.4H28.5909ZM11.7727 18.7H8.40909V17H6.72727V15.3H5.04545V11.9H3.36364V6.8H6.72727V8.5H8.40909V11.9H10.0909V17H11.7727V18.7ZM11.7727 11.9V3.4H25.2273V11.9H23.5455V17H21.8636V20.4H15.1364V17H13.4545V11.9H11.7727ZM31.9545 11.9V15.3H30.2727V17H28.5909V18.7H25.2273V17H26.9091V13.6H28.5909V8.5H30.2727V6.8H33.6364V11.9H31.9545Z" fill="#FFE102"/>
</svg>
