<svg width="47" height="39" viewBox="0 0 47 39" fill="none" xmlns="http://www.w3.org/2000/svg">
<path d="M22.9093 6.41862V7.45388H26.182V10.5597H24.0002V11.5949H22.9093V10.5597H21.8184V9.52441H25.0911V8.48915H21.8184V5.38336H24.0002V4.3481H25.0911V5.38336H26.182V6.41862H22.9093Z" fill="#FFE102"/>
<path d="M31.2727 5.79747V4.3481H30.5455V2.89873H29.8182V2.17405H29.0909V1.44937H27.6364V0.724683H26.1818V0H21.8182V0.724683H20.3636V1.44937H18.9091V2.17405H18.1818V2.89873H17.4545V4.3481H16.7273V5.79747H16V10.1456H16.7273V11.5949H17.4545V13.0443H18.1818V13.769H18.9091V14.4937H20.3636V15.2183H21.8182V15.943H26.1818V15.2183H27.6364V14.4937H29.0909V13.769H29.8182V13.0443H30.5455V11.5949H31.2727V10.1456H32V5.79747H31.2727ZM30.5455 10.1456H29.8182V11.5949H29.0909V12.3196H28.3636V13.0443H27.6364V13.769H26.1818V14.4937H21.8182V13.769H20.3636V13.0443H19.6364V12.3196H18.9091V11.5949H18.1818V10.1456H17.4545V5.79747H18.1818V4.3481H18.9091V3.62342H19.6364V2.89873H20.3636V2.17405H21.8182V1.44937H26.1818V2.17405H27.6364V2.89873H28.3636V3.62342H29.0909V4.3481H29.8182V5.79747H30.5455V10.1456Z" fill="#FFE102"/>
<path d="M5.25273 26.114L7.17725 22.3993C7.39948 21.9707 7.93728 21.7992 8.3773 22.0146C8.54842 22.1004 8.68842 22.2366 8.77509 22.4059L10.5929 25.9887C10.7396 26.2811 11.0307 26.4811 11.3641 26.5206L15.1687 26.9625C15.6865 27.0218 16.0554 27.479 15.9932 27.9824C15.9687 28.189 15.8709 28.3824 15.7176 28.5275L12.7086 31.4025C12.5886 31.519 12.5286 31.6839 12.5508 31.8487L13.0508 35.7283C13.1219 36.2844 12.7175 36.7922 12.1463 36.8603C11.9308 36.8867 11.7108 36.8471 11.5196 36.746L8.34174 35.0623C8.11285 34.9414 7.83506 34.937 7.60171 35.0535L4.31047 36.6911C3.84601 36.9219 3.27932 36.7416 3.04154 36.291C2.95264 36.1218 2.92153 35.9305 2.9482 35.7437L3.21265 33.9633C3.33932 33.0928 3.89713 32.3367 4.7016 31.9367L8.35952 30.1277C8.4573 30.0793 8.49508 29.9628 8.44619 29.8683C8.40619 29.7936 8.32396 29.7518 8.24174 29.765L3.76823 30.3848C3.08376 30.4793 2.3904 30.2925 1.85482 29.8683L0.365875 28.6901C-0.0585859 28.3538 -0.123033 27.7472 0.221425 27.3317C0.381431 27.1405 0.612552 27.0152 0.865895 26.9822L4.68382 26.5075C4.92828 26.4767 5.14162 26.3294 5.25273 26.114Z" fill="#FFCC00"/>
<path d="M40 22.9181C36.1342 22.9181 33 26.0412 33 29.8932C33 33.7452 36.1342 36.8683 40 36.8683C43.8658 36.8683 47 33.7452 47 29.8932C47 26.0412 43.8658 22.9181 40 22.9181ZM37.6095 26.8108H42.3905C43.2684 26.8108 43.8267 27.7571 43.3851 28.5197L40.434 33.6144C40.3899 33.6902 40.3266 33.7531 40.2504 33.7968C40.1743 33.8405 40.0879 33.8635 40 33.8635C39.9121 33.8635 39.8257 33.8405 39.7496 33.7968C39.6734 33.7531 39.6101 33.6902 39.566 33.6144L36.6161 28.5197C36.1739 27.7559 36.731 26.8108 37.6095 26.8108ZM40.4352 27.6803V32.0863L41.078 30.8493L42.6273 28.0849C42.6511 28.0436 42.6634 27.9968 42.6632 27.9492C42.6629 27.9016 42.6501 27.855 42.6259 27.8139C42.6018 27.7729 42.5672 27.7389 42.5256 27.7155C42.4841 27.692 42.4371 27.6799 42.3893 27.6803H40.4352ZM37.6083 27.6815C37.5607 27.681 37.5138 27.693 37.4723 27.7164C37.4308 27.7397 37.3962 27.7736 37.3721 27.8145C37.3479 27.8554 37.335 27.902 37.3347 27.9495C37.3344 27.9969 37.3467 28.0437 37.3703 28.0849L38.9208 30.8482L39.5637 32.0863V27.6815H37.6083Z" fill="#0097EA"/>
<path d="M12.8918 22.6657L12.8393 22.2538L13.2526 22.2014L13.2001 21.7896L13.6134 21.7372L13.5609 21.3253L13.9742 21.273L13.9217 20.8611L14.335 20.8088L14.2825 20.3969L14.6958 20.3446L14.6433 19.9327L15.0566 19.8803L15.0041 19.4685L15.4174 19.4161L15.3649 19.0042L15.7782 18.9519L15.7257 18.54L16.139 18.4877L16.0865 18.0758L16.4998 18.0234L16.8151 20.4947L17.6418 20.39L17.1164 16.2713L12.983 16.7948L13.088 17.6185L15.5681 17.3044L15.6206 17.7163L15.2073 17.7686L15.2598 18.1805L14.8465 18.2329L14.899 18.6447L14.4857 18.6971L14.5382 19.1089L14.1249 19.1613L14.1774 19.5732L13.7641 19.6255L13.8166 20.0374L13.4033 20.0897L13.4558 20.5016L13.0425 20.554L13.095 20.9658L12.6817 21.0182L12.7342 21.4301L12.3209 21.4824L12.3734 21.8943L11.9601 21.9466L12.0651 22.7704L12.8918 22.6657Z" fill="#FFE102"/>
<g clip-path="url(#clip0_64_1918)">
<path d="M27.5927 31.2986L27.304 31.5979L27.0036 31.3102L26.7149 31.6096L26.4144 31.3219L26.1257 31.6212L25.8253 31.3335L25.5366 31.6329L25.2362 31.3452L24.9474 31.6445L24.647 31.3568L24.3583 31.6562L24.0579 31.3685L23.7692 31.6678L23.4687 31.3801L23.18 31.6794L22.8796 31.3917L22.5909 31.6911L22.2905 31.4034L22.0017 31.7027L21.7013 31.415L23.4337 29.619L22.8329 29.0436L19.9456 32.037L22.9497 34.914L23.5272 34.3153L21.7247 32.5891L22.0134 32.2898L22.3138 32.5775L22.6026 32.2781L22.903 32.5658L23.1917 32.2665L23.4921 32.5542L23.7808 32.2548L24.0813 32.5425L24.37 32.2432L24.6704 32.5309L24.9591 32.2315L25.2595 32.5192L25.5483 32.2199L25.8487 32.5076L26.1374 32.2083L26.4378 32.496L26.7265 32.1966L27.027 32.4843L27.3157 32.185L27.6161 32.4727L28.1935 31.874L27.5927 31.2986Z" fill="#0097EA"/>
</g>
<path d="M30.294 17.1756L30.7043 17.2484L30.6311 17.6572L31.0413 17.73L30.9682 18.1387L31.3784 18.2116L31.3053 18.6203L31.7155 18.6932L31.6424 19.1019L32.0526 19.1748L31.9795 19.5835L32.3897 19.6564L32.3166 20.0651L32.7268 20.1379L32.6537 20.5467L33.0639 20.6195L32.9908 21.0283L33.401 21.1011L33.3279 21.5099L33.7381 21.5827L33.665 21.9914L31.2038 21.5544L31.0576 22.3719L35.1596 23.1003L35.8907 19.0129L35.0703 18.8672L34.6316 21.3197L34.2214 21.2468L34.2945 20.8381L33.8843 20.7652L33.9574 20.3565L33.5472 20.2836L33.6204 19.8749L33.2101 19.802L33.2833 19.3933L32.8731 19.3205L32.9462 18.9117L32.536 18.8389L32.6091 18.4301L32.1989 18.3573L32.272 17.9485L31.8618 17.8757L31.9349 17.4669L31.5247 17.3941L31.5978 16.9854L31.1876 16.9125L31.2607 16.5038L30.4403 16.3581L30.294 17.1756Z" fill="#FFC934"/>
<defs>
<clipPath id="clip0_64_1918">
<rect width="9.98292" height="9.98151" fill="white" transform="matrix(-0.722223 -0.69166 0.694229 -0.719754 24.21 39)"/>
</clipPath>
</defs>
</svg>
