<svg width="64" height="64" viewBox="0 0 64 64" fill="none" xmlns="http://www.w3.org/2000/svg">
<path d="M17.4545 0H46.5455V5.81818H17.4545V0Z" fill="#5B0000"/>
<path d="M11.6364 11.6364V5.81818H17.4545V11.6364H11.6364Z" fill="#5B0000"/>
<path d="M5.81818 17.4545V11.6364H11.6364V17.4545H5.81818Z" fill="#5B0000"/>
<path d="M5.81818 46.5455V17.4545H0V46.5455H5.81818Z" fill="#5B0000"/>
<path d="M11.6364 52.3636H5.81818V46.5455H11.6364V52.3636Z" fill="#5B0000"/>
<path d="M17.4545 58.1818H11.6364V52.3636H17.4545V58.1818Z" fill="#5B0000"/>
<path d="M46.5455 58.1818V64H17.4545V58.1818H46.5455Z" fill="#5B0000"/>
<path d="M52.3636 52.3636V58.1818H46.5455V52.3636H52.3636Z" fill="#5B0000"/>
<path d="M58.1818 46.5455V52.3636H52.3636V46.5455H58.1818Z" fill="#5B0000"/>
<path d="M58.1818 17.4545H64V46.5455H58.1818V17.4545Z" fill="#5B0000"/>
<path fill-rule="evenodd" clip-rule="evenodd" d="M52.3636 11.6364V5.81818H46.5455V11.6364H52.3636ZM52.3636 11.6364H58.1818V17.4545H52.3636V11.6364Z" fill="#5B0000"/>
<path d="M46.5455 20.3636H52.3636V29.0909H46.5455V20.3636Z" fill="#5B0000"/>
<path d="M23.2727 20.3636H29.0909V29.0909H23.2727V20.3636Z" fill="#5B0000"/>
<path d="M29.0909 40.7273L46.5455 40.7273V34.9091H29.0909V40.7273Z" fill="#5B0000"/>
</svg>
