<svg width="33" height="37" viewBox="0 0 33 37" fill="none" xmlns="http://www.w3.org/2000/svg">
<path d="M13.1998 19.7999V21.4499H18.1498V26.3999H14.8498V28.0499H13.1998V26.3999H11.5498V24.7499H16.4998V23.0999H11.5498V18.1499H14.8498V16.4999H16.4998V18.1499H18.1498V19.7999H13.1998Z" fill="#FFE102"/>
<path d="M28.0499 18.1499V14.8499H26.3999V13.2H24.7499V11.55H23.0999V9.89997H6.59997V11.55H4.94998V13.2H3.29998V14.8499H1.64999V18.1499H0V28.0499H1.64999V31.3499H3.29998V32.9999H4.94998V34.6499H6.59997V36.2998H23.0999V34.6499H24.7499V32.9999H26.3999V31.3499H28.0499V28.0499H29.6999V18.1499H28.0499ZM11.5499 14.8499V13.2H18.1499V14.8499H21.4499V18.1499H23.0999V26.3999H21.4499V29.6999H18.1499V31.3499H11.5499V29.6999H8.24996V26.3999H6.59997V18.1499H8.24996V14.8499H11.5499Z" fill="#FFE102"/>
<path d="M26.4 8.24992H24.75V9.89992H26.4V8.24992Z" fill="#FFE102"/>
<path d="M29.6999 9.89997H26.3999V11.55H29.6999V9.89997Z" fill="#FFE102"/>
<path d="M31.3499 11.5499H29.7V13.1999H31.3499V11.5499Z" fill="#FFE102"/>
<path d="M32.9999 6.59995V11.5499H31.3499V8.24995H29.7V6.59995H32.9999Z" fill="#FFE102"/>
<path d="M29.7 4.94998H24.75V6.59998H29.7V4.94998Z" fill="#FFE102"/>
<path d="M24.7498 6.59995H23.0999V8.24995H24.7498V6.59995Z" fill="#FFE102"/>
<path d="M21.4502 6.59995H8.25024V8.24995H21.4502V6.59995Z" fill="#FFE102"/>
<path d="M24.7501 0V1.64999H23.1001V3.29998H21.4501V4.94998H8.25018V3.29998H6.60019V1.64999H4.9502V0H8.25018V1.64999H13.2002V0H16.5001V1.64999H21.4501V0H24.7501Z" fill="#FFE102"/>
</svg>
