<svg width="53" height="66" viewBox="0 0 53 66" fill="none" xmlns="http://www.w3.org/2000/svg">
<path d="M53.0001 9.37213H49.8896V62.3721H53.0001V9.37213Z" fill="#5BCD6D"/>
<path d="M49.8887 6.24127H46.7578V9.37216H49.8887V6.24127Z" fill="#5BCD6D"/>
<path d="M46.7589 3.13089H43.6484V6.24131H46.7589V3.13089Z" fill="#5BCD6D"/>
<path d="M46.7546 15.593H43.6442V12.4928H40.5337V9.37216H37.4029V6.24127H0V65.4928H46.7546V15.593ZM43.6442 62.3722H3.11042V9.37216H31.1656V21.8343H43.6483L43.6442 62.3722Z" fill="#5BCD6D"/>
<path d="M43.6472 0H3.10938V3.13089H43.6472V0Z" fill="#5BCD6D"/>
<path d="M37.4068 53.0204H9.35156V56.1308H37.4068V53.0204Z" fill="#5BCD6D"/>
<path d="M37.4068 40.5378H9.35156V43.6687H37.4068V40.5378Z" fill="#5BCD6D"/>
<path d="M37.4068 28.0757H9.35156V31.1861H37.4068V28.0757Z" fill="#5BCD6D"/>
<path d="M21.8137 15.593H9.35156V18.7239H21.8137V15.593Z" fill="#5BCD6D"/>
</svg>
