<svg width="33" height="29" viewBox="0 0 33 29" fill="none" xmlns="http://www.w3.org/2000/svg">
<path d="M19.1049 3.41374H22.5815V5.11501H24.3141V6.82748H26.0581V10.2412H27.7907V18.7588H26.0581V22.1725H24.3141V23.885H22.5815V25.5863H19.1049V27.2875H10.4191V29H22.5815V27.2875H26.0581V25.5863H27.7907V23.885H29.5347V22.1725H31.2673V18.7588H32.9999V10.2412H31.2673V6.82748H29.5347V5.11501H27.7907V3.41374H26.0581V1.71247H22.5815V0H10.4191V1.71247H19.1049V3.41374Z" fill="#FFCC00"/>
<path d="M26.0566 10.2402H24.3126V18.7577H26.0566V10.2402Z" fill="#FFCC00"/>
<path d="M24.3138 18.7592H22.5812V20.4716H24.3138V18.7592Z" fill="#FFCC00"/>
<path d="M24.3138 8.53065H22.5812V10.2431H24.3138V8.53065Z" fill="#FFCC00"/>
<path d="M22.5794 20.4729H20.8468V22.1742H22.5794V20.4729Z" fill="#FFCC00"/>
<path d="M22.5794 6.82855H20.8468V8.52983H22.5794V6.82855Z" fill="#FFCC00"/>
<path d="M20.8464 22.1718H19.1024V23.8843H20.8464V22.1718Z" fill="#FFCC00"/>
<path d="M20.8464 5.11478H19.1024V6.82724H20.8464V5.11478Z" fill="#FFCC00"/>
<path d="M19.1049 23.8854H10.4191V25.5867H19.1049V23.8854Z" fill="#FFCC00"/>
<path d="M19.1038 15.3548H17.3712V18.7574H19.1038V15.3548Z" fill="#FFCC00"/>
<path d="M19.1038 10.2403H17.3712V11.9416H19.1038V10.2403Z" fill="#FFCC00"/>
<path d="M19.1049 3.41269H10.4191V5.11396H19.1049V3.41269Z" fill="#FFCC00"/>
<path d="M13.8948 20.4723V22.1736H15.6274V20.4723H17.3714V18.7599H15.6274V15.3573H17.3714V13.6448H15.6274V10.2423H17.3714V8.52983H15.6274V6.82855H13.8948V8.52983H12.1622V10.2423H13.8948V13.6448H12.1622V15.3573H13.8948V18.7599H12.1622V20.4723H13.8948Z" fill="#FFCC00"/>
<path d="M12.1631 17.0571H10.4191V18.7583H12.1631V17.0571Z" fill="#FFCC00"/>
<path d="M12.1631 10.2412H10.4191V13.6438H12.1631V10.2412Z" fill="#FFCC00"/>
<path d="M10.4185 25.5877H6.95325V27.289H10.4185V25.5877Z" fill="#FFCC00"/>
<path d="M10.4182 22.1718H8.68555V23.8843H10.4182V22.1718Z" fill="#FFCC00"/>
<path d="M10.4182 5.11478H8.68555V6.82724H10.4182V5.11478Z" fill="#FFCC00"/>
<path d="M10.4185 1.71378H6.95325V3.41505H10.4185V1.71378Z" fill="#FFCC00"/>
<path d="M8.68585 20.4729H6.95325V22.1742H8.68585V20.4729Z" fill="#FFCC00"/>
<path d="M8.68585 6.82855H6.95325V8.52983H8.68585V6.82855Z" fill="#FFCC00"/>
<path d="M6.95409 23.8856H5.21008V25.5869H6.95409V23.8856Z" fill="#FFCC00"/>
<path d="M6.95409 18.7592H5.21008V20.4716H6.95409V18.7592Z" fill="#FFCC00"/>
<path d="M6.95409 8.53065H5.21008V10.2431H6.95409V8.53065Z" fill="#FFCC00"/>
<path d="M6.95409 3.41269H5.21008V5.11396H6.95409V3.41269Z" fill="#FFCC00"/>
<path d="M5.20917 22.1718H3.47656V23.8843H5.20917V22.1718Z" fill="#FFCC00"/>
<path d="M5.21027 10.2412H3.47766V18.7588H5.21027V10.2412Z" fill="#FFCC00"/>
<path d="M5.21027 5.11478H3.47766V6.82724H5.21027V5.11478Z" fill="#FFCC00"/>
<path d="M3.47643 18.7592H1.73242V22.1729H3.47643V18.7592Z" fill="#FFCC00"/>
<path d="M3.47643 6.82855H1.73242V10.2423H3.47643V6.82855Z" fill="#FFCC00"/>
<path d="M1.73261 10.2403H0V18.7579H1.73261V10.2403Z" fill="#FFCC00"/>
</svg>
