<svg width="32" height="36" viewBox="0 0 32 36" fill="none" xmlns="http://www.w3.org/2000/svg">
<path d="M31.9998 6.74266H30.3086V13.4743H31.9998V6.74266Z" fill="#5ACD6D"/>
<path d="M30.3086 13.4743H28.6284V18.5257H30.3086V13.4743Z" fill="#5ACD6D"/>
<path d="M28.6284 18.5257H26.9482V25.2684H28.6284V18.5257Z" fill="#5ACD6D"/>
<path d="M26.9485 25.2684H25.2573V32H26.9485V25.2684Z" fill="#5ACD6D"/>
<path d="M23.5769 6.74266H30.3085V5.05147H23.5769V1.68014H21.8857V33.6912H25.2571V32H23.5769V6.74266Z" fill="#5ACD6D"/>
<path d="M21.886 33.6912H1.68018V35.3713H21.886V33.6912Z" fill="#5ACD6D"/>
<path d="M20.2055 28.6287H18.5254V32H20.2055V28.6287Z" fill="#5ACD6D"/>
<path d="M5.05154 3.37133H3.36035V6.74266H5.05154V3.37133Z" fill="#5ACD6D"/>
<path d="M21.886 0H1.68018V1.68014H21.886V0Z" fill="#5ACD6D"/>
<path d="M1.68014 1.68014H0V33.6912H1.68014V1.68014Z" fill="#5ACD6D"/>
<path d="M12 21.5V11.5H14.5V21.5H12ZM7 21.5V19H9.5V21.5H7ZM9.5 21.5H12V24H9.5V21.5Z" fill="#5ACD6D"/>
</svg>
