<svg width="55" height="59" viewBox="0 0 55 59" fill="none" xmlns="http://www.w3.org/2000/svg">
<g filter="url(#filter0_d_236_1585)">
<path d="M36.667 24.4443L36.667 30.5557L18.333 30.5557L18.333 24.4443L36.667 24.4443Z" fill="#C34E30"/>
</g>
<g filter="url(#filter1_d_236_1585)">
<path d="M36.6667 3.2055e-06L18.3333 0V6.1111L36.6667 6.11111L36.6667 12.2222L42.7778 12.2222L42.7778 18.3333L48.8889 18.3333L48.8889 6.11111L36.6667 6.11111V3.2055e-06Z" fill="#C34E30"/>
<path d="M6.11111 6.1111L18.3333 6.1111L18.3333 12.2222L12.2222 12.2222V18.3333H6.11111L6.11111 6.1111Z" fill="#C34E30"/>
<path d="M6.11111 18.3333L6.11111 36.6667H0L3.2055e-06 18.3333H6.11111Z" fill="#C34E30"/>
<path fill-rule="evenodd" clip-rule="evenodd" d="M36.6667 48.8889V55L18.3333 55V48.8889H36.6667ZM36.6667 48.8889L36.6667 42.7778L42.7778 42.7778L42.7778 36.6667L48.8889 36.6667V48.8889H36.6667Z" fill="#C34E30"/>
<path d="M48.8889 36.6667V18.3333L55 18.3333L55 36.6667H48.8889Z" fill="#C34E30"/>
<path d="M6.11111 36.6667L6.11111 48.8889L18.3333 48.8889L18.3333 42.7777L12.2222 42.7778V36.6666L6.11111 36.6667Z" fill="#C34E30"/>
</g>
<defs>
<filter id="filter0_d_236_1585" x="18.333" y="24.4443" width="18.334" height="10.1113" filterUnits="userSpaceOnUse" color-interpolation-filters="sRGB">
<feFlood flood-opacity="0" result="BackgroundImageFix"/>
<feColorMatrix in="SourceAlpha" type="matrix" values="0 0 0 0 0 0 0 0 0 0 0 0 0 0 0 0 0 0 127 0" result="hardAlpha"/>
<feOffset dy="4"/>
<feComposite in2="hardAlpha" operator="out"/>
<feColorMatrix type="matrix" values="0 0 0 0 0 0 0 0 0 0 0 0 0 0 0 0 0 0 1 0"/>
<feBlend mode="normal" in2="BackgroundImageFix" result="effect1_dropShadow_236_1585"/>
<feBlend mode="normal" in="SourceGraphic" in2="effect1_dropShadow_236_1585" result="shape"/>
</filter>
<filter id="filter1_d_236_1585" x="0" y="0" width="55" height="59" filterUnits="userSpaceOnUse" color-interpolation-filters="sRGB">
<feFlood flood-opacity="0" result="BackgroundImageFix"/>
<feColorMatrix in="SourceAlpha" type="matrix" values="0 0 0 0 0 0 0 0 0 0 0 0 0 0 0 0 0 0 127 0" result="hardAlpha"/>
<feOffset dy="4"/>
<feComposite in2="hardAlpha" operator="out"/>
<feColorMatrix type="matrix" values="0 0 0 0 0 0 0 0 0 0 0 0 0 0 0 0 0 0 1 0"/>
<feBlend mode="normal" in2="BackgroundImageFix" result="effect1_dropShadow_236_1585"/>
<feBlend mode="normal" in="SourceGraphic" in2="effect1_dropShadow_236_1585" result="shape"/>
</filter>
</defs>
</svg>
