<svg width="41" height="41" viewBox="0 0 41 41" fill="none" xmlns="http://www.w3.org/2000/svg">
<path d="M41.0004 3.90796H39.04V37.0926H41.0004V3.90796Z" fill="#190D09"/>
<path d="M39.0403 37.0925H37.0928V39.0529H39.0403V37.0925Z" fill="#190D09"/>
<path d="M39.0403 1.94751H37.0928V3.90784H39.0403V1.94751Z" fill="#190D09"/>
<path d="M37.093 39.0527H3.89551V41.0003H37.093V39.0527Z" fill="#190D09"/>
<path d="M35.1331 33.1846H33.1855V37.0924H35.1331V33.1846Z" fill="#190D09"/>
<path d="M31.2373 5.85547V13.6712H33.1848V25.3819H35.1323V13.6712H37.0927V5.85547H31.2373ZM35.1323 11.7108H33.1848V7.8158H35.1323V11.7108Z" fill="#190D09"/>
<path d="M33.1848 25.3818H31.2373V27.3294H33.1848V25.3818Z" fill="#190D09"/>
<path d="M31.2377 33.1846H29.2773V37.0924H31.2377V33.1846Z" fill="#190D09"/>
<path d="M29.2773 23.4344H31.2376V15.6187H29.2773V11.7108H27.3298V9.76331H25.3694V7.8158H21.4744V5.85547H13.6587V7.8158H9.75087V9.76331H7.80335V11.7108H5.85584V15.6187H3.89551V23.4344H5.85584V27.3294H7.80335V29.2897H9.75087V31.2372H13.6587V33.1848H21.4744V31.2372H25.3694V29.2897H19.5141V27.3294H25.3694V29.2897H31.2376V27.3294H29.2773V23.4344ZM19.5141 21.474H15.619V17.5662H19.5141V21.474ZM27.3298 17.5662H25.3694V13.6712H23.4219V11.7108H19.5141V9.76331H23.4219V11.7108H25.3694V13.6712H27.3298V17.5662Z" fill="#190D09"/>
<path d="M11.7103 35.145H9.75V37.0925H11.7103V35.145Z" fill="#190D09"/>
<path d="M7.80299 35.145H5.85547V37.0925H7.80299V35.145Z" fill="#190D09"/>
<path d="M37.093 0H3.89551V1.94752H37.093V0Z" fill="#190D09"/>
<path d="M3.89478 37.0923H1.94727V39.0526H3.89478V37.0923Z" fill="#190D09"/>
<path d="M3.89478 1.94751H1.94727V3.90784H3.89478V1.94751Z" fill="#190D09"/>
<path d="M1.94752 3.90796H0V37.0926H1.94752V3.90796Z" fill="#190D09"/>
</svg>
