<svg width="39" height="39" viewBox="0 0 39 39" fill="none" xmlns="http://www.w3.org/2000/svg">
<path d="M27.3 0H31.2V3.9H27.3V0Z" fill="#B6BDC9"/>
<path d="M23.4 7.8V3.9H27.3V7.8H23.4Z" fill="#B6BDC9"/>
<path fill-rule="evenodd" clip-rule="evenodd" d="M23.4 11.7V7.8H19.5V11.7H15.6V15.6H11.7V19.5H7.8V23.4H3.9V27.3H2.32458e-07L0 39H11.7V35.1H15.6V31.2H19.5V27.3H23.4V23.4H27.3V19.5H31.2V15.6H35.1V11.7H39V7.8H35.1V3.9H31.2V7.8H35.1V11.7H31.2V15.6H27.3V11.7H23.4ZM23.4 11.7V15.6H27.3V19.5H23.4V23.4H19.5V27.3H15.6V31.2H11.7V35.1H7.8H3.9V31.2V27.3H7.8V23.4H11.7V19.5H15.6V15.6H19.5V11.7H23.4Z" fill="#B6BDC9"/>
</svg>
