<svg width="40" height="20" viewBox="0 0 40 20" fill="none" xmlns="http://www.w3.org/2000/svg">
<path d="M40 3.8125H32.375V5.7125H40V3.8125Z" fill="#FF6600"/>
<path d="M40 7.625H36.1875V9.52499H40V7.625Z" fill="#FF6600"/>
<path d="M11.425 17.15H20.95V19.05H30.475V15.2375H36.1875V11.4375H34.2875V13.3375H1.9V11.4375H0V15.2375H11.425V17.15Z" fill="#FF6600"/>
<path d="M34.2871 9.52499H30.4746V11.4375H34.2871V9.52499Z" fill="#FF6600"/>
<path d="M32.375 2.38419e-07H28.5625V1.9125H32.375V2.38419e-07Z" fill="#FF6600"/>
<path d="M30.4753 7.625H26.6628V9.52499H30.4753V7.625Z" fill="#FF6600"/>
<path d="M22.85 5.7125H20.95V7.62499H26.6624V5.7125H24.7624V3.8125H22.85V5.7125Z" fill="#FF6600"/>
<path d="M24.7624 3.8125H26.6624V2.38419e-07H20.95V1.9125H24.7624V3.8125Z" fill="#FF6600"/>
<path d="M20.9499 1.9125H17.1375V3.8125H20.9499V1.9125Z" fill="#FF6600"/>
<path d="M20.95 7.625H15.2375V9.52499H20.95V7.625Z" fill="#FF6600"/>
<path d="M17.1374 3.8125H13.325V5.7125H17.1374V3.8125Z" fill="#FF6600"/>
<path d="M13.3251 5.7125H9.52515V7.625H13.3251V5.7125Z" fill="#FF6600"/>
<path d="M9.52539 7.625H5.71289V9.52499H9.52539V7.625Z" fill="#FF6600"/>
<path d="M5.71216 9.52499H1.89966V11.4375H5.71216V9.52499Z" fill="#FF6600"/>
</svg>
