<svg width="28" height="28" viewBox="0 0 28 28" fill="none" xmlns="http://www.w3.org/2000/svg">
<path d="M19.9936 6.66752V9.33627H18.6636V13.335H19.9936V14.665H21.3324V16.0038H17.3336V17.3338H15.9949V18.6638H19.9936V21.3325H18.6636V24.0013H19.9936V25.3313H22.6624V24.0013H24.0011V22.6625H25.3311V20.0025H26.6611V17.3338H27.9999V10.6663H26.6611V7.99752H25.3311V5.33752H24.0011V6.66752H19.9936Z" fill="#5ACD6D"/>
<path d="M24.0011 3.99872H22.6624V5.33747H24.0011V3.99872Z" fill="#5ACD6D"/>
<path d="M22.6626 2.66876H19.9939V3.99876H22.6626V2.66876Z" fill="#5ACD6D"/>
<path d="M19.9937 25.3312H17.3337V26.67H19.9937V25.3312Z" fill="#5ACD6D"/>
<path d="M19.9937 1.33002H17.3337V2.66877H19.9937V1.33002Z" fill="#5ACD6D"/>
<path d="M14.6651 25.3313H13.3351V24.0013H9.32756V25.3313H7.99756V26.67H10.6663V28H17.3338V26.67H14.6651V25.3313Z" fill="#5ACD6D"/>
<path d="M17.3338 0H10.6663V1.33H17.3338V0Z" fill="#5ACD6D"/>
<path d="M9.32739 14.665H10.6661V16.0038H11.9961V11.9963H9.32739V14.665Z" fill="#5ACD6D"/>
<path d="M7.99761 24.0013H5.32886V25.3313H7.99761V24.0013Z" fill="#5ACD6D"/>
<path d="M5.32878 22.6625H3.99878V24.0012H5.32878V22.6625Z" fill="#5ACD6D"/>
<path d="M2.66875 20.0025V22.6625H3.99875V21.3325H5.32875V20.0025H6.6675V16.0038H5.32875V14.665H3.99875V13.335H2.66875V11.9963H3.99875V10.6663H7.9975V9.33627H9.3275V7.99752H10.6663V9.33627H11.9963V7.99752H13.335V5.33752H11.9963V3.99877H9.3275V2.66877H10.6663V1.33002H7.9975V2.66877H5.32875V3.99877H3.99875V5.33752H2.66875V7.99752H1.33V10.6663H0V17.3338H1.33V20.0025H2.66875Z" fill="#5ACD6D"/>
</svg>
