<svg width="23" height="23" viewBox="0 0 23 23" fill="none" xmlns="http://www.w3.org/2000/svg">
<path d="M0 12.5455L8.22569e-07 6.27273L2.09091 6.27273L2.09091 12.5455H0Z" fill="#B6BDC9"/>
<path d="M6.27273 2.09091L6.27273 4.18182L4.18182 4.18182V6.27273L2.09091 6.27273V2.09091L6.27273 2.09091Z" fill="#B6BDC9"/>
<path d="M12.5455 2.09091L6.27273 2.09091L6.27273 0L12.5455 2.81662e-06L12.5455 2.09091Z" fill="#B6BDC9"/>
<path d="M16.7273 6.27273L14.6364 6.27273L14.6364 4.18182L12.5455 4.18182V2.09091L16.7273 2.09091V6.27273Z" fill="#B6BDC9"/>
<path d="M16.7273 6.27273H18.8182V12.5455L16.7273 12.5455V6.27273Z" fill="#B6BDC9"/>
<path d="M2.09091 12.5455L2.09091 16.7273H6.27273L6.27273 18.8182H12.5455V16.7273H16.7273L16.7273 12.5455H14.6364L14.6364 14.6364L12.5454 14.6364L12.5455 16.7273H6.27273V14.6364H4.18182V12.5455L2.09091 12.5455Z" fill="#B6BDC9"/>
<path d="M18.8182 16.7273V18.8182H16.7273L16.7273 16.7273H18.8182Z" fill="#B6BDC9"/>
<path d="M20.9091 20.9091H18.8182L18.8182 18.8182H20.9091L20.9091 20.9091Z" fill="#B6BDC9"/>
<path d="M20.9091 20.9091H23V23H20.9091V20.9091Z" fill="#B6BDC9"/>
</svg>
