<svg width="23" height="23" viewBox="0 0 23 23" fill="none" xmlns="http://www.w3.org/2000/svg">
<path d="M6.27273 0H16.7273V2.09091H6.27273V0Z" fill="#FF6600"/>
<path d="M4.18182 4.18182V2.09091H6.27273V4.18182H4.18182Z" fill="#FF6600"/>
<path d="M2.09091 6.27273V4.18182H4.18182V6.27273H2.09091Z" fill="#FF6600"/>
<path d="M2.09091 16.7273V6.27273H0V16.7273H2.09091Z" fill="#FF6600"/>
<path d="M4.18182 18.8182H2.09091V16.7273H4.18182V18.8182Z" fill="#FF6600"/>
<path d="M6.27273 20.9091H4.18182V18.8182H6.27273V20.9091Z" fill="#FF6600"/>
<path d="M16.7273 20.9091V23H6.27273V20.9091H16.7273Z" fill="#FF6600"/>
<path d="M18.8182 18.8182V20.9091H16.7273V18.8182H18.8182Z" fill="#FF6600"/>
<path d="M18.8182 16.7273V18.8182H20.9091V16.7273H23V6.27273H20.9091V4.18182H18.8182V2.09091H16.7273V4.18182H18.8182V6.27273H20.9091V16.7273H18.8182Z" fill="#FF6600"/>
<path fill-rule="evenodd" clip-rule="evenodd" d="M10.4545 14.6364V12.5455H16.7273V14.6364H10.4545ZM16.7273 14.6364H18.8182V16.7273H16.7273V14.6364Z" fill="#FF6600"/>
<path d="M10.4545 14.6364V16.7273H8.36364V14.6364H10.4545Z" fill="#FF6600"/>
<path d="M16.7273 7.31818H18.8182V10.4545H16.7273V7.31818Z" fill="#FF6600"/>
<path d="M8.36364 7.31818H10.4545V10.4545H8.36364V7.31818Z" fill="#FF6600"/>
</svg>
