<svg width="35" height="32" viewBox="0 0 35 32" fill="none" xmlns="http://www.w3.org/2000/svg">
<path d="M15.9091 3.2L19.0909 3.2V8.39259e-07L15.9091 0L15.9091 3.2Z" fill="#FFCC00"/>
<path d="M19.0909 6.4L22.2727 6.4V3.2L19.0909 3.2V6.4Z" fill="#FFCC00"/>
<path d="M12.7273 6.4L15.9091 6.4L15.9091 3.2L12.7273 3.2L12.7273 6.4Z" fill="#FFCC00"/>
<path d="M9.54545 12.8H12.7273L12.7273 6.4L9.54546 6.4L9.54545 12.8Z" fill="#FFCC00"/>
<path d="M22.2727 12.8L25.4545 12.8L25.4545 6.4L22.2727 6.4V12.8Z" fill="#FFCC00"/>
<path d="M31.8182 16L35 16V12.8L31.8182 12.8V16Z" fill="#FFCC00"/>
<path d="M28.6364 19.2L31.8182 19.2V16H28.6364V19.2Z" fill="#FFCC00"/>
<path d="M22.2727 12.8H35V9.6L22.2727 9.6L22.2727 12.8Z" fill="#FFCC00"/>
<path d="M25.4545 22.4L28.6364 22.4V19.2H25.4545V22.4Z" fill="#FFCC00"/>
<path d="M28.6364 32H31.8182L31.8182 22.4L28.6364 22.4V32Z" fill="#FFCC00"/>
<path d="M22.2727 32H25.4545V28.8H22.2727L22.2727 32Z" fill="#FFCC00"/>
<path d="M19.0909 28.8H22.2727L22.2727 25.6H19.0909L19.0909 28.8Z" fill="#FFCC00"/>
<path d="M15.9091 25.6H19.0909L19.0909 22.4H15.9091L15.9091 25.6Z" fill="#FFCC00"/>
<path d="M12.7273 28.8H15.9091V25.6H12.7273L12.7273 28.8Z" fill="#FFCC00"/>
<path d="M9.54545 32H12.7273L12.7273 28.8H9.54546L9.54545 32Z" fill="#FFCC00"/>
<path d="M3.18182 32H6.36364L6.36364 25.6H3.18182L3.18182 32Z" fill="#FFCC00"/>
<path d="M3.18182 25.6H6.36364V22.4H3.18182L3.18182 25.6Z" fill="#FFCC00"/>
<path d="M6.36364 22.4L9.54545 22.4L9.54545 19.2H6.36364L6.36364 22.4Z" fill="#FFCC00"/>
<path d="M3.18182 19.2H6.36364L6.36364 16H3.18182L3.18182 19.2Z" fill="#FFCC00"/>
<path d="M0 16H3.18182L3.18182 12.8L8.3449e-07 12.8L0 16Z" fill="#FFCC00"/>
<path d="M8.3449e-07 12.8L12.7273 12.8L12.7273 9.6L8.34491e-07 9.6L8.3449e-07 12.8Z" fill="#FFCC00"/>
<path d="M25.4545 32H28.6364V28.8H25.4545V32Z" fill="#FFCC00"/>
<path d="M6.36364 32H9.54545L9.54546 28.8H6.36364L6.36364 32Z" fill="#FFCC00"/>
</svg>
