<svg width="29" height="29" viewBox="0 0 29 29" fill="none" xmlns="http://www.w3.org/2000/svg">
<path fill-rule="evenodd" clip-rule="evenodd" d="M7.90909 0V2.63636H5.27273V5.27273H2.63636V7.90909H0V21.0909H2.63636V23.7273H5.27273V26.3636H7.90909V29H21.0909V26.3636H23.7273V23.7273H26.3636V21.0909H29V7.90909H26.3636V5.27273H23.7273V2.63636H21.0909V0H7.90909ZM21.0909 2.63636V5.27273H23.7273V7.90909H26.3636V21.0909H23.7273V23.7273H21.0909V26.3636H7.90909V23.7273H5.27273V21.0909H2.63636V7.90909H5.27273V5.27273H7.90909V2.63636H21.0909Z" fill="#222222"/>
<path d="M10.5455 5.27273H18.4545V7.90909H10.5455V5.27273Z" fill="#222222"/>
<path d="M10.5455 15.8182H7.90909V7.90909H10.5455V15.8182Z" fill="#222222"/>
<path d="M18.4545 15.8182H10.5455V18.4545H7.90909V21.0909H5.27273V23.7273H7.90909V21.0909H10.5455V18.4545H18.4545V21.0909H21.0909V23.7273H23.7273V21.0909H21.0909V18.4545H18.4545V15.8182Z" fill="#222222"/>
<path d="M18.4545 15.8182H21.0909V7.90909H18.4545V15.8182Z" fill="#222222"/>
</svg>
