<svg width="27" height="30" viewBox="0 0 27 30" fill="none" xmlns="http://www.w3.org/2000/svg">
<path d="M6.66667 15H8.33333V16.6667H18.3333V15H20V13.3333H21.6667V3.33333H20V1.66667H18.3333V0H8.33333V1.66667H6.66667V3.33333H5V13.3333H6.66667V15ZM8.33333 6.66667H10V5H11.6667V3.33333H15V5H16.6667V6.66667H18.3333V10H16.6667V11.6667H15V13.3333H11.6667V11.6667H10V10H8.33333V6.66667Z" fill="#5BCD6D"/>
<path d="M25 21.6667V20H23.3333V18.3333H3.33333V20H1.66667V21.6667H0V30H3.33333V25H5V23.3333H6.66667V21.6667H20V23.3333H21.6667V25H23.3333V30H26.6667V21.6667H25Z" fill="#5BCD6D"/>
</svg>
