<svg width="61" height="61" viewBox="0 0 61 61" fill="none" xmlns="http://www.w3.org/2000/svg">
<path d="M58.0834 11.6281H52.2884V14.5256H49.3719V11.6281H46.4744V17.4422H34.8463V14.5256H43.5578V11.6281H37.7628V8.71157H46.4744V5.81406H40.6603V2.91656H37.7628V5.81406H34.8463V8.71157H31.9487V17.4422H29.0513V11.6281H26.1347V17.4422H20.3206V14.5256H17.4231V17.4422H11.6091V14.5256H8.71156V17.4422H5.795V5.81406H2.8975V17.4422H0V43.5769H2.8975V20.3397H43.5578V40.6794H46.4744V58.1025H5.795V61H49.3719V58.1025H52.2884V55.205H55.1859V52.2884H58.0834V49.3909H61V34.8653H58.0834V11.6281Z" fill="#FF6600"/>
<path d="M52.2881 5.81407H49.3716V11.6281H52.2881V5.81407Z" fill="#FF6600"/>
<path d="M49.3716 2.91656H46.4741V5.81406H49.3716V2.91656Z" fill="#FF6600"/>
<path d="M46.4742 0H40.6602V2.91656H46.4742V0Z" fill="#FF6600"/>
<path d="M31.9493 26.1538H29.0518V31.9488H31.9493V26.1538Z" fill="#FF6600"/>
<path d="M31.9493 5.81407H29.0518V8.71157H31.9493V5.81407Z" fill="#FF6600"/>
<path d="M26.1343 8.71158H23.2368V11.6281H26.1343V8.71158Z" fill="#FF6600"/>
<path d="M23.2374 11.6281H20.3208V14.5256H23.2374V11.6281Z" fill="#FF6600"/>
<path d="M29.0515 31.9487H17.4233V34.8653H29.0515V31.9487Z" fill="#FF6600"/>
<path d="M23.2374 8.71157V5.81406H29.0515V2.91656H20.3208V5.81406H17.4233V8.71157H23.2374Z" fill="#FF6600"/>
<path d="M17.4234 26.1538H14.5259V31.9488H17.4234V26.1538Z" fill="#FF6600"/>
<path d="M17.4234 8.71158H14.5259V11.6281H17.4234V8.71158Z" fill="#FF6600"/>
<path d="M14.5254 11.6281H11.6089V14.5256H14.5254V11.6281Z" fill="#FF6600"/>
<path d="M11.6084 8.71158H8.71094V11.6281H11.6084V8.71158Z" fill="#FF6600"/>
<path d="M17.4235 2.91656H5.79541V5.81406H17.4235V2.91656Z" fill="#FF6600"/>
<path d="M5.79496 43.5769H2.89746V58.1025H5.79496V43.5769Z" fill="#FF6600"/>
</svg>
