<svg width="70" height="70" viewBox="0 0 70 70" fill="none" xmlns="http://www.w3.org/2000/svg">
<path d="M70.0007 63.3282H66.6538V66.675H70.0007V63.3282Z" fill="#FF6600"/>
<path d="M66.6534 3.32498H63.3284V6.67186H60.0034V9.99686H63.3284V13.3437H66.6534V9.99686H70.0003V6.67186H66.6534V3.32498Z" fill="#FF6600"/>
<path d="M66.6536 50.0062H63.3286V53.3312H66.6536V50.0062Z" fill="#FF6600"/>
<path d="M63.3284 53.3313H60.0034V56.6781H63.3284V53.3313Z" fill="#FF6600"/>
<path d="M63.3284 46.6594H60.0034V50.0062H63.3284V46.6594Z" fill="#FF6600"/>
<path d="M63.3284 33.3375H60.0034V36.6625H63.3284V33.3375Z" fill="#FF6600"/>
<path d="M63.3284 19.9938H60.0034V23.3406H63.3284V19.9938Z" fill="#FF6600"/>
<path d="M60.0031 50.0062H56.6562V53.3312H60.0031V50.0062Z" fill="#FF6600"/>
<path d="M60.0031 36.6625H56.6562V40.0094H60.0031V36.6625Z" fill="#FF6600"/>
<path d="M60.0031 16.6687H56.6562V19.9937H60.0031V16.6687Z" fill="#FF6600"/>
<path d="M56.6561 40.0094H53.3311V43.3344H56.6561V40.0094Z" fill="#FF6600"/>
<path d="M56.6561 13.3438H53.3311V16.6688H56.6561V13.3438Z" fill="#FF6600"/>
<path d="M53.3315 70V66.675H56.6565V63.3281H53.3315V60.0031H49.9847V63.3281H46.6597V66.675H49.9847V70H53.3315Z" fill="#FF6600"/>
<path d="M53.3312 43.3344H49.9844V46.6594H53.3312V43.3344Z" fill="#FF6600"/>
<path d="M49.9847 46.6594H46.6597V50.0062H49.9847V46.6594Z" fill="#FF6600"/>
<path d="M49.9847 33.3375H46.6597V36.6625H49.9847V33.3375Z" fill="#FF6600"/>
<path d="M49.9847 19.9938H46.6597V23.3406H49.9847V19.9938Z" fill="#FF6600"/>
<path d="M49.9847 3.32498H46.6597V6.67186H49.9847V3.32498Z" fill="#FF6600"/>
<path d="M46.6595 50.0062H43.3345V53.3312H46.6595V50.0062Z" fill="#FF6600"/>
<path d="M46.6595 36.6625H43.3345V43.3344H46.6595V36.6625Z" fill="#FF6600"/>
<path d="M46.6595 16.6687H43.3345V19.9937H46.6595V16.6687Z" fill="#FF6600"/>
<path d="M43.3337 43.3344H39.9868V50.0063H43.3337V43.3344Z" fill="#FF6600"/>
<path d="M39.9871 50.0062H36.6621V60.0031H39.9871V56.6781H43.334V53.3312H39.9871V50.0062Z" fill="#FF6600"/>
<path d="M39.9871 0H36.6621V3.325H39.9871V0Z" fill="#FF6600"/>
<path d="M36.6626 60.0031H29.9907V63.3281H36.6626V60.0031Z" fill="#FF6600"/>
<path d="M29.9912 50.0062H26.6662V53.3312H23.3193V56.6781H26.6662V60.0031H29.9912V50.0062Z" fill="#FF6600"/>
<path d="M26.6662 43.3344H23.3193V50.0063H26.6662V43.3344Z" fill="#FF6600"/>
<path d="M23.3191 50.0062H19.9941V53.3312H23.3191V50.0062Z" fill="#FF6600"/>
<path d="M23.3191 36.6625H19.9941V43.3344H23.3191V36.6625Z" fill="#FF6600"/>
<path d="M23.3191 16.6687H19.9941V19.9937H23.3191V16.6687Z" fill="#FF6600"/>
<path d="M23.3191 3.32498H19.9941V6.67186H23.3191V3.32498Z" fill="#FF6600"/>
<path d="M19.9939 60.0031H16.6689V63.3281H19.9939V60.0031Z" fill="#FF6600"/>
<path d="M19.9939 46.6594H16.6689V50.0062H19.9939V46.6594Z" fill="#FF6600"/>
<path d="M19.9939 33.3375H16.6689V36.6625H19.9939V33.3375Z" fill="#FF6600"/>
<path d="M19.9939 19.9938H16.6689V23.3406H19.9939V19.9938Z" fill="#FF6600"/>
<path d="M23.3182 13.3438V16.6688H26.665V13.3438H39.9869V16.6688H43.3338V13.3438H53.3307V9.99689H13.3213V13.3438H23.3182Z" fill="#FF6600"/>
<path d="M16.6682 43.3344H13.3213V46.6594H16.6682V43.3344Z" fill="#FF6600"/>
<path d="M13.3216 40.0094H9.99658V43.3344H13.3216V40.0094Z" fill="#FF6600"/>
<path d="M13.3216 13.3438H9.99658V16.6688H13.3216V13.3438Z" fill="#FF6600"/>
<path d="M9.99678 53.3313H6.6499V56.6781H9.99678V53.3313Z" fill="#FF6600"/>
<path d="M9.99678 36.6625H6.6499V40.0094H9.99678V36.6625Z" fill="#FF6600"/>
<path d="M9.99678 16.6687H6.6499V19.9937H9.99678V16.6687Z" fill="#FF6600"/>
<path d="M6.6502 66.675H3.3252V70H6.6502V66.675Z" fill="#FF6600"/>
<path d="M6.6502 56.6781H3.3252V60.0031H6.6502V56.6781Z" fill="#FF6600"/>
<path d="M6.6502 50.0062H3.3252V53.3312H6.6502V50.0062Z" fill="#FF6600"/>
<path d="M6.6502 33.3375H3.3252V36.6625H6.6502V33.3375Z" fill="#FF6600"/>
<path d="M3.325 29.9907H13.3219V33.3375H16.6687V29.9907H49.9844V33.3375H53.3312V29.9907H63.3281V33.3375H66.6531V23.3407H63.3281V26.6657H53.3312V23.3407H49.9844V26.6657H16.6687V23.3407H13.3219V26.6657H3.325V23.3407H0V33.3375H3.325V29.9907Z" fill="#FF6600"/>
<path d="M6.6502 19.9938H3.3252V23.3406H6.6502V19.9938Z" fill="#FF6600"/>
<path d="M3.325 9.99688H6.65V6.67188H9.99688V3.325H6.65V0H3.325V3.325H0V6.67188H3.325V9.99688Z" fill="#FF6600"/>
<path d="M3.325 53.3313H0V56.6781H3.325V53.3313Z" fill="#FF6600"/>
</svg>
