<svg width="53" height="58" viewBox="0 0 53 58" fill="none" xmlns="http://www.w3.org/2000/svg">
<path d="M52.4723 2.77312H49.7173V11.0562H52.4723V2.77312Z" fill="#FF6600"/>
<path d="M44.1886 2.77312H49.7168V0H2.75488V2.77312H8.29207V11.0562H2.75488V55.245H5.52801V13.8112H46.9436V55.245H49.7168V11.0562H44.1886V2.77312ZM16.5661 11.0562H11.038V2.77312H16.5661V11.0562ZM24.8493 11.0562H19.3483V2.77312H24.8583L24.8493 11.0562ZM33.1324 11.0562H27.6224V2.77312H33.1324V11.0562ZM41.4336 11.0562H35.9055V2.77312H41.4336V11.0562Z" fill="#FF6600"/>
<path d="M46.9435 55.245H5.52783V58H46.9435V55.245Z" fill="#FF6600"/>
<path d="M44.1886 27.6225H41.4336V30.3956H44.1886V27.6225Z" fill="#FF6600"/>
<path d="M41.434 41.4338H38.6609V35.9056H35.9059V33.1506H30.3778V30.3956H27.6228V27.6225H24.8497V24.8675H22.0947V27.6225H19.3487V33.1506H22.1037V35.9056H27.6319V38.6788H22.1037V35.9056H19.3487V33.1506H16.5756V35.9056H13.8115V41.4338H11.0384V44.1888H8.29248V49.7169H11.0475V52.49H41.4431V49.7169H44.1981V44.1888H41.4431L41.434 41.4338ZM38.6609 46.9619H13.8115V44.1888H38.6609V46.9619Z" fill="#FF6600"/>
<path d="M41.4338 30.3956H38.6606V33.1506H41.4338V30.3956Z" fill="#FF6600"/>
<path d="M38.6608 27.6225H35.9058V30.3956H38.6608V27.6225Z" fill="#FF6600"/>
<path d="M38.6608 16.5844H35.9058V19.3394H38.6608V16.5844Z" fill="#FF6600"/>
<path d="M22.0944 19.3394H19.3394V22.0944H22.0944V19.3394Z" fill="#FF6600"/>
<path d="M19.3395 22.0944H16.5664V24.8675H19.3395V22.0944Z" fill="#FF6600"/>
<path d="M16.5665 19.3394H13.8115V22.0944H16.5665V19.3394Z" fill="#FF6600"/>
<path d="M11.0377 27.6225H8.28271V30.3956H11.0377V27.6225Z" fill="#FF6600"/>
<path d="M2.755 2.77312H0V11.0562H2.755V2.77312Z" fill="#FF6600"/>
</svg>
