<svg width="31" height="29" viewBox="0 0 31 29" fill="none" xmlns="http://www.w3.org/2000/svg">
<path d="M27.9 13.7368V25.9474H24.8V13.7368H27.9Z" fill="black"/>
<path d="M6.2 13.7368L6.2 25.9474H3.1L3.1 13.7368H6.2Z" fill="black"/>
<path d="M27.9 29L3.1 29L3.1 25.9474H27.9V29Z" fill="black"/>
<path d="M27.9 16.7895L3.1 16.7895L3.1 13.7368H27.9V16.7895Z" fill="black"/>
<path d="M31 13.7368H27.9V9.1579L31 9.1579V13.7368Z" fill="black"/>
<path d="M3.1 13.7368H0L3.25213e-07 9.1579L3.1 9.1579L3.1 13.7368Z" fill="black"/>
<path d="M20.15 25.9474L17.05 25.9474V7.63158L20.15 7.63158V25.9474Z" fill="black"/>
<path d="M13.95 25.9474L10.85 25.9474V7.63158L13.95 7.63158V25.9474Z" fill="black"/>
<path d="M20.15 3.05263L17.05 3.05263V0L20.15 2.6687e-07V3.05263Z" fill="black"/>
<path d="M23.25 3.05263H20.15V2.6687e-07H23.25V3.05263Z" fill="black"/>
<path d="M23.25 6.10526H20.15V3.05263H23.25V6.10526Z" fill="black"/>
<path d="M13.95 3.05263L10.85 3.05263V0L13.95 2.6687e-07V3.05263Z" fill="black"/>
<path d="M17.05 6.10526H13.95V3.05263L17.05 3.05263V6.10526Z" fill="black"/>
<path d="M10.85 3.05263H7.75V0H10.85V3.05263Z" fill="black"/>
<path d="M10.85 6.10526H7.75V3.05263H10.85V6.10526Z" fill="black"/>
<path d="M27.9 9.1579L3.1 9.1579L3.1 6.10526L27.9 6.10527V9.1579Z" fill="black"/>
</svg>
