<svg width="75" height="47" viewBox="0 0 75 47" fill="none" xmlns="http://www.w3.org/2000/svg">
<path d="M71.4146 7.14848H67.8521V10.7344H71.4146V14.297H67.8521V17.8595H71.4146V21.4454H67.8521V25.008H71.4146V28.5705H67.8521V32.1565H71.4146V35.719H67.8521V39.3049H71.4146V42.8675H75.0005V3.58595H71.4146V7.14848Z" fill="#FF6600"/>
<path d="M64.2895 39.3049H60.7035V42.8675H57.141V39.3049H53.5785V42.8675H49.9925V39.3049H46.43V42.8675H42.844V39.3049H39.2815V42.8675H35.719V39.3049H32.133V42.8675H28.5705V39.3049H24.9845V42.8675H21.422V39.3049H17.8595V42.8675H14.2735V39.3049H10.711V42.8675H3.5625V46.43H71.4145V42.8675H64.2895V39.3049Z" fill="#FF6600"/>
<path d="M60.7037 10.7345H53.5786V14.297H49.9927V21.4455H53.5786V25.008H60.7037V21.4455H64.2896V14.297H60.7037V10.7345Z" fill="#FF6600"/>
<path d="M32.133 32.1565H10.7109V35.719H32.133V32.1565Z" fill="#FF6600"/>
<path d="M24.9845 25.008H10.7109V28.5705H24.9845V25.008Z" fill="#FF6600"/>
<path d="M10.711 7.14849H14.2735V3.58596H17.8595V7.14849H21.422V3.58596H24.9845V7.14849H28.5705V3.58596H32.133V7.14849H35.719V3.58596H39.2815V7.14849H42.844V3.58596H46.43V7.14849H49.9925V3.58596H53.5785V7.14849H57.141V3.58596H60.7035V7.14849H64.2895V3.58596H71.4145V0H3.5625V3.58596H10.711V7.14849Z" fill="#FF6600"/>
<path d="M7.14849 39.3049V35.719H3.56252V32.1565H7.14849V28.5705H3.56252V25.008H7.14849V21.4454H3.56252V17.8595H7.14849V14.297H3.56252V10.7344H7.14849V7.14848H3.56252V3.58595H0V42.8675H3.56252V39.3049H7.14849Z" fill="#FF6600"/>
</svg>
