<svg width="68" height="68" viewBox="0 0 68 68" fill="none" xmlns="http://www.w3.org/2000/svg">
<path d="M68 22.6738H64.77V25.9038H68V22.6738Z" fill="#FF6600"/>
<path d="M68 12.9625H64.77V16.1925H68V12.9625Z" fill="#FF6600"/>
<path d="M64.7703 16.1925H61.519V19.4438H64.7703V16.1925Z" fill="#FF6600"/>
<path d="M64.7703 9.71127H61.519V12.9625H64.7703V9.71127Z" fill="#FF6600"/>
<path d="M58.2885 35.615H9.71096V29.155H6.48096V38.8663H9.71096V58.2887H12.9622V55.0587H19.4435V64.77H16.1922V58.2887H12.9622V68H55.0585V58.2887H51.8072V64.77H48.5772V55.0587H55.0585V58.2887H58.2885V38.8663H61.5185V29.155H58.2885V35.615ZM19.4435 51.8075H12.9622V45.3475H19.4435V51.8075ZM19.4435 42.0962H12.9622V38.8663H19.4435V42.0962ZM29.1547 64.77H22.6735V55.0587H29.1547V64.77ZM29.1547 51.8075H22.6735V45.3475H29.1547V51.8075ZM29.1547 42.0962H22.6735V38.8663H29.1547V42.0962ZM45.3472 64.77H38.866V55.0587H45.3472V64.77ZM45.3472 51.8075H38.866V45.3475H45.3472V51.8075ZM45.3472 42.0962H38.866V38.8663H45.3472V42.0962ZM55.0585 51.8075H48.5772V45.3475H55.0585V51.8075ZM55.0585 42.0962H48.5772V38.8663H55.0585V42.0962Z" fill="#FF6600"/>
<path d="M61.5191 12.9625H58.2891V16.1925H61.5191V12.9625Z" fill="#FF6600"/>
<path d="M55.0584 16.1925H51.8071V22.6738H55.0584V16.1925Z" fill="#FF6600"/>
<path d="M58.2889 0H51.8076V3.25125H48.5776V9.71125H51.8076V6.48125H55.0589V3.25125H58.2889V0Z" fill="#FF6600"/>
<path d="M51.8074 12.9625H42.0962V16.1925H51.8074V12.9625Z" fill="#FF6600"/>
<path d="M42.0967 16.1925H38.8667V19.4438H42.0967V16.1925Z" fill="#FF6600"/>
<path d="M42.0967 6.48123H38.8667V9.71123H42.0967V6.48123Z" fill="#FF6600"/>
<path d="M35.6153 16.1925H32.3853V19.4438H35.6153V16.1925Z" fill="#FF6600"/>
<path d="M29.1551 16.1925H25.9038V19.4438H29.1551V16.1925Z" fill="#FF6600"/>
<path d="M25.9038 3.25125H22.6738V6.48125H25.9038V3.25125Z" fill="#FF6600"/>
<path d="M25.9041 12.9625H16.1929V16.1925H25.9041V12.9625Z" fill="#FF6600"/>
<path d="M51.8072 25.9037V22.6737H48.5772V25.9037H45.3472V22.6737H48.5772V19.4437H42.0959V22.6737H38.8659V19.4437H35.6147V25.9037H32.3847V19.4437H29.1547V22.6737H25.9034V19.4437H19.4434V22.6737H22.6734V25.9037H19.4434V22.6737H16.1922V25.9037H9.71094V29.155H58.2884V25.9037H51.8072Z" fill="#FF6600"/>
<path d="M16.1929 16.1925H12.9629V22.6738H16.1929V16.1925Z" fill="#FF6600"/>
<path d="M9.71096 16.1925H6.48096V19.4438H9.71096V16.1925Z" fill="#FF6600"/>
<path d="M6.48049 0V3.25125H3.25049V6.48125H6.48049V9.71125H9.71049V6.48125H12.9617V3.25125H9.71049V0H6.48049Z" fill="#FF6600"/>
<path d="M6.48049 19.4437H3.25049V22.6737H6.48049V19.4437Z" fill="#FF6600"/>
<path d="M6.48049 12.9625H3.25049V16.1925H6.48049V12.9625Z" fill="#FF6600"/>
<path d="M3.25125 16.1925H0V19.4438H3.25125V16.1925Z" fill="#FF6600"/>
</svg>
