<svg width="59" height="66" viewBox="0 0 59 66" fill="none" xmlns="http://www.w3.org/2000/svg">
<path d="M58.9898 24.8389H55.8926V31.0537H52.775V27.9565H49.6778V24.8389H55.8926V21.7417H49.6778V18.6241H46.5806V31.0537H43.463V34.1509H15.5269V31.0537H12.4093V18.6241H9.32222V21.7417H3.09722V24.8389H9.32222V27.9565H6.21482V31.0537H3.09722V24.8389H0V34.1509H3.09722V37.2685H9.32222V58.9898H12.4194V62.1074H15.537V65.2046H43.4731V62.1074H46.5907V58.9898H49.688V37.2685H55.9028V34.1509H59L58.9898 24.8389ZM46.5806 43.4833H12.4093V40.3658H46.5806V43.4833Z" fill="#FF6600"/>
<path d="M46.5805 15.5268H43.4629V18.624H46.5805V15.5268Z" fill="#FF6600"/>
<path d="M46.5805 3.11758H43.4629V9.31202H46.5805V3.11758Z" fill="#FF6600"/>
<path d="M43.4629 9.31204H40.3657V15.5269H43.4629V9.31204Z" fill="#FF6600"/>
<path d="M43.4624 0H37.2476V3.1176H43.4624V0Z" fill="#FF6600"/>
<path d="M40.3652 21.7417H37.2476V24.8389H40.3652V21.7417Z" fill="#FF6600"/>
<path d="M37.2476 3.11758H34.1504V9.31202H37.2476V3.11758Z" fill="#FF6600"/>
<path d="M34.1514 9.31204H31.0542V12.4296H34.1514V9.31204Z" fill="#FF6600"/>
<path d="M27.9361 31.0537H31.0537V27.9565H34.1509V24.8389H24.8389V27.9565H27.9361V31.0537Z" fill="#FF6600"/>
<path d="M31.0536 12.4296H27.936V15.5268H31.0536V12.4296Z" fill="#FF6600"/>
<path d="M27.9361 9.31204H24.8389V12.4296H27.9361V9.31204Z" fill="#FF6600"/>
<path d="M24.8393 3.11758H21.7217V9.31202H24.8393V3.11758Z" fill="#FF6600"/>
<path d="M21.7217 21.7417H18.6245V24.8389H21.7217V21.7417Z" fill="#FF6600"/>
<path d="M21.7213 0H15.5269V3.1176H21.7213V0Z" fill="#FF6600"/>
<path d="M18.6241 9.31204H15.5269V15.5269H18.6241V9.31204Z" fill="#FF6600"/>
<path d="M15.5268 15.5268H12.4092V18.624H15.5268V15.5268Z" fill="#FF6600"/>
<path d="M15.5268 3.11758H12.4092V9.31202H15.5268V3.11758Z" fill="#FF6600"/>
</svg>
