<svg width="24" height="24" viewBox="0 0 24 24" fill="none" xmlns="http://www.w3.org/2000/svg">
<path d="M3 7L3 8L3 9L4 9L5 9L5 10L5 11L6 11L7 11L7 12L7 13L8 13L9 13L9 14L9 15L10 15L10 16L11 16L11 17L12 17L13 17L13 16L14 16L14 15L15 15L15 14L15 13L16 13L17 13L17 12L17 11L18 11L19 11L19 10L19 9L20 9L21 9L21 8L21 7L22 7L22 6L22 5L21 5L20 5L19 5L19 6L19 7L18 7L17 7L17 8L17 9L16 9L15 9L15 10L15 11L14 11L13 11L13 12L13 13L12 13L11 13L11 12L11 11L10 11L9 11L9 10L9 9L8 9L7 9L7 8L7 7L6 7L5 7L5 6L5 5L4 5L3 5L2 5L2 6L2 7L3 7Z" fill="#306338"/>
</svg>
