<svg width="127" height="131" viewBox="0 0 127 131" fill="none" xmlns="http://www.w3.org/2000/svg">
<path d="M120.967 38.2744H114.895V26.1697H108.863L102.791 26.1697V20.1372V14.1047H90.7256V8.0325H78.6209V2H48.3791V8.0325H36.2744V14.1047H24.1697V20.1372V26.1697L18.1372 26.1697H12.1047V38.2744H6.0325V50.3791H0V80.6209H6.0325V92.7256H12.1047V104.791H18.1372H24.1697V110.863V116.895H36.2744V122.967H48.3791V129H78.6209V122.967H90.7256V116.895H102.791V110.863V104.791H108.863H114.895V92.7256H120.967V80.6209H127V50.3791H120.967V38.2744Z" fill="#DB7751"/>
<g filter="url(#filter0_d_2254_15439)">
<path fill-rule="evenodd" clip-rule="evenodd" d="M34.6364 0V11.5455H23.0909V23.0909H11.5455V34.6364H0V92.3636H11.5455V103.909H23.0909V115.455H34.6364V127H92.3636V115.455H103.909V103.909H115.455V92.3636H127V34.6364H115.455V23.0909H103.909V11.5455H92.3636V0H34.6364ZM92.3636 11.5455V23.0909H103.909V34.6364H115.455V92.3636H103.909V103.909H92.3636V115.455H34.6364V103.909H23.0909V92.3636H11.5455V34.6364H23.0909V23.0909H34.6364V11.5455H92.3636Z" fill="#FF8557"/>
</g>
<path d="M94.7487 42.7113H91.5187V39.4812H88.2675V36.23H81.8075V33H46.1712V36.23H68.845V39.4812H75.3262V42.7113H78.5562V45.9625H81.8075V62.1338H78.5562V65.385H75.3262V97.77H39.7112V101H85.0375V97.77H88.2675V94.5188H91.5187V91.2887H94.7487V62.1338H98V45.9625H94.7487V42.7113Z" fill="#000001"/>
<path d="M65.615 78.3264H62.3638V81.5777H65.615V78.3264Z" fill="#000001"/>
<path d="M62.3637 71.8663H59.1337V75.0963H62.3637V71.8663Z" fill="#000001"/>
<path d="M62.3637 81.5777H49.4225V84.8077H62.3637V81.5777Z" fill="#000001"/>
<path d="M52.6525 71.8663H49.4225V75.0963H52.6525V71.8663Z" fill="#000001"/>
<path d="M49.4225 78.3264H46.1713V81.5777H49.4225V78.3264Z" fill="#000001"/>
<path d="M46.1712 36.23H39.7112V39.4813H46.1712V36.23Z" fill="#000001"/>
<path d="M39.7113 65.385H36.46V97.77H39.7113V65.385Z" fill="#000001"/>
<path d="M39.7113 39.4814H36.46V42.7114H39.7113V39.4814Z" fill="#000001"/>
<path d="M36.46 62.1337H33.23V65.3849H36.46V62.1337Z" fill="#000001"/>
<path d="M36.46 42.7111H33.23V45.9624H36.46V42.7111Z" fill="#000001"/>
<path d="M33.23 45.9624H30V62.1337H33.23V45.9624Z" fill="#000001"/>
<defs>
<filter id="filter0_d_2254_15439" x="0" y="0" width="127" height="131" filterUnits="userSpaceOnUse" color-interpolation-filters="sRGB">
<feFlood flood-opacity="0" result="BackgroundImageFix"/>
<feColorMatrix in="SourceAlpha" type="matrix" values="0 0 0 0 0 0 0 0 0 0 0 0 0 0 0 0 0 0 127 0" result="hardAlpha"/>
<feOffset dy="4"/>
<feComposite in2="hardAlpha" operator="out"/>
<feColorMatrix type="matrix" values="0 0 0 0 0.669872 0 0 0 0 0.307781 0 0 0 0 0.169615 0 0 0 1 0"/>
<feBlend mode="normal" in2="BackgroundImageFix" result="effect1_dropShadow_2254_15439"/>
<feBlend mode="normal" in="SourceGraphic" in2="effect1_dropShadow_2254_15439" result="shape"/>
</filter>
</defs>
</svg>
