<svg width="127" height="131" viewBox="0 0 127 131" fill="none" xmlns="http://www.w3.org/2000/svg">
<path d="M120.967 38.2744H114.895V26.1697H108.863L102.791 26.1697V20.1372V14.1047H90.7256V8.0325H78.6209V2H48.3791V8.0325H36.2744V14.1047H24.1697V20.1372V26.1697L18.1372 26.1697H12.1047V38.2744H6.0325V50.3791H0V80.6209H6.0325V92.7256H12.1047V104.791H18.1372H24.1697V110.863V116.895H36.2744V122.967H48.3791V129H78.6209V122.967H90.7256V116.895H102.791V110.863V104.791H108.863H114.895V92.7256H120.967V80.6209H127V50.3791H120.967V38.2744Z" fill="#443E3E"/>
<path d="M103 88.4264H99.295V92.1314H103V88.4264Z" fill="#000001"/>
<path d="M103 62.4182V54.9838H99.295V58.7132H95.5656V51.2788H91.8606V66.1476H88.1313V62.4182H84.4263V69.8526H91.8606V80.992H73.2869V84.7213H103V80.992H95.5656V62.4182H103Z" fill="#000001"/>
<path d="M103 29H95.5656V32.705H103V29Z" fill="#000001"/>
<path d="M91.8606 88.4264H88.1313V92.1314H91.8606V88.4264Z" fill="#000001"/>
<path d="M91.8606 36.4344H84.4263V40.1394H91.8606V36.4344Z" fill="#000001"/>
<path d="M76.9919 88.4264H73.2869V92.1314H76.9919V88.4264Z" fill="#000001"/>
<path d="M73.2869 51.2788H62.1475V54.9838H73.2869V58.7132H76.9919V40.1394H73.2869V51.2788Z" fill="#000001"/>
<path d="M58.4181 66.1476H51.0081V69.8526H58.4181V73.5576H51.0081V69.8526H47.2787V84.7213H58.4181V88.4263H47.2787V92.1313H36.1394V95.8729H39.8687V103.283H47.2787V99.5779H43.5737V95.8729H54.7131V92.1435H58.4181V95.8729H65.8525V92.1435H62.1475V77.2991H65.8525V81.0041H69.5819V73.5697H62.1475V62.4304H73.2869V58.7254H58.4181V66.1476ZM58.4181 80.9919H51.0081V77.2869H58.4181V80.9919Z" fill="#000001"/>
<path d="M58.4181 29H51.0081V32.705H58.4181V29Z" fill="#000001"/>
<path d="M51.0081 43.8445H47.2787V51.2788H51.0081V43.8445Z" fill="#000001"/>
<path d="M73.2869 36.4344H43.5737V40.1394H73.2869V36.4344Z" fill="#000001"/>
<path d="M47.2787 84.7212H43.5737V88.4262H47.2787V84.7212Z" fill="#000001"/>
<path d="M43.5737 40.1394H39.8687V66.1475H43.5737V40.1394Z" fill="#000001"/>
<path d="M39.8687 66.1476H36.1394V77.287H39.8687V66.1476Z" fill="#000001"/>
<path d="M36.1394 88.4264H32.4344V92.1314H36.1394V88.4264Z" fill="#000001"/>
<path d="M36.1394 77.2868H32.4344V80.9918H36.1394V77.2868Z" fill="#000001"/>
<path d="M32.4344 84.7212H28.705V88.4262H32.4344V84.7212Z" fill="#000001"/>
<path d="M32.4344 40.1394H25V43.8444H32.4344V40.1394Z" fill="#000001"/>
<path d="M28.705 77.2868H32.4344V73.5575H28.705V69.8525H25V84.7212H28.705V77.2868Z" fill="#000001"/>
<g filter="url(#filter0_d_2254_15437)">
<path fill-rule="evenodd" clip-rule="evenodd" d="M34.6364 0V11.5455H23.0909V23.0909H11.5455V34.6364H0V92.3636H11.5455V103.909H23.0909V115.455H34.6364V127H92.3636V115.455H103.909V103.909H115.455V92.3636H127V34.6364H115.455V23.0909H103.909V11.5455H92.3636V0H34.6364ZM92.3636 11.5455V23.0909H103.909V34.6364H115.455V92.3636H103.909V103.909H92.3636V115.455H34.6364V103.909H23.0909V92.3636H11.5455V34.6364H23.0909V23.0909H34.6364V11.5455H92.3636Z" fill="#494949"/>
</g>
<defs>
<filter id="filter0_d_2254_15437" x="0" y="0" width="127" height="131" filterUnits="userSpaceOnUse" color-interpolation-filters="sRGB">
<feFlood flood-opacity="0" result="BackgroundImageFix"/>
<feColorMatrix in="SourceAlpha" type="matrix" values="0 0 0 0 0 0 0 0 0 0 0 0 0 0 0 0 0 0 127 0" result="hardAlpha"/>
<feOffset dy="4"/>
<feComposite in2="hardAlpha" operator="out"/>
<feColorMatrix type="matrix" values="0 0 0 0 0.153846 0 0 0 0 0.153846 0 0 0 0 0.153846 0 0 0 1 0"/>
<feBlend mode="normal" in2="BackgroundImageFix" result="effect1_dropShadow_2254_15437"/>
<feBlend mode="normal" in="SourceGraphic" in2="effect1_dropShadow_2254_15437" result="shape"/>
</filter>
</defs>
</svg>
