<svg width="127" height="131" viewBox="0 0 127 131" fill="none" xmlns="http://www.w3.org/2000/svg">
<path d="M120.967 38.2744H114.895V26.1697H108.863L102.791 26.1697V20.1372V14.1047H90.7256V8.0325H78.6209V2H48.3791V8.0325H36.2744V14.1047H24.1697V20.1372V26.1697L18.1372 26.1697H12.1047V38.2744H6.0325V50.3791H0V80.6209H6.0325V92.7256H12.1047V104.791H18.1372H24.1697V110.863V116.895H36.2744V122.967H48.3791V129H78.6209V122.967H90.7256V116.895H102.791V110.863V104.791H108.863H114.895V92.7256H120.967V80.6209H127V50.3791H120.967V38.2744Z" fill="#9C3748"/>
<path d="M97 72.5457H93.6368V82.5913H97V72.5457Z" fill="#000001"/>
<path d="M93.6368 29H90.2956V32.3412H86.9324V35.7044H90.2956V39.0456H93.6368V35.7044H97V32.3412H93.6368V29Z" fill="#000001"/>
<path d="M93.6368 52.4545H90.2956V72.5457H93.6368V52.4545Z" fill="#000001"/>
<path d="M93.6368 82.5912H86.9324V85.9324H93.6368V82.5912Z" fill="#000001"/>
<path d="M90.2956 45.75H86.9324V52.4544H90.2956V45.75Z" fill="#000001"/>
<path d="M86.9324 85.9325H83.5912V89.2957H86.9324V85.9325Z" fill="#000001"/>
<path d="M86.9324 75.8867H83.5912V82.5911H86.9324V75.8867Z" fill="#000001"/>
<path d="M86.9324 42.4087H83.5912V45.7499H86.9324V42.4087Z" fill="#000001"/>
<path d="M83.5912 89.2957H80.25V92.6369H83.5912V89.2957Z" fill="#000001"/>
<path d="M83.5912 52.4545H80.25V55.7957H76.8868V59.1369H80.25V62.5001H83.5912V59.1369H86.9324V55.7957H83.5912V52.4545Z" fill="#000001"/>
<path d="M83.5912 39.0455H76.8868V42.4087H83.5912V39.0455Z" fill="#000001"/>
<path d="M80.25 92.6367H73.5456V95.9999H80.25V92.6367Z" fill="#000001"/>
<path d="M66.8412 62.5V72.5456H76.8868V62.5H66.8412ZM73.5456 69.2044H70.1824V65.8412H73.5456V69.2044Z" fill="#000001"/>
<path d="M73.5456 96H50.0912V99.3412H73.5456V96Z" fill="#000001"/>
<path d="M66.8412 75.8867H63.5V82.5911H66.8412V75.8867Z" fill="#000001"/>
<path d="M76.8868 35.7045H60.1368V39.0457H76.8868V35.7045Z" fill="#000001"/>
<path d="M60.1368 62.5001H63.5V59.1369H66.8412V55.7957H63.5V52.4545H60.1368V55.7957H56.7956V59.1369H60.1368V62.5001Z" fill="#000001"/>
<path d="M63.5 82.5912H56.7956V85.9324H63.5V82.5912Z" fill="#000001"/>
<path d="M60.1368 39.0455H53.4544V42.4087H60.1368V39.0455Z" fill="#000001"/>
<path d="M56.7956 75.8867H53.4544V82.5911H56.7956V75.8867Z" fill="#000001"/>
<path d="M53.4544 42.4087H50.0912V45.7499H53.4544V42.4087Z" fill="#000001"/>
<path d="M53.4544 29H50.0912V32.3412H53.4544V29Z" fill="#000001"/>
<path d="M50.0912 92.6367H43.3868V95.9999H50.0912V92.6367Z" fill="#000001"/>
<path d="M50.0912 45.75H46.75V52.4544H50.0912V45.75Z" fill="#000001"/>
<path d="M46.75 52.4545H43.3868V72.5457H46.75V52.4545Z" fill="#000001"/>
<path d="M43.3868 89.2957H40.0456V92.6369H43.3868V89.2957Z" fill="#000001"/>
<path d="M43.3868 39.0455H40.0456V49.0911H43.3868V39.0455Z" fill="#000001"/>
<path d="M40.0456 85.9325H36.7044V89.2957H40.0456V85.9325Z" fill="#000001"/>
<path d="M43.3868 72.5457H36.7044V75.8869H43.3868V72.5457Z" fill="#000001"/>
<path d="M40.0456 35.7045H33.3412V39.0457H40.0456V35.7045Z" fill="#000001"/>
<path d="M36.7044 82.5912H33.3412V85.9324H36.7044V82.5912Z" fill="#000001"/>
<path d="M36.7044 69.2045H33.3412V72.5457H36.7044V69.2045Z" fill="#000001"/>
<path d="M40.0456 49.0912H30V52.4544H40.0456V49.0912Z" fill="#000001"/>
<path d="M36.7044 42.4087H33.3412V45.7499H36.7044V42.4087Z" fill="#000001"/>
<path d="M33.3412 72.5457H30V82.5913H33.3412V72.5457Z" fill="#000001"/>
<path d="M33.3412 59.1367H30V62.4999H33.3412V59.1367Z" fill="#000001"/>
<path d="M33.3412 39.0455H30V42.4087H33.3412V39.0455Z" fill="#000001"/>
<g filter="url(#filter0_d_2254_15435)">
<path fill-rule="evenodd" clip-rule="evenodd" d="M34.6364 0V11.5455H23.0909V23.0909H11.5455V34.6364H0V92.3636H11.5455V103.909H23.0909V115.455H34.6364V127H92.3636V115.455H103.909V103.909H115.455V92.3636H127V34.6364H115.455V23.0909H103.909V11.5455H92.3636V0H34.6364ZM92.3636 11.5455V23.0909H103.909V34.6364H115.455V92.3636H103.909V103.909H92.3636V115.455H34.6364V103.909H23.0909V92.3636H11.5455V34.6364H23.0909V23.0909H34.6364V11.5455H92.3636Z" fill="#C03C49"/>
</g>
<defs>
<filter id="filter0_d_2254_15435" x="0" y="0" width="127" height="131" filterUnits="userSpaceOnUse" color-interpolation-filters="sRGB">
<feFlood flood-opacity="0" result="BackgroundImageFix"/>
<feColorMatrix in="SourceAlpha" type="matrix" values="0 0 0 0 0 0 0 0 0 0 0 0 0 0 0 0 0 0 127 0" result="hardAlpha"/>
<feOffset dy="4"/>
<feComposite in2="hardAlpha" operator="out"/>
<feColorMatrix type="matrix" values="0 0 0 0 0.378205 0 0 0 0 0.0993999 0 0 0 0 0.126858 0 0 0 1 0"/>
<feBlend mode="normal" in2="BackgroundImageFix" result="effect1_dropShadow_2254_15435"/>
<feBlend mode="normal" in="SourceGraphic" in2="effect1_dropShadow_2254_15435" result="shape"/>
</filter>
</defs>
</svg>
