<svg width="127" height="131" viewBox="0 0 127 131" fill="none" xmlns="http://www.w3.org/2000/svg">
<path d="M120.967 38.2744H114.895V26.1697H108.863L102.791 26.1697V20.1372V14.1047H90.7256V8.0325H78.6209V2H48.3791V8.0325H36.2744V14.1047H24.1697V20.1372V26.1697L18.1372 26.1697H12.1047V38.2744H6.0325V50.3791H0V80.6209H6.0325V92.7256H12.1047V104.791H18.1372H24.1697V110.863V116.895H36.2744V122.967H48.3791V129H78.6209V122.967H90.7256V116.895H102.791V110.863V104.791H108.863H114.895V92.7256H120.967V80.6209H127V50.3791H120.967V38.2744Z" fill="#06756C"/>
<g filter="url(#filter0_d_2254_15434)">
<path fill-rule="evenodd" clip-rule="evenodd" d="M34.6364 0V11.5455H23.0909V23.0909H11.5455V34.6364H0V92.3636H11.5455V103.909H23.0909V115.455H34.6364V127H92.3636V115.455H103.909V103.909H115.455V92.3636H127V34.6364H115.455V23.0909H103.909V11.5455H92.3636V0H34.6364ZM92.3636 11.5455V23.0909H103.909V34.6364H115.455V92.3636H103.909V103.909H92.3636V115.455H34.6364V103.909H23.0909V92.3636H11.5455V34.6364H23.0909V23.0909H34.6364V11.5455H92.3636Z" fill="#069F92"/>
</g>
<path d="M102.153 77.0171H94.4322V73.1443H90.5847V80.8646H78.9916V84.7121H75.1441V88.5849H67.4238V96.3052H82.8644V92.4324H102.153V88.5849H106V80.8646H102.153V77.0171Z" fill="black"/>
<path d="M90.5847 34.5677H86.7119V38.4405H90.5847V34.5677Z" fill="black"/>
<path d="M86.7119 96.3049H82.8644V100.152H86.7119V96.3049Z" fill="black"/>
<path d="M90.5847 69.2967H82.8644V73.1442H90.5847V69.2967Z" fill="black"/>
<path d="M86.7119 46.1611H82.8644V61.5764H86.7119V46.1611Z" fill="black"/>
<path d="M86.7119 38.4405H82.8644V42.288H86.7119V38.4405Z" fill="black"/>
<path d="M86.7119 30.7204H82.8644V34.5679H86.7119V30.7204Z" fill="black"/>
<path d="M82.8644 61.5763H78.9916V69.2966H82.8644V61.5763Z" fill="black"/>
<path d="M82.8644 42.2881H78.9916V46.1609H82.8644V42.2881Z" fill="black"/>
<path d="M82.8644 34.5677H78.9916V38.4405H82.8644V34.5677Z" fill="black"/>
<path d="M82.8644 100.153H55.8559V104H82.8644V100.153Z" fill="black"/>
<path d="M78.9916 46.1611H75.1441V50.0086H78.9916V46.1611Z" fill="black"/>
<path d="M78.9916 38.4405H75.1441V42.288H78.9916V38.4405Z" fill="black"/>
<path d="M75.1441 50.0085H71.2966V53.856H75.1441V50.0085Z" fill="black"/>
<path d="M75.1441 42.2881H71.2966V46.1609H75.1441V42.2881Z" fill="black"/>
<path d="M71.2966 53.8557H67.4238V57.7285H71.2966V53.8557Z" fill="black"/>
<path d="M71.2966 46.1611H67.4238V50.0086H71.2966V46.1611Z" fill="black"/>
<path d="M67.4237 57.7286H63.5762V61.5761H67.4237V57.7286Z" fill="black"/>
<path d="M67.4237 50.0085H63.5762V53.856H67.4237V50.0085Z" fill="black"/>
<path d="M63.5762 53.8557H55.8559V57.7285H63.5762V53.8557Z" fill="black"/>
<path d="M55.8559 96.3049H52.0084V100.152H55.8559V96.3049Z" fill="black"/>
<path d="M63.5762 80.8643V77.0168H59.7287V73.144H67.4237V65.449H55.8559V69.2965H44.2881V73.144H40.4406V77.0168H48.1356V80.8643H63.5762Z" fill="black"/>
<path d="M55.8559 34.5677H52.0084V38.4405H55.8559V34.5677Z" fill="black"/>
<path d="M59.7287 26.8728V34.5678H63.5762V42.2881H71.2966V38.4406H75.1441V34.5678H78.9916V30.7203H75.1441V26.8728H67.4237V23H48.1356V26.8728H59.7287Z" fill="black"/>
<path d="M52.0084 92.4323H36.5678V96.3051H52.0084V92.4323Z" fill="black"/>
<path d="M52.0084 46.1611H48.1356V50.0086H52.0084V46.1611Z" fill="black"/>
<path d="M52.0084 38.4405H44.2881V42.288H52.0084V38.4405Z" fill="black"/>
<path d="M48.1356 26.8729H40.4406V30.7204H48.1356V26.8729Z" fill="black"/>
<path d="M40.4406 69.2967H36.5678V73.1442H40.4406V69.2967Z" fill="black"/>
<path d="M40.4406 30.7204H36.5678V34.5679H40.4406V30.7204Z" fill="black"/>
<path d="M36.5678 88.5848H28.8475V92.4323H36.5678V88.5848Z" fill="black"/>
<path d="M48.1356 80.8644H28.8475V84.7119H48.1356V80.8644Z" fill="black"/>
<path d="M40.4406 61.5762V65.449H48.1356V53.8559H44.2881V50.0084H40.4406V42.288H36.5678V34.5677H32.7203V42.288H28.8475V61.5762H32.7203V69.2965H36.5678V61.5762H40.4406Z" fill="black"/>
<path d="M28.8475 84.7119H25V88.5847H28.8475V84.7119Z" fill="black"/>
<defs>
<filter id="filter0_d_2254_15434" x="0" y="0" width="127" height="131" filterUnits="userSpaceOnUse" color-interpolation-filters="sRGB">
<feFlood flood-opacity="0" result="BackgroundImageFix"/>
<feColorMatrix in="SourceAlpha" type="matrix" values="0 0 0 0 0 0 0 0 0 0 0 0 0 0 0 0 0 0 127 0" result="hardAlpha"/>
<feOffset dy="4"/>
<feComposite in2="hardAlpha" operator="out"/>
<feColorMatrix type="matrix" values="0 0 0 0 0.0254971 0 0 0 0 0.233974 0 0 0 0 0.217071 0 0 0 1 0"/>
<feBlend mode="normal" in2="BackgroundImageFix" result="effect1_dropShadow_2254_15434"/>
<feBlend mode="normal" in="SourceGraphic" in2="effect1_dropShadow_2254_15434" result="shape"/>
</filter>
</defs>
</svg>
