<svg width="127" height="131" viewBox="0 0 127 131" fill="none" xmlns="http://www.w3.org/2000/svg">
<path d="M120.967 38.2744H114.895V26.1697H108.863L102.791 26.1697V20.1372V14.1047H90.7256V8.0325H78.6209V2H48.3791V8.0325H36.2744V14.1047H24.1697V20.1372V26.1697L18.1372 26.1697H12.1047V38.2744H6.0325V50.3791H0V80.6209H6.0325V92.7256H12.1047V104.791H18.1372H24.1697V110.863V116.895H36.2744V122.967H48.3791V129H78.6209V122.967H90.7256V116.895H102.791V110.863V104.791H108.863H114.895V92.7256H120.967V80.6209H127V50.3791H120.967V38.2744Z" fill="#C72F2F"/>
<path d="M90.4203 58.7044H86.9053V48.1363H83.3671V76.3256H86.9053V62.2425H90.4203V65.7575H93.9584V55.1894H90.4203V58.7044Z" fill="#000001"/>
<path d="M79.8521 93.9469V101H83.3671V97.485H90.4202V101H93.9584V90.4319H90.4202V93.9469H79.8521Z" fill="#000001"/>
<path d="M90.4203 30.515H86.9053V34.0531H90.4203V30.515Z" fill="#000001"/>
<path d="M86.9053 34.0531H83.3671V37.5681H86.9053V34.0531Z" fill="#000001"/>
<path d="M86.9053 27H83.3671V30.515H86.9053V27Z" fill="#000001"/>
<path d="M83.3671 76.3256H79.8521V79.8638H83.3671V76.3256Z" fill="#000001"/>
<path d="M83.3671 44.6213H79.8521V48.1363H83.3671V44.6213Z" fill="#000001"/>
<path d="M76.3371 58.7044H72.799V55.1894H69.284V62.2425H72.799V65.7575H76.3371V62.2425H79.8521V55.1894H76.3371V58.7044Z" fill="#000001"/>
<path d="M79.8521 30.515H76.3371V34.0531H79.8521V30.515Z" fill="#000001"/>
<path d="M48.1478 79.8638V83.3787H51.6628V86.8937H37.5565V90.4319H90.4203V86.8937H76.3371V83.3787H79.8521V79.8638H48.1478ZM72.799 86.8937H55.1778V83.3787H72.799V86.8937Z" fill="#000001"/>
<path d="M76.3371 34.0531H72.799V37.5681H76.3371V34.0531Z" fill="#000001"/>
<path d="M76.3371 27H72.799V30.515H76.3371V27Z" fill="#000001"/>
<path d="M51.6628 93.9469V101H55.1778V97.485H72.799V101H76.3372V93.9469H51.6628Z" fill="#000001"/>
<path d="M69.284 30.515H65.7458V34.0531H69.284V30.515Z" fill="#000001"/>
<path d="M65.7459 69.2725H62.2309V72.8106H58.7159V76.3256H69.284V72.8106H65.7459V69.2725Z" fill="#000001"/>
<path d="M65.7459 27H62.2309V30.515H65.7459V27Z" fill="#000001"/>
<path d="M62.2309 30.515H58.7159V34.0531H62.2309V30.515Z" fill="#000001"/>
<path d="M58.7159 55.1894H55.1778V58.7044H51.6628V55.1894H48.1478V62.2425H51.6628V65.7575H55.1778V62.2425H58.7159V55.1894Z" fill="#000001"/>
<path d="M51.6628 48.1362H55.1778V51.6744H72.799V48.1362H76.3371V44.6212H79.8521V41.0831H65.7459V34.0531H62.2309V41.0831H48.1478V44.6212H51.6628V48.1362Z" fill="#000001"/>
<path d="M55.1778 34.0531H51.6628V37.5681H55.1778V34.0531Z" fill="#000001"/>
<path d="M55.1778 27H51.6628V30.515H55.1778V27Z" fill="#000001"/>
<path d="M51.6628 30.515H48.1478V34.0531H51.6628V30.515Z" fill="#000001"/>
<path d="M48.1477 76.3256H44.6096V79.8638H48.1477V76.3256Z" fill="#000001"/>
<path d="M48.1477 44.6213H44.6096V48.1363H48.1477V44.6213Z" fill="#000001"/>
<path d="M44.6096 48.1363H41.0946V58.7044H37.5565V55.1894H34.0415V65.7575H37.5565V62.2425H41.0946V76.3256H44.6096V48.1363Z" fill="#000001"/>
<path d="M44.6096 34.0531H41.0946V37.5681H44.6096V34.0531Z" fill="#000001"/>
<path d="M44.6096 27H41.0946V30.515H44.6096V27Z" fill="#000001"/>
<path d="M41.0946 30.515H37.5565V34.0531H41.0946V30.515Z" fill="#000001"/>
<path d="M34.0415 101H37.5565V97.485H44.6096V101H48.1478V93.9469H37.5565V90.4319H34.0415V101Z" fill="#000001"/>
<g filter="url(#filter0_d_2254_15438)">
<path fill-rule="evenodd" clip-rule="evenodd" d="M34.6364 0V11.5455H23.0909V23.0909H11.5455V34.6364H0V92.3636H11.5455V103.909H23.0909V115.455H34.6364V127H92.3636V115.455H103.909V103.909H115.455V92.3636H127V34.6364H115.455V23.0909H103.909V11.5455H92.3636V0H34.6364ZM92.3636 11.5455V23.0909H103.909V34.6364H115.455V92.3636H103.909V103.909H92.3636V115.455H34.6364V103.909H23.0909V92.3636H11.5455V34.6364H23.0909V23.0909H34.6364V11.5455H92.3636Z" fill="#F42929"/>
</g>
<defs>
<filter id="filter0_d_2254_15438" x="0" y="0" width="127" height="131" filterUnits="userSpaceOnUse" color-interpolation-filters="sRGB">
<feFlood flood-opacity="0" result="BackgroundImageFix"/>
<feColorMatrix in="SourceAlpha" type="matrix" values="0 0 0 0 0 0 0 0 0 0 0 0 0 0 0 0 0 0 127 0" result="hardAlpha"/>
<feOffset dy="4"/>
<feComposite in2="hardAlpha" operator="out"/>
<feColorMatrix type="matrix" values="0 0 0 0 0.612179 0 0 0 0 0.0706361 0 0 0 0 0.0706361 0 0 0 1 0"/>
<feBlend mode="normal" in2="BackgroundImageFix" result="effect1_dropShadow_2254_15438"/>
<feBlend mode="normal" in="SourceGraphic" in2="effect1_dropShadow_2254_15438" result="shape"/>
</filter>
</defs>
</svg>
