<svg width="127" height="131" viewBox="0 0 127 131" fill="none" xmlns="http://www.w3.org/2000/svg">
<path d="M120.967 38.2744H114.895V26.1697H108.863L102.791 26.1697V20.1372V14.1047H90.7256V8.0325H78.6209V2H48.3791V8.0325H36.2744V14.1047H24.1697V20.1372V26.1697L18.1372 26.1697H12.1047V38.2744H6.0325V50.3791H0V80.6209H6.0325V92.7256H12.1047V104.791H18.1372H24.1697V110.863V116.895H36.2744V122.967H48.3791V129H78.6209V122.967H90.7256V116.895H102.791V110.863V104.791H108.863H114.895V92.7256H120.967V80.6209H127V50.3791H120.967V38.2744Z" fill="#497550"/>
<g filter="url(#filter0_d_2254_15436)">
<path fill-rule="evenodd" clip-rule="evenodd" d="M34.6364 0V11.5455H23.0909V23.0909H11.5455V34.6364H0V92.3636H11.5455V103.909H23.0909V115.455H34.6364V127H92.3636V115.455H103.909V103.909H115.455V92.3636H127V34.6364H115.455V23.0909H103.909V11.5455H92.3636V0H34.6364ZM92.3636 11.5455V23.0909H103.909V34.6364H115.455V92.3636H103.909V103.909H92.3636V115.455H34.6364V103.909H23.0909V92.3636H11.5455V34.6364H23.0909V23.0909H34.6364V11.5455H92.3636Z" fill="#85CB90"/>
</g>
<path d="M108.589 69.1276H104.334V73.4111H108.589V69.1276Z" fill="#000001"/>
<path d="M104.334 73.4112H100.05V77.6667H104.334V73.4112Z" fill="#000001"/>
<path d="M100.05 86.2057H95.7946V94.7447H100.05V86.2057Z" fill="#000001"/>
<path d="M100.05 77.6667H95.7946V81.9501H100.05V77.6667Z" fill="#000001"/>
<path d="M95.7946 81.9503H91.5391V86.2057H95.7946V81.9503Z" fill="#000001"/>
<path d="M95.7946 94.7445H83.0001V99H95.7946V94.7445Z" fill="#000001"/>
<path d="M87.2556 39.2836H83.0001V43.5391H87.2556V39.2836Z" fill="#000001"/>
<path d="M83.0002 90.4613H78.7447V94.7448H83.0002V90.4613Z" fill="#000001"/>
<path d="M78.7447 86.2057H74.4612V90.4612H78.7447V86.2057Z" fill="#000001"/>
<path d="M74.4612 81.9503H70.2057V86.2057H74.4612V81.9503Z" fill="#000001"/>
<path d="M83.0001 35H61.6667V39.2835H83.0001V35Z" fill="#000001"/>
<path d="M70.2057 86.2057H61.6667V90.4612H70.2057V86.2057Z" fill="#000001"/>
<path d="M61.6668 81.9503H57.4113V86.2057H61.6668V81.9503Z" fill="#000001"/>
<path d="M57.4113 86.2057H53.1278V90.4612H57.4113V86.2057Z" fill="#000001"/>
<path d="M53.1278 90.4613H40.3334V94.7448H53.1278V90.4613Z" fill="#000001"/>
<path d="M48.8724 77.6667H44.6169V81.9501H48.8724V77.6667Z" fill="#000001"/>
<path d="M48.8724 64.8724H44.6169V69.1279H48.8724V64.8724Z" fill="#000001"/>
<path d="M48.8724 56.3335V52.078H53.1278V56.3335H57.4113V64.8724H53.1278V69.1279H48.8724V73.4114H53.1278V77.6669H91.5391V73.4114H95.7946V69.1279H104.334V64.8724H100.05V56.3335H95.7946V64.8724H91.5391V69.1279H87.2557V64.8724H83.0002V56.3335H87.2557V52.078H91.5391V56.3335H95.7946V47.8225H91.5391V43.5391H87.2557V47.8225H83.0002V52.078H65.9223V43.5391H61.6668V39.2836H53.1278V43.5391H48.8724V47.8225H44.6169V56.3335H48.8724ZM61.6668 69.1279H65.9223V64.8724H78.7447V69.1279H83.0002V73.4114H61.6668V69.1279Z" fill="#000001"/>
<path d="M44.6168 81.9503H40.3334V86.2057H44.6168V81.9503Z" fill="#000001"/>
<path d="M44.6168 73.4112H40.3334V77.6667H44.6168V73.4112Z" fill="#000001"/>
<path d="M44.6168 56.3333H40.3334V64.8723H44.6168V56.3333Z" fill="#000001"/>
<path d="M44.6168 43.5391H40.3334V47.8225H44.6168V43.5391Z" fill="#000001"/>
<path d="M40.3334 86.2057H36.0779V90.4612H40.3334V86.2057Z" fill="#000001"/>
<path d="M40.3334 69.1276H36.0779V73.4111H40.3334V69.1276Z" fill="#000001"/>
<path d="M36.0779 64.8724H31.7944V69.1279H36.0779V64.8724Z" fill="#000001"/>
<path d="M40.3334 39.2836H27.5389V43.5391H40.3334V39.2836Z" fill="#000001"/>
<path d="M31.7944 60.6169H23.2834V64.8724H31.7944V60.6169Z" fill="#000001"/>
<path d="M31.7944 52.0779H27.5389V56.3333H31.7944V52.0779Z" fill="#000001"/>
<path d="M27.5389 43.5391H23.2834V47.8225H27.5389V43.5391Z" fill="#000001"/>
<path d="M23.2835 47.8222H19V60.6167H23.2835V47.8222Z" fill="#000001"/>
<defs>
<filter id="filter0_d_2254_15436" x="0" y="0" width="127" height="131" filterUnits="userSpaceOnUse" color-interpolation-filters="sRGB">
<feFlood flood-opacity="0" result="BackgroundImageFix"/>
<feColorMatrix in="SourceAlpha" type="matrix" values="0 0 0 0 0 0 0 0 0 0 0 0 0 0 0 0 0 0 127 0" result="hardAlpha"/>
<feOffset dy="4"/>
<feComposite in2="hardAlpha" operator="out"/>
<feColorMatrix type="matrix" values="0 0 0 0 0.185322 0 0 0 0 0.282051 0 0 0 0 0.201671 0 0 0 1 0"/>
<feBlend mode="normal" in2="BackgroundImageFix" result="effect1_dropShadow_2254_15436"/>
<feBlend mode="normal" in="SourceGraphic" in2="effect1_dropShadow_2254_15436" result="shape"/>
</filter>
</defs>
</svg>
