<svg width="59" height="86" viewBox="0 0 59 86" fill="none" xmlns="http://www.w3.org/2000/svg">
<g id="Vector 68">
<g id="Vector">
<path id="Vector_2" d="M2.03418 0H56.9651V1.01176H2.03418V0Z" fill="black"/>
<path id="Vector_3" d="M2.03418 84.9883H56.9651V86H2.03418V84.9883Z" fill="black"/>
<path id="Vector_4" d="M56.9658 1.01172H57.9831V2.02348H56.9658V1.01172Z" fill="black"/>
<path id="Vector_5" d="M56.9658 83.9764H57.9831V84.9882H56.9658V83.9764Z" fill="black"/>
<path id="Vector_6" d="M1.01758 83.9764H2.03482V84.9882H1.01758V83.9764Z" fill="black"/>
<path id="Vector_7" d="M2.03418 83.9764H56.9651V84.9882H2.03418V83.9764Z" fill="#8B9AC6"/>
<path id="Vector_8" d="M56.9658 82.9647H57.9831V83.9765H56.9658V82.9647Z" fill="#8B9AC6"/>
<path id="Vector_9" d="M1.01758 82.9647H2.03482V83.9765H1.01758V82.9647Z" fill="#8B9AC6"/>
<path id="Vector_10" d="M56.9658 81.953H57.9831V82.9648H56.9658V81.953Z" fill="#FEFEFC"/>
<path id="Vector_11" d="M57.9824 2.02356H58.9997V83.9765H57.9824V2.02356Z" fill="black"/>
<path id="Vector_12" d="M0 2.02356H1.01724V83.9765H0V2.02356Z" fill="black"/>
<path id="Vector_13" d="M5.08594 3.03528H57.9824V81.9529H5.08594V3.03528Z" fill="#EEF0F9"/>
<path id="Vector_14" d="M1.01758 1.01172H2.03482V2.02348H1.01758V1.01172Z" fill="black"/>
<path id="Union" fill-rule="evenodd" clip-rule="evenodd" d="M6.10352 6.07031H7.12109V8.09375H8.1377V9.10547H9.15527V11.1289H10.1719V12.1406H11.1895V14.165H12.207V15.1768H13.2236V17.2002H14.2412V18.2119H15.2588V20.2354H16.2754V21.2471H17.293V23.2705H18.3105V24.2822H19.3271V26.3057H20.3447V27.3174H21.3623V29.3408H22.3789V30.3525H23.3965V32.376H24.4141V33.3877H25.4307V35.4111H26.4482V36.4229H27.4658V38.4463H28.4824V39.458H29.5V41.4824H30.5176V42.4941H31.5342V44.5176H32.5518V45.5293H33.5693V47.5527H34.5859V48.5645H35.6035V50.5879H36.6201V51.5996H37.6377V52.6113H38.6553V54.6348H39.6719V56.6582H40.6895V57.6699H41.707V59.6934H42.7236V60.7051H43.7412V62.7285H44.7588V63.7402H45.7754V65.7637H46.793V66.7764H47.8105V68.7998H48.8271V69.8115H49.8447V71.835H50.8623V72.8467H51.8789V74.8701H52.8965V75.8818H53.9141V77.9053H54.9307V78.917H55.9482V80.9404H56.9658V81.9521H57.9824V82.9639H56.9648V83.9756H2.03418V82.9639H1.01758V2.02344H1.91309V1.0918H56.9648V2.02344H57.9824V3.03516H5.08594V5.05859H6.10352V6.07031Z" fill="#DCE2F0"/>
<path id="Union_2" fill-rule="evenodd" clip-rule="evenodd" d="M10.1729 20.2354H11.1895V22.2588H12.207V23.2705H13.2246V24.2822H14.2412V26.3057H13.2246V27.3174H12.207V28.3291H11.1895V30.3525H10.1729V31.3643H8.1377V30.3525H7.12109V20.2354H8.1377V19.2236H10.1729V20.2354ZM7.12012 28.3291H6.10352V27.3174H5.08594V26.3057H4.06934V24.2822H5.08594V23.2705H6.10352V22.2588H7.12012V28.3291Z" fill="#B20C1D"/>
<path id="Union_3" fill-rule="evenodd" clip-rule="evenodd" d="M50.8623 53.624H51.8789V55.6475H52.8965V56.6592H53.9141V57.6709H54.9307V59.6943H53.9141V60.7061H52.8965V61.7178H51.8789V63.7412H50.8623V64.7529H48.8271V63.7412H47.8105V61.7178H46.793V60.7061H45.7754V59.6943H44.7588V57.6709H45.7754V56.6592H46.793V55.6475H47.8105V53.624H48.8271V52.6113H50.8623V53.624Z" fill="#B20C1D"/>
<path id="Vector_15" d="M7.37537 15.1765H5.72235V10.2442H4.06934V8.60005H5.72235V6.95593H7.37537V15.1765Z" fill="black"/>
<path id="Vector_16" d="M12.3337 8.60005V6.95593H13.9867V8.60005H12.3337ZM12.3337 13.5324H10.6807V8.60005H12.3337V13.5324ZM15.6397 13.5324H13.9867V8.60005H15.6397V13.5324ZM13.9867 13.5324V15.1765H12.3337V13.5324H13.9867Z" fill="black"/>
<path id="Vector_17" d="M51.625 68.8H53.278V73.7324H54.931V75.3765H53.278V77.0206H51.625V68.8Z" fill="black"/>
<path id="Vector_18" d="M46.6654 75.3765V77.0206H45.0124V75.3765H46.6654ZM46.6654 70.4442H48.3184V75.3765H46.6654V70.4442ZM43.3594 70.4442H45.0124V75.3765H43.3594V70.4442ZM45.0124 70.4442V68.8H46.6654V70.4442H45.0124Z" fill="black"/>
</g>
</g>
</svg>
