<svg width="58" height="85" viewBox="0 0 58 85" fill="none" xmlns="http://www.w3.org/2000/svg">
<rect x="2" width="54" height="1" fill="black"/>
<rect x="2" y="84" width="54" height="1" fill="black"/>
<rect x="56" y="1" width="1" height="1" fill="black"/>
<rect x="56" y="83" width="1" height="1" fill="black"/>
<rect x="1" y="83" width="1" height="1" fill="black"/>
<rect x="2" y="83" width="54" height="1" fill="#8B9AC6"/>
<rect x="56" y="82" width="1" height="1" fill="#8B9AC6"/>
<rect x="1" y="82" width="1" height="1" fill="#8B9AC6"/>
<rect x="56" y="81" width="1" height="1" fill="#FEFEFC"/>
<rect x="57" y="2" width="1" height="81" fill="black"/>
<rect y="2" width="1" height="81" fill="black"/>
<rect x="5" y="3" width="52" height="78" fill="#EEF0F9"/>
<rect x="1" y="1" width="1" height="1" fill="black"/>
<path d="M6 6H7V8H8V9H9V11H10V12H11V14H12V15H13V17H14V18H15V20H16V21H17V23H18V24H19V26H20V27H21V29H22V30H23V32H24V33H25V35H26V36H27V38H28V39H29V41H30V42H31V44H32V45H33V47H34V48H35V50H36V51H37V52H38V54H39V56H40V57H41V59H42V60H43V62H44V63H45V65H46V66H47V68H48V69H49V71H50V72H51V74H52V75H53V77H54V78H55V80H56V81H57V82H56V83H2V82H1V2H2V1H56V2H57V3H5V5H6V6Z" fill="#DCE2F0"/>
<path d="M7.25 15H5.625V8.5H4V6.875H8.875V8.5H7.25V15Z" fill="black"/>
<path d="M50.75 68H52.375V74.5H54V76.125H49.125V74.5H50.75V68Z" fill="black"/>
<path d="M51 62.2002H50.2002V63H47.7998V62.2002H47V61.4004H46.2002V59H47V58.2002H44.5996V57.4004H43.7998V56.5996H43V54.2002H43.7998V53.4004H44.5996V52.5996H47V53.4004H47.7998V52.5996H47V51.7998H47.7998V51H50.2002V51.7998H51V52.5996H50.2002V53.4004H51V52.5996H53.4004V53.4004H54.2002V54.2002H55V56.5996H54.2002V57.4004H53.4004V58.2002H51V59H51.7998V61.4004H51V62.2002ZM48.5996 53.4004H49.4004V52.5996H48.5996V53.4004ZM10.7002 20.7998H11.5V21.5996H12.2998V24H11.5V24.7998H13.9004V25.5996H14.7002V26.4004H15.5V28.7998H14.7002V29.5996H13.9004V30.4004H11.5V29.5996H10.7002V30.4004H11.5V31.2002H10.7002V32H8.2998V31.2002H7.5V30.4004H8.2998V29.5996H7.5V30.4004H5.09961V29.5996H4.2998V28.7998H3.5V26.4004H4.2998V25.5996H5.09961V24.7998H7.5V24H6.7002V21.5996H7.5V20.7998H8.2998V20H10.7002V20.7998ZM9.09961 30.4004H9.90039V29.5996H9.09961V30.4004Z" fill="black"/>
</svg>
